<?xml version="1.0" encoding="UTF-8"?>
<?xml-stylesheet href="https://cdnjs.cloudflare.com/ajax/libs/font-awesome/6.6.0/css/all.min.css" type="text/css"?>
<svg xmlns="http://www.w3.org/2000/svg" xmlns:xlink="http://www.w3.org/1999/xlink" width="100%" height="100%" stroke-linecap="round" viewBox="0 0 1219 459" style="max-width: 100%;"><g><path d="M1022.161 382.862 C1022.161 382.862, 1022.161 382.862, 1022.161 382.862 M1022.161 382.862 C1022.161 382.862, 1022.161 382.862, 1022.161 382.862 M1019.558 389.044 C1022.332 386.979, 1025.125 383.883, 1026.391 383.188 M1019.558 389.044 C1022.019 387.015, 1025.14 384.645, 1026.391 383.188 M1019.232 393.274 C1023.559 390.736, 1025.883 385.99, 1031.381 382.863 M1019.232 393.274 C1023.473 390.227, 1026.598 388.198, 1031.381 382.863 M1019.665 396.854 C1023.786 393.034, 1028.13 391.729, 1035.611 383.188 M1019.665 396.854 C1026.472 390.626, 1032.911 385.691, 1035.611 383.188 M1019.34 401.084 C1025.66 397.237, 1028.871 390.578, 1040.6 382.863 M1019.34 401.084 C1023.771 397.055, 1029.433 393.12, 1040.6 382.863 M1019.773 404.663 C1023.214 401.85, 1028.616 395.012, 1044.831 383.189 M1019.773 404.663 C1028.047 397.585, 1037.139 390.197, 1044.831 383.189 M1019.447 408.893 C1027.122 398.949, 1037.971 390.904, 1049.82 382.864 M1019.447 408.893 C1026.823 402.467, 1035.644 394.884, 1049.82 382.864 M1019.122 413.123 C1027.186 406.794, 1033.937 401.268, 1054.05 383.19 M1019.122 413.123 C1028.82 403.869, 1040.653 396.091, 1054.05 383.19 M1019.555 416.703 C1030.067 406.319, 1038.032 400.465, 1059.039 382.865 M1019.555 416.703 C1031.009 406.698, 1043.534 397, 1059.039 382.865 M1019.23 420.933 C1033.739 407.897, 1052.297 395.495, 1063.27 383.191 M1019.23 420.933 C1030.86 412.073, 1042.925 401.871, 1063.27 383.191 M1019.663 424.512 C1037.572 408.659, 1054.086 397.025, 1068.259 382.866 M1019.663 424.512 C1032.125 413.462, 1045.635 401.754, 1068.259 382.866 M1019.337 428.742 C1036.355 415.491, 1053.629 398.874, 1072.489 383.191 M1019.337 428.742 C1040.325 412.325, 1060.122 393.667, 1072.489 383.191 M1019.771 432.322 C1034.597 418.048, 1053.607 404.734, 1077.479 382.866 M1019.771 432.322 C1036.117 420.017, 1051.162 404.967, 1077.479 382.866 M1019.445 436.552 C1037.947 423.069, 1050.989 408.399, 1081.709 383.192 M1019.445 436.552 C1039.208 419.383, 1058.865 403.423, 1081.709 383.192 M1019.119 440.782 C1046.28 418.241, 1068.413 399.137, 1086.698 382.867 M1019.119 440.782 C1038.57 423.975, 1060.727 406.389, 1086.698 382.867 M1019.553 444.361 C1042.248 422.972, 1065.652 404.461, 1090.928 383.193 M1019.553 444.361 C1034.221 432.855, 1048.51 419.285, 1090.928 383.193 M1020.746 447.29 C1040.928 430.868, 1065.059 410.021, 1095.918 382.868 M1020.746 447.29 C1045.502 427.768, 1070.791 406.213, 1095.918 382.868 M1024.217 448.266 C1047.059 429.617, 1068.459 410.004, 1100.148 383.194 M1024.217 448.266 C1042.698 433.098, 1059.828 419.209, 1100.148 383.194 M1029.206 447.941 C1057.366 421.058, 1090.472 397.96, 1105.137 382.869 M1029.206 447.941 C1057.966 423.528, 1086.474 397.318, 1105.137 382.869 M1033.436 448.267 C1059.902 424.899, 1085.261 401.784, 1109.367 383.194 M1033.436 448.267 C1053.509 429.252, 1075.3 411.344, 1109.367 383.194 M1038.426 447.942 C1054.49 431.679, 1073.417 419.881, 1114.357 382.87 M1038.426 447.942 C1054.793 433.798, 1070.297 419.847, 1114.357 382.87 M1042.656 448.268 C1068.801 426.11, 1092.117 405.161, 1118.587 383.195 M1042.656 448.268 C1063.901 430.032, 1083.894 412.493, 1118.587 383.195 M1047.645 447.943 C1061.369 434.712, 1077.824 421.055, 1123.576 382.87 M1047.645 447.943 C1065.161 433.004, 1081.993 417.042, 1123.576 382.87 M1051.875 448.269 C1067.988 434.864, 1085.816 418.079, 1127.806 383.196 M1051.875 448.269 C1075.884 426.184, 1100.304 405.083, 1127.806 383.196 M1056.865 447.944 C1078.972 425.584, 1102.312 406.566, 1132.037 383.522 M1056.865 447.944 C1077.451 430.58, 1095.871 414.089, 1132.037 383.522 M1061.095 448.27 C1082.504 427.483, 1107.051 407.74, 1137.026 383.197 M1061.095 448.27 C1084.844 426.696, 1110.664 406.271, 1137.026 383.197 M1065.325 448.595 C1085.03 429.236, 1107.589 414.763, 1141.256 383.523 M1065.325 448.595 C1082.131 435.53, 1098.801 419.972, 1141.256 383.523 M1070.314 448.27 C1101.368 420.657, 1129.982 395.134, 1146.246 383.198 M1070.314 448.27 C1096.387 424.262, 1123.579 402.266, 1146.246 383.198 M1074.544 448.596 C1089.076 433.312, 1107.414 422.388, 1150.476 383.523 M1074.544 448.596 C1102.373 424.398, 1130.856 400.028, 1150.476 383.523 M1079.534 448.271 C1105.36 427.411, 1126.57 405.364, 1155.465 383.198 M1079.534 448.271 C1095.186 434.933, 1110.714 422.566, 1155.465 383.198 M1083.764 448.597 C1099.971 433.37, 1116.456 419.899, 1159.695 383.524 M1083.764 448.597 C1110.888 424.761, 1139.552 401.169, 1159.695 383.524 M1088.753 448.272 C1109.259 430.913, 1132.395 409.992, 1164.685 383.199 M1088.753 448.272 C1110.901 429.997, 1134.286 409.456, 1164.685 383.199 M1092.984 448.598 C1113.424 431.609, 1133.345 410.882, 1168.155 384.176 M1092.984 448.598 C1112.325 431.83, 1133.055 416.177, 1168.155 384.176 M1097.973 448.273 C1116.535 435.684, 1131.226 419.72, 1169.348 387.104 M1097.973 448.273 C1125.815 424.994, 1154.032 400.74, 1169.348 387.104 M1102.203 448.598 C1126.555 424.844, 1152.414 404.676, 1169.023 391.334 M1102.203 448.598 C1120.169 433.291, 1135.499 419.474, 1169.023 391.334 M1107.193 448.273 C1121.144 437.245, 1132.491 428.241, 1168.697 395.565 M1107.193 448.273 C1124.526 431.928, 1141.478 418.466, 1168.697 395.565 M1111.423 448.599 C1126.673 435.283, 1140.74 424.302, 1169.13 399.144 M1111.423 448.599 C1125.235 436.161, 1138.651 424.749, 1169.13 399.144 M1116.412 448.274 C1134.484 433.152, 1155.137 414.428, 1168.805 403.374 M1116.412 448.274 C1132.842 433.364, 1150.602 419.812, 1168.805 403.374 M1120.642 448.6 C1129.865 438.672, 1141.66 431.356, 1169.238 406.953 M1120.642 448.6 C1130.369 440.276, 1139.625 431.818, 1169.238 406.953 M1125.632 448.275 C1142.638 432.727, 1161.276 417.999, 1168.912 411.184 M1125.632 448.275 C1139.902 437.222, 1152.919 424.4, 1168.912 411.184 M1129.862 448.601 C1144.102 437.255, 1155.796 426.714, 1168.587 415.414 M1129.862 448.601 C1138.394 440.918, 1146.456 433.201, 1168.587 415.414 M1134.851 448.276 C1145.009 439.435, 1151.259 433.11, 1169.02 418.993 M1134.851 448.276 C1142.687 440.562, 1150.129 435.228, 1169.02 418.993 M1139.081 448.602 C1151.617 440.139, 1161.656 428.637, 1168.694 423.223 M1139.081 448.602 C1149.762 438.026, 1161.05 430.239, 1168.694 423.223 M1144.071 448.277 C1151.385 440.598, 1161.861 435.743, 1169.128 426.803 M1144.071 448.277 C1153.451 441.977, 1161.059 434.536, 1169.128 426.803 M1148.301 448.602 C1154.162 441.74, 1161.634 438.166, 1168.802 431.033 M1148.301 448.602 C1154.9 443.266, 1161.75 437.938, 1168.802 431.033 M1153.29 448.277 C1156.361 443.265, 1163.057 440.38, 1168.476 435.263 M1153.29 448.277 C1158.01 444.538, 1161.473 440.895, 1168.476 435.263 M1157.52 448.603 C1161.475 445.471, 1163.258 441.99, 1168.91 438.842 M1157.52 448.603 C1160.223 446.276, 1164.202 442.832, 1168.91 438.842 M1162.51 448.278 C1163.979 447.067, 1166.294 446.019, 1168.584 443.072 M1162.51 448.278 C1163.798 447.24, 1165.668 445.547, 1168.584 443.072" stroke="rgb(236, 236, 255)" stroke-width="2.262" fill="none"></path><path d="M1022 383 C1059.213 383.42, 1092.626 382.403, 1166 383 M1022 383 C1054.521 382.264, 1085.964 382.864, 1166 383 M1166 383 C1169.369 381.431, 1167.715 386.057, 1169 386 M1166 383 C1166.716 384.325, 1167.863 386.016, 1169 386 M1169 386 C1168.863 404.231, 1167.324 418.848, 1169 445 M1169 386 C1169.223 404.127, 1169.378 424.94, 1169 445 M1169 445 C1170.725 445.494, 1165.751 447.942, 1166 448 M1169 445 C1168.609 448.636, 1169.133 448.232, 1166 448 M1166 448 C1113.96 448.775, 1063.63 449.296, 1022 448 M1166 448 C1133.641 447.004, 1100.329 448.197, 1022 448 M1022 448 C1019.453 448.391, 1017.779 444.844, 1019 445 M1022 448 C1021.253 447.17, 1018.555 447.314, 1019 445 M1019 445 C1019.221 423.28, 1017.405 406.722, 1019 386 M1019 445 C1018.471 431.828, 1019.282 418.295, 1019 386 M1019 386 C1018.15 385.328, 1021.469 384.278, 1022 383 M1019 386 C1021.003 382.593, 1020.391 383.435, 1022 383 M1022 383 C1022 383, 1022 383, 1022 383 M1022 383 C1022 383, 1022 383, 1022 383" stroke="rgb(218, 206, 243)" stroke-width="1" fill="none"></path></g><g class="text-container" transform="matrix(1 0 0 1 50 10)"><text style="text-anchor: middle; font-size: 16px; font-weight: 400;font-style: normal;font-weight: 400;font-size: 16px;font-family: Comic Sans MS, cursive;" class="actor actor-box" alignment-baseline="central" dominant-baseline="central" y="405.5" x="1044" stroke="rgb(218, 206, 243)" stroke-width="1px" fill="rgb(236, 236, 255)" text-anchor="middle"><tspan dy="0" x="1044" stroke="none" stroke-width="1px" fill="rgb(0, 0, 0)" text-anchor="middle" dominant-baseline="central">FeatureFlags</tspan></text></g><g><path d="M583.724 382.807 C583.724 382.807, 583.724 382.807, 583.724 382.807 M583.724 382.807 C583.724 382.807, 583.724 382.807, 583.724 382.807 M581.149 389.001 C583.19 387.232, 586.027 384.188, 587.955 383.113 M581.149 389.001 C582.865 387.977, 583.801 386.316, 587.955 383.113 M580.843 393.233 C586.038 388.414, 590.732 384.411, 592.943 382.764 M580.843 393.233 C584.489 391.323, 586.745 388.658, 592.943 382.764 M581.293 396.81 C584.088 394.766, 589.292 389.369, 597.175 383.07 M581.293 396.81 C585.284 393.199, 589.143 390.289, 597.175 383.07 M580.987 401.041 C586.55 396.297, 590.838 392.09, 602.162 382.722 M580.987 401.041 C588.353 393.688, 596.2 387.72, 602.162 382.722 M580.681 405.273 C590.738 395.997, 600.828 388.802, 606.394 383.028 M580.681 405.273 C587.061 400.709, 594.267 393.52, 606.394 383.028 M581.131 408.85 C591.678 398.863, 599.943 393.248, 610.626 383.334 M581.131 408.85 C588.633 402.611, 594.986 396.865, 610.626 383.334 M580.825 413.082 C594.26 399.893, 605.109 389.399, 615.614 382.986 M580.825 413.082 C592.965 402.013, 606.737 390.922, 615.614 382.986 M581.275 416.659 C595.437 405.817, 610.355 392.515, 619.845 383.292 M581.275 416.659 C589.795 408.614, 599.876 400.094, 619.845 383.292 M580.969 420.891 C593.743 408.396, 608.053 397.55, 624.833 382.944 M580.969 420.891 C595.316 408.467, 608.683 397.863, 624.833 382.944 M580.663 425.122 C595.55 408.402, 614.319 395.441, 629.065 383.25 M580.663 425.122 C597.634 408.489, 616.115 392.718, 629.065 383.25 M581.113 428.7 C595.703 416.344, 609.505 404.357, 634.052 382.902 M581.113 428.7 C599.77 411.663, 618.05 396.254, 634.052 382.902 M580.807 432.931 C593.165 420.361, 609.559 407.204, 638.284 383.208 M580.807 432.931 C598.527 417.358, 614.962 403.542, 638.284 383.208 M581.258 436.509 C596.325 421.528, 612.423 408.314, 643.272 382.86 M581.258 436.509 C599.049 420.161, 618.212 404.16, 643.272 382.86 M580.951 440.74 C596.115 423.495, 615.599 410.874, 647.503 383.166 M580.951 440.74 C595.912 427.286, 611.449 414.244, 647.503 383.166 M580.645 444.972 C607.107 425.116, 631.826 399.75, 652.491 382.817 M580.645 444.972 C595.925 431.714, 611.688 417.992, 652.491 382.817 M582.608 447.241 C598.477 433.835, 614.306 418.308, 656.723 383.124 M582.608 447.241 C604.493 428.467, 627.974 408.188, 656.723 383.124 M586.084 448.201 C610.694 424.941, 635.781 405.778, 660.954 383.43 M586.084 448.201 C609.474 428.744, 631.981 408.795, 660.954 383.43 M590.315 448.507 C610.407 430.07, 633.359 413.129, 665.942 383.081 M590.315 448.507 C608.535 434.218, 626.41 417.158, 665.942 383.081 M595.303 448.159 C621.487 424.015, 650.216 397.084, 670.174 383.387 M595.303 448.159 C620.282 425.52, 645.561 404.275, 670.174 383.387 M599.535 448.465 C619.953 430.117, 636.283 413.652, 675.162 383.039 M599.535 448.465 C624.727 427.311, 648.302 405.931, 675.162 383.039 M604.522 448.117 C634.291 422.462, 663.695 399.153, 679.393 383.345 M604.522 448.117 C628.792 426.84, 650.406 407.342, 679.393 383.345 M608.754 448.423 C628.365 431.581, 645.678 415.393, 684.381 382.997 M608.754 448.423 C625.442 434.281, 642.824 418.48, 684.381 382.997 M613.742 448.075 C638.921 428.234, 661.141 409.099, 688.613 383.303 M613.742 448.075 C628.625 434.074, 645.332 418.93, 688.613 383.303 M617.973 448.381 C637.869 431.429, 656.957 414.377, 693.601 382.955 M617.973 448.381 C635.014 433.271, 652.166 417.41, 693.601 382.955 M622.205 448.687 C647.276 426.263, 676.55 401.402, 697.832 383.261 M622.205 448.687 C649.594 425.104, 676.784 401.322, 697.832 383.261 M627.193 448.338 C651.989 429.946, 673.957 405.446, 702.82 382.913 M627.193 448.338 C645.114 431.677, 663.072 415.666, 702.82 382.913 M631.424 448.644 C648.769 434.402, 667.6 416.178, 707.052 383.219 M631.424 448.644 C653.657 428.225, 678.389 408.664, 707.052 383.219 M636.412 448.296 C655.043 431.609, 672.957 415.503, 711.283 383.525 M636.412 448.296 C662.665 423.684, 690.534 401.74, 711.283 383.525 M640.644 448.602 C665.211 428.231, 691.397 406.696, 716.271 383.177 M640.644 448.602 C667.761 424.221, 697.283 399.916, 716.271 383.177 M645.632 448.254 C673.369 424.129, 703.12 395.983, 720.503 383.483 M645.632 448.254 C667.127 429.745, 687.682 411.644, 720.503 383.483 M649.863 448.56 C668.999 431.075, 683.964 417.169, 725.491 383.134 M649.863 448.56 C668.151 432.901, 687.973 416.004, 725.491 383.134 M654.851 448.212 C674.359 429.763, 695.013 411.477, 729.722 383.44 M654.851 448.212 C678.493 428.121, 700.641 408.813, 729.722 383.44 M659.083 448.518 C682.413 426.527, 706.978 406.473, 734.71 383.092 M659.083 448.518 C685.098 427.423, 708.822 404.74, 734.71 383.092 M664.071 448.17 C689.052 426.582, 709.02 409.441, 738.942 383.398 M664.071 448.17 C692.872 423.72, 719.483 398.958, 738.942 383.398 M668.302 448.476 C690.57 429.34, 710.419 410.864, 743.93 383.05 M668.302 448.476 C687.123 431.279, 706.901 414.167, 743.93 383.05 M672.534 448.782 C688.399 434.012, 707.501 421.587, 748.161 383.356 M672.534 448.782 C686.633 434.856, 703.477 421.487, 748.161 383.356 M677.522 448.434 C703.637 424.428, 734.077 401.141, 752.393 383.662 M677.522 448.434 C695.135 435.361, 710.029 419.739, 752.393 383.662 M681.753 448.74 C710.534 423.858, 739.64 399.882, 753.599 386.585 M681.753 448.74 C703.4 432.094, 723.472 413.497, 753.599 386.585 M686.741 448.391 C702.577 436.213, 716.33 422.421, 754.049 390.163 M686.741 448.391 C712.719 426.86, 736.979 404.125, 754.049 390.163 M690.973 448.697 C705.729 436.383, 718.539 425.223, 753.743 394.394 M690.973 448.697 C708.441 431.315, 728.515 416.517, 753.743 394.394 M695.961 448.349 C712.583 433.226, 731.296 417.435, 753.437 398.626 M695.961 448.349 C715.318 431.542, 735.224 413.619, 753.437 398.626 M700.192 448.655 C717.971 433.179, 735.581 418.154, 753.888 402.203 M700.192 448.655 C714.874 436.456, 730.663 423.249, 753.888 402.203 M705.18 448.307 C717.683 437.768, 730.336 423.88, 753.581 406.435 M705.18 448.307 C719.316 434.586, 733.822 422.399, 753.581 406.435 M709.412 448.613 C726.65 433.837, 742.736 420.311, 754.032 410.012 M709.412 448.613 C723.64 437.341, 737.333 424.162, 754.032 410.012 M714.4 448.265 C724.905 440.269, 733.862 432.201, 753.726 414.244 M714.4 448.265 C723.269 439.855, 733.494 433.358, 753.726 414.244 M718.631 448.571 C728.105 437.178, 742.039 428.805, 753.42 418.475 M718.631 448.571 C728.861 441.114, 738.129 432.663, 753.42 418.475 M722.863 448.877 C732.29 443.906, 738.697 434.55, 753.87 422.052 M722.863 448.877 C729.646 441.894, 737.622 436.065, 753.87 422.052 M727.851 448.529 C736.615 442.003, 744.635 434.407, 753.564 426.284 M727.851 448.529 C734.752 443.515, 739.894 439.276, 753.564 426.284 M732.082 448.835 C737.574 440.734, 745.165 436.068, 753.258 430.516 M732.082 448.835 C738.451 443.924, 745.406 437.457, 753.258 430.516 M737.07 448.487 C740.174 446.353, 743.582 441.897, 753.708 434.093 M737.07 448.487 C744.208 443.291, 750.125 437.271, 753.708 434.093 M741.302 448.793 C745.439 445.468, 748.654 441.191, 753.402 438.325 M741.302 448.793 C742.948 446.749, 746.04 444.778, 753.402 438.325 M746.289 448.444 C748.671 446.538, 749.301 444.963, 753.852 441.902 M746.289 448.444 C748.144 446.701, 750.168 444.75, 753.852 441.902" stroke="rgb(236, 236, 255)" stroke-width="2.368" fill="none"></path><path d="M583.5 383 C648.599 380.902, 712.75 382.024, 750.5 383 M750.5 383 C752.191 384.298, 753.561 386.612, 753.5 386 M753.5 386 C754.159 402.284, 753.962 419.353, 753.5 445 M753.5 445 C752.77 447.778, 752.975 447.643, 750.5 448 M750.5 448 C712.419 449.28, 669.52 451.164, 583.5 448 M583.5 448 C580.93 447.401, 581.913 445.825, 580.5 445 M580.5 445 C582.27 430.959, 579.143 418.061, 580.5 386 M580.5 386 C581.001 386.054, 583.998 382.158, 583.5 383 M583.5 383 C583.5 383, 583.5 383, 583.5 383" stroke="rgb(218, 206, 243)" stroke-width="1" fill="none"></path></g><g class="text-container" transform="matrix(1 0 0 1 50 10)"><text style="text-anchor: middle; font-size: 16px; font-weight: 400;font-style: normal;font-weight: 400;font-size: 16px;font-family: Comic Sans MS, cursive;" class="actor actor-box" alignment-baseline="central" dominant-baseline="central" y="405.5" x="617" stroke="rgb(218, 206, 243)" stroke-width="1px" fill="rgb(236, 236, 255)" text-anchor="middle"><tspan dy="0" x="617" stroke="none" stroke-width="1px" fill="rgb(0, 0, 0)" text-anchor="middle" dominant-baseline="central">MeasurementService</tspan></text></g><g><path d="M337.818 386.25 C337.818 386.25, 337.818 386.25, 337.818 386.25 M337.818 386.25 C337.818 386.25, 337.818 386.25, 337.818 386.25 M338.261 389.043 C339.426 387.578, 340.444 386.373, 342.375 383.38 M338.261 389.043 C339.788 387.014, 341.007 385.31, 342.375 383.38 M338.117 392.646 C340.272 389.134, 341.045 387.196, 345.169 382.937 M338.117 392.646 C339.214 390.285, 340.614 388.666, 345.169 382.937 M337.972 396.249 C340.338 391.075, 343.616 385.69, 347.374 383.303 M337.972 396.249 C340.784 392.307, 343.949 387.631, 347.374 383.303 M337.827 399.851 C341.062 395.236, 342.805 392.304, 350.168 382.86 M337.827 399.851 C342.395 394.474, 346.136 389.006, 350.168 382.86 M338.27 402.645 C341.564 394.572, 345.956 390.463, 352.374 383.226 M338.27 402.645 C343.241 395.763, 347.28 388.648, 352.374 383.226 M338.125 406.248 C342.986 398.315, 348.083 391.956, 354.58 383.592 M338.125 406.248 C344.022 397.355, 349.819 390.252, 354.58 383.592 M337.981 409.85 C347.06 399.087, 353.836 390.748, 357.373 383.149 M337.981 409.85 C343.703 401.645, 348.556 394.053, 357.373 383.149 M337.836 413.453 C346.138 403.026, 353.465 392.333, 359.579 383.516 M337.836 413.453 C343.895 405.537, 350.813 396.155, 359.579 383.516 M338.279 416.246 C345.432 406.886, 356.723 395.276, 362.373 383.073 M338.279 416.246 C347.063 402.624, 356.269 390.819, 362.373 383.073 M338.134 419.849 C345.003 410.414, 352.74 399.85, 364.579 383.439 M338.134 419.849 C344.855 411.01, 350.123 403.941, 364.579 383.439 M337.989 423.452 C349.319 410.741, 356.793 394.9, 367.372 382.996 M337.989 423.452 C345.197 414.413, 352.069 404.25, 367.372 382.996 M337.845 427.054 C348.605 411.044, 362.031 393.197, 369.578 383.362 M337.845 427.054 C347.19 412.622, 356.637 399.933, 369.578 383.362 M338.288 429.848 C346.895 416.8, 359.79 400.595, 372.371 382.919 M338.288 429.848 C346.051 418.757, 353.222 409.711, 372.371 382.919 M338.143 433.45 C347.638 421.142, 353.453 409.523, 374.577 383.285 M338.143 433.45 C347.46 422.565, 355.942 409.297, 374.577 383.285 M337.998 437.053 C347.208 422.325, 358.823 407.73, 376.783 383.652 M337.998 437.053 C350.045 421.717, 360.835 406.495, 376.783 383.652 M337.853 440.656 C348.138 427.836, 356.426 415.234, 379.577 383.209 M337.853 440.656 C352.668 420.749, 366.339 402.624, 379.577 383.209 M337.709 444.258 C347.125 431.265, 355.281 420.297, 381.783 383.575 M337.709 444.258 C351.331 426.688, 363.922 408.871, 381.783 383.575 M338.739 446.243 C348.964 430.185, 358.911 418.333, 384.576 383.132 M338.739 446.243 C352.027 428.239, 367.527 408.386, 384.576 383.132 M339.77 448.227 C356.768 424.297, 378.25 396.261, 386.782 383.498 M339.77 448.227 C350.856 433.7, 360.903 418.515, 386.782 383.498 M342.563 447.784 C354.858 435.062, 364.552 420.684, 389.576 383.055 M342.563 447.784 C354.724 430.487, 368.832 410.539, 389.576 383.055 M344.769 448.151 C355.803 434, 365.496 417.912, 391.781 383.421 M344.769 448.151 C362.546 424.891, 378.091 401.652, 391.781 383.421 M347.563 447.708 C359.888 434.967, 370.781 420.316, 394.575 382.979 M347.563 447.708 C362.016 429.325, 375.569 409.851, 394.575 382.979 M349.769 448.074 C368.223 426.568, 385.262 401.337, 396.781 383.345 M349.769 448.074 C364.134 428.701, 376.51 410.749, 396.781 383.345 M352.562 447.631 C360.382 432.93, 369.651 420.66, 398.987 383.711 M352.562 447.631 C370.723 423.375, 387.622 398.932, 398.987 383.711 M354.768 447.997 C370.28 424.634, 388.578 403.696, 401.78 383.268 M354.768 447.997 C368.682 427.729, 384.629 406.939, 401.78 383.268 M357.562 447.554 C374.365 426.213, 386.509 406.148, 403.986 383.634 M357.562 447.554 C367.262 432.511, 378.768 416.829, 403.986 383.634 M359.767 447.92 C372.151 430.439, 380.841 417.81, 406.78 383.191 M359.767 447.92 C378.278 423.977, 393.835 400.67, 406.78 383.191 M361.973 448.287 C371.093 433.956, 382.474 418.523, 408.986 383.557 M361.973 448.287 C377.717 426.581, 393.547 405.106, 408.986 383.557 M364.767 447.844 C377.085 431.617, 387.08 415.519, 411.779 383.115 M364.767 447.844 C374.33 434.008, 385.147 419.894, 411.779 383.115 M366.973 448.21 C381.511 431.246, 394.533 411.19, 413.985 383.481 M366.973 448.21 C381.679 429.363, 396.077 408.875, 413.985 383.481 M369.766 447.767 C386.342 424.032, 400.657 403.802, 416.778 383.038 M369.766 447.767 C378.57 434.731, 389.479 420.478, 416.778 383.038 M371.972 448.133 C386.251 424.646, 404.93 402.103, 418.984 383.404 M371.972 448.133 C383.939 430.714, 396.78 414.799, 418.984 383.404 M374.766 447.69 C387.465 430.296, 400.339 411.043, 421.778 382.961 M374.766 447.69 C391.31 423.993, 407.997 401.881, 421.778 382.961 M376.972 448.056 C393.182 425.989, 407.714 407.988, 423.984 383.327 M376.972 448.056 C393.307 426.384, 408.344 403.345, 423.984 383.327 M379.765 447.613 C395.972 427.044, 411.419 405.183, 426.19 383.693 M379.765 447.613 C391.741 429.89, 405.625 411.521, 426.19 383.693 M381.971 447.98 C396.401 427.576, 407.785 410.229, 428.983 383.251 M381.971 447.98 C396.029 426.915, 410.332 406.514, 428.983 383.251 M384.177 448.346 C395.9 428.566, 410.555 412.131, 431.189 383.617 M384.177 448.346 C400.679 427.462, 415.289 406.806, 431.189 383.617 M386.97 447.903 C400.74 431.74, 409.077 415.962, 433.983 383.174 M386.97 447.903 C403.787 425.588, 419.203 404.549, 433.983 383.174 M389.176 448.269 C401.222 435.167, 409.951 418.628, 436.188 383.54 M389.176 448.269 C405.378 424.878, 423.471 403.018, 436.188 383.54 M391.97 447.826 C401.487 431.454, 415.079 415.758, 438.982 383.097 M391.97 447.826 C407.79 426.212, 423.079 403.945, 438.982 383.097 M394.176 448.192 C405.582 431.371, 416.936 411.836, 441.188 383.463 M394.176 448.192 C410.556 425.391, 428.364 402.168, 441.188 383.463 M396.969 447.749 C412.891 424.34, 430.578 400.258, 443.981 383.02 M396.969 447.749 C408.981 432.63, 419.724 415.093, 443.981 383.02 M399.175 448.116 C411.443 430.887, 424.791 413.973, 446.187 383.387 M399.175 448.116 C415.289 424.503, 432.685 401.606, 446.187 383.387 M401.969 447.673 C412.835 430.923, 421.736 419.897, 448.393 383.753 M401.969 447.673 C414.528 430.186, 428.493 411.416, 448.393 383.753 M404.175 448.039 C422.039 424.807, 438.379 398.066, 451.187 383.31 M404.175 448.039 C417.757 429.225, 431.042 411.538, 451.187 383.31 M406.968 447.596 C421.228 431.195, 432.51 414.948, 453.393 383.676 M406.968 447.596 C418.747 431.397, 428.982 416.136, 453.393 383.676 M409.174 447.962 C419.656 432.622, 427.942 419.868, 456.186 383.233 M409.174 447.962 C418.139 434.412, 427.161 421.258, 456.186 383.233 M411.38 448.328 C427.877 425.015, 443.261 403.913, 458.392 383.599 M411.38 448.328 C427.415 428.219, 441.977 407.829, 458.392 383.599 M414.173 447.885 C427.347 426.023, 443.955 407.965, 461.186 383.156 M414.173 447.885 C422.923 435.729, 432.488 422.473, 461.186 383.156 M416.379 448.252 C434.153 422.504, 452.12 398.795, 463.391 383.523 M416.379 448.252 C430.719 427.137, 446.1 404.809, 463.391 383.523 M419.173 447.809 C431.478 429.782, 443.226 414.505, 466.185 383.08 M419.173 447.809 C430.027 432.544, 440.728 414.996, 466.185 383.08 M421.379 448.175 C433.682 431.029, 446.606 411.252, 468.391 383.446 M421.379 448.175 C431.335 433.585, 440.348 421.393, 468.391 383.446 M424.172 447.732 C438.942 427.386, 457.032 405.731, 470.597 383.812 M424.172 447.732 C434.965 431.482, 447.546 414.614, 470.597 383.812 M426.378 448.098 C441.068 429.791, 454.641 411.141, 473.39 383.369 M426.378 448.098 C443.939 424.067, 463.493 398.074, 473.39 383.369 M429.172 447.655 C446.135 425.813, 461.138 400.85, 475.596 383.735 M429.172 447.655 C443.447 427.937, 459.238 407.113, 475.596 383.735 M431.377 448.021 C445.494 429.681, 458.283 413.502, 478.39 383.292 M431.377 448.021 C441.913 433.117, 454.57 416.645, 478.39 383.292 M433.583 448.388 C443.144 431.438, 453.812 418.762, 480.596 383.659 M433.583 448.388 C445.138 430.454, 458.371 413.865, 480.596 383.659 M436.377 447.945 C449.947 428.743, 461.717 412.271, 483.389 383.216 M436.377 447.945 C455.38 423.475, 473.118 397.779, 483.389 383.216 M438.583 448.311 C450.155 436.023, 457.568 423.267, 485.595 383.582 M438.583 448.311 C452.566 430.851, 465.908 411.933, 485.595 383.582 M441.376 447.868 C457.344 425.569, 472.08 405.276, 487.213 384.757 M441.376 447.868 C454.957 429.467, 470.014 410.073, 487.213 384.757 M443.582 448.234 C453.355 436.382, 460.623 421.479, 488.244 386.742 M443.582 448.234 C456.703 431.629, 467.958 413.849, 488.244 386.742 M446.376 447.791 C461.86 427.444, 473.35 407.125, 488.687 389.535 M446.376 447.791 C460.655 428.839, 474.841 410.107, 488.687 389.535 M448.582 448.157 C455.004 436.882, 464.278 425.632, 488.542 393.138 M448.582 448.157 C461.746 431.486, 473.858 413.111, 488.542 393.138 M451.375 447.715 C464.059 429.726, 474.391 413.664, 488.397 396.74 M451.375 447.715 C463.351 433.576, 472.211 417.639, 488.397 396.74 M453.581 448.081 C465.581 430.672, 479.071 412.941, 488.252 400.343 M453.581 448.081 C464.667 430.935, 477.234 416.279, 488.252 400.343 M455.787 448.447 C468.866 429.729, 481.321 412.099, 488.695 403.137 M455.787 448.447 C463.343 438.158, 468.852 428.908, 488.695 403.137 M458.58 448.004 C465.848 437.955, 475.827 427.837, 488.551 406.739 M458.58 448.004 C471.092 432.648, 482.796 415.654, 488.551 406.739 M460.786 448.37 C467.915 440.009, 471.557 434.052, 488.406 410.342 M460.786 448.37 C466.82 439.992, 474.907 430.17, 488.406 410.342 M463.58 447.927 C468.862 437.617, 477.936 426.831, 488.261 413.945 M463.58 447.927 C471.083 438.833, 479.574 428.481, 488.261 413.945 M465.786 448.293 C473.531 438.76, 479.296 430.917, 488.116 417.547 M465.786 448.293 C470.418 440.083, 478.047 431.952, 488.116 417.547 M468.579 447.851 C477.444 435.281, 482.088 428.423, 488.559 420.341 M468.579 447.851 C473.975 441.24, 478.125 435.357, 488.559 420.341 M470.785 448.217 C472.909 442.679, 478.05 436.724, 488.415 423.943 M470.785 448.217 C475.639 439.845, 483.07 432.261, 488.415 423.943 M473.579 447.774 C478.532 440.651, 482.714 433.399, 488.27 427.546 M473.579 447.774 C479.088 441.059, 482.363 436.14, 488.27 427.546 M475.784 448.14 C476.901 444.549, 482.874 439.146, 488.125 431.149 M475.784 448.14 C480.198 442.634, 483.654 437.612, 488.125 431.149 M477.99 448.506 C479.752 445.395, 483.408 439.295, 488.568 433.942 M477.99 448.506 C482.131 444.234, 484.516 438.828, 488.568 433.942 M480.784 448.063 C484.099 445.502, 486.031 441.097, 488.423 437.545 M480.784 448.063 C482.91 444.507, 486.271 441.263, 488.423 437.545 M482.99 448.429 C485.064 446.257, 487.811 443.071, 488.279 441.147 M482.99 448.429 C484.08 446.693, 485.596 444.598, 488.279 441.147 M485.783 447.987 C486.646 447.228, 487.035 446.332, 488.134 444.75 M485.783 447.987 C486.603 446.989, 487.167 445.959, 488.134 444.75" stroke="rgb(236, 236, 255)" stroke-width="2.685" fill="none"></path><path d="M341 383 C376.759 382.303, 416.923 384.458, 485 383 M485 383 C485.229 381.368, 486.677 385.008, 488 386 M488 386 C489.665 399.541, 487.591 414.554, 488 445 M488 445 C489.987 446.198, 486.604 446.083, 485 448 M485 448 C448.898 446.63, 411.45 447.467, 341 448 M341 448 C338.612 446.347, 338.111 445.502, 338 445 M338 445 C338.921 421.088, 339.374 400.946, 338 386 M338 386 C336.893 382.722, 338.776 382.406, 341 383 M341 383 C341 383, 341 383, 341 383" stroke="rgb(218, 206, 243)" stroke-width="1" fill="none"></path></g><g class="text-container" transform="matrix(1 0 0 1 50 10)"><text style="text-anchor: middle; font-size: 16px; font-weight: 400;font-style: normal;font-weight: 400;font-size: 16px;font-family: Comic Sans MS, cursive;" class="actor actor-box" alignment-baseline="central" dominant-baseline="central" y="405.5" x="363" stroke="rgb(218, 206, 243)" stroke-width="1px" fill="rgb(236, 236, 255)" text-anchor="middle"><tspan dy="0" x="363" stroke="none" stroke-width="1px" fill="rgb(0, 0, 0)" text-anchor="middle" dominant-baseline="central">APIGateway</tspan></text></g><g><path d="M52.999 383.001 C52.999 383.001, 52.999 383.001, 52.999 383.001 M52.999 383.001 C52.999 383.001, 52.999 383.001, 52.999 383.001 M51.899 387.878 C54.364 385.231, 56.735 383.446, 57.989 382.691 M51.899 387.878 C53.055 386.367, 54.64 385.198, 57.989 382.691 M51.561 392.108 C56.244 390.509, 58.3 385.085, 62.218 383.03 M51.561 392.108 C54.378 389.52, 55.549 388.538, 62.218 383.03 M51.983 395.688 C53.812 393.819, 58.519 388.396, 67.209 382.72 M51.983 395.688 C56.264 390.367, 62.482 387.539, 67.209 382.72 M51.645 399.917 C57.284 396.573, 59.466 390.66, 71.438 383.058 M51.645 399.917 C56.543 395.178, 60.844 393.035, 71.438 383.058 M52.067 403.498 C58.901 397.047, 64.378 391.868, 76.428 382.748 M52.067 403.498 C57.704 399.365, 62.651 396.111, 76.428 382.748 M51.729 407.727 C62.532 400.486, 71.292 392.213, 80.657 383.087 M51.729 407.727 C60.234 400.665, 69.95 393.561, 80.657 383.087 M51.39 411.956 C62.222 402.032, 70.417 392.507, 85.648 382.777 M51.39 411.956 C58.587 405.944, 65.389 398.956, 85.648 382.777 M51.813 415.537 C63.371 404.753, 78.174 391.349, 89.877 383.116 M51.813 415.537 C65.118 403.307, 79.165 393.582, 89.877 383.116 M51.474 419.766 C62.567 412.873, 69.687 402.627, 94.867 382.806 M51.474 419.766 C69.391 406.283, 84.979 391.712, 94.867 382.806 M51.897 423.347 C64.762 412.432, 77.165 403.713, 99.096 383.144 M51.897 423.347 C66.333 411.213, 80.471 398.576, 99.096 383.144 M51.559 427.576 C67.72 413.941, 86.575 398.127, 104.087 382.835 M51.559 427.576 C63.116 417.453, 76.289 406.609, 104.087 382.835 M51.981 431.157 C73.222 410.829, 94.344 392.462, 108.316 383.173 M51.981 431.157 C65.02 421.054, 77.963 408.336, 108.316 383.173 M51.643 435.386 C68.965 424.636, 81.03 408.699, 113.306 382.863 M51.643 435.386 C64.143 423.512, 77.554 413.671, 113.306 382.863 M52.065 438.966 C77.059 420.309, 101.256 398.499, 117.535 383.202 M52.065 438.966 C70.683 423.539, 89.692 406.456, 117.535 383.202 M51.727 443.195 C72.102 425.858, 93.298 407.561, 122.526 382.892 M51.727 443.195 C72.067 426.564, 92.173 410.146, 122.526 382.892 M52.15 446.776 C75.065 426.987, 101.515 405.229, 126.755 383.231 M52.15 446.776 C68.574 434.122, 84.065 420.036, 126.755 383.231 M53.334 449.708 C71.167 434.897, 90.964 419.136, 131.745 382.921 M53.334 449.708 C70.829 432.136, 90.481 417.985, 131.745 382.921 M58.324 449.399 C78.927 432.638, 103.701 410.374, 135.974 383.259 M58.324 449.399 C74.043 436.91, 88.756 422.616, 135.974 383.259 M62.553 449.737 C79.158 435.194, 100.148 420.841, 140.965 382.949 M62.553 449.737 C92.043 423.066, 122.587 398.86, 140.965 382.949 M67.543 449.427 C96.053 425.175, 126.457 399.213, 145.194 383.288 M67.543 449.427 C87.463 431.583, 107.34 414.842, 145.194 383.288 M71.773 449.766 C103.148 422.826, 135.725 394.411, 150.184 382.978 M71.773 449.766 C92.789 432.427, 113.74 413.682, 150.184 382.978 M76.763 449.456 C92.423 436.071, 109.808 419.588, 154.413 383.317 M76.763 449.456 C93.025 436.208, 110.313 421.656, 154.413 383.317 M80.992 449.794 C113.36 424.49, 140.851 398.148, 159.404 383.007 M80.992 449.794 C109.215 425.696, 137.909 401.173, 159.404 383.007 M85.982 449.485 C104.522 433.17, 125.062 417.137, 163.633 383.345 M85.982 449.485 C108.026 431.101, 128.832 412.673, 163.633 383.345 M90.212 449.823 C108.182 432.515, 130.946 416.547, 168.623 383.036 M90.212 449.823 C107.043 436.861, 124.158 421.132, 168.623 383.036 M95.202 449.513 C119.529 429.943, 142.562 410.259, 172.852 383.374 M95.202 449.513 C124.045 427.096, 152.251 403.291, 172.852 383.374 M99.431 449.852 C125.847 428.503, 151.176 405.592, 177.843 383.064 M99.431 449.852 C127.9 426.395, 154.024 401.692, 177.843 383.064 M104.421 449.542 C125.872 434.695, 144.711 416.106, 182.072 383.403 M104.421 449.542 C125.294 432.985, 145.156 414.577, 182.072 383.403 M108.651 449.881 C131.923 429.11, 157.104 406.845, 187.062 383.093 M108.651 449.881 C131.97 430.588, 153.199 412.547, 187.062 383.093 M113.641 449.571 C132.253 431.918, 151.871 417.68, 191.291 383.432 M113.641 449.571 C132.28 434.018, 149.543 420.281, 191.291 383.432 M117.87 449.909 C143.076 430.49, 166.008 409.754, 196.282 383.122 M117.87 449.909 C135.137 433.507, 152.523 419.275, 196.282 383.122 M122.86 449.599 C149.036 427.585, 176.475 404.116, 198.988 384.757 M122.86 449.599 C145.883 431.652, 166.647 413.204, 198.988 384.757 M127.09 449.938 C146.962 434.795, 165.9 417.593, 200.934 387.041 M127.09 449.938 C150.552 428.972, 174.965 409.876, 200.934 387.041 M132.08 449.628 C150.577 430.948, 172.551 416.613, 200.595 391.27 M132.08 449.628 C159.365 427.514, 184.891 405.261, 200.595 391.27 M136.309 449.967 C159.627 431.669, 180.236 409.659, 201.018 394.851 M136.309 449.967 C153.008 435.603, 170.649 419.501, 201.018 394.851 M141.299 449.657 C162.724 428.122, 189.396 409.57, 200.679 399.08 M141.299 449.657 C154.63 438.276, 168.097 425.142, 200.679 399.08 M145.529 449.995 C162.597 436.168, 179.075 422.457, 201.102 402.66 M145.529 449.995 C162.414 436.136, 179.025 422.55, 201.102 402.66 M150.519 449.686 C165.093 441.342, 174.784 429.535, 200.763 406.89 M150.519 449.686 C166.377 435.039, 184.855 421.423, 200.763 406.89 M154.748 450.024 C166.629 440.671, 179.252 430.001, 200.425 411.119 M154.748 450.024 C165.186 441.006, 177.154 431.682, 200.425 411.119 M159.738 449.714 C171.038 441.956, 179.058 434.528, 200.848 414.699 M159.738 449.714 C172.26 438.344, 186.105 427.647, 200.848 414.699 M163.968 450.053 C171.697 439.98, 182.689 433.253, 200.509 418.929 M163.968 450.053 C177.626 438.098, 192.43 425.974, 200.509 418.929 M168.958 449.743 C178.775 441.881, 186.053 432.2, 200.932 422.509 M168.958 449.743 C179.824 440.956, 190.34 431.88, 200.932 422.509 M173.187 450.082 C180.704 446.138, 186.457 439.882, 200.593 426.738 M173.187 450.082 C181.068 442.401, 190.294 436.491, 200.593 426.738 M178.177 449.772 C184.394 443.997, 188.403 440.346, 201.016 430.319 M178.177 449.772 C186.592 443.185, 195.171 435.346, 201.016 430.319 M182.407 450.11 C187.584 445.924, 191.284 443.839, 200.677 434.548 M182.407 450.11 C186.509 446.329, 193.319 441.389, 200.677 434.548 M187.397 449.8 C191.064 447.387, 193.917 442.387, 200.339 438.777 M187.397 449.8 C190.807 446.423, 196.15 442.478, 200.339 438.777 M191.626 450.139 C194.56 447.793, 196.167 446.013, 200.761 442.358 M191.626 450.139 C194.294 448.627, 195.489 445.999, 200.761 442.358" stroke="rgb(236, 236, 255)" stroke-width="2.634" fill="none"></path><path d="M53 383 C97.362 383.914, 140.303 385.626, 197 383 M53 383 C108.531 381.952, 165.638 382.315, 197 383 M197 383 C197.413 381.985, 201.178 385.473, 200 386 M197 383 C199.833 384.772, 200.67 383.284, 200 386 M200 386 C200.321 399.187, 201.196 413.365, 200 445 M200 386 C200.471 399.557, 200.037 415.399, 200 445 M200 445 C200.336 447.616, 199.788 448.326, 197 448 M200 445 C198.216 446.673, 199.957 450.275, 197 448 M197 448 C165.054 445.991, 135.058 447.342, 53 448 M197 448 C146.726 448.537, 96.117 448.935, 53 448 M53 448 C52.318 446.931, 51.094 446.255, 50 445 M53 448 C52.85 449.308, 48.447 446.773, 50 445 M50 445 C49.987 425.907, 51.412 409.728, 50 386 M50 445 C50.755 430.143, 49.307 414.697, 50 386 M50 386 C48.719 383.175, 52.856 381.124, 53 383 M50 386 C48.909 383.481, 52.222 383.696, 53 383 M53 383 C53 383, 53 383, 53 383 M53 383 C53 383, 53 383, 53 383" stroke="rgb(218, 206, 243)" stroke-width="1" fill="none"></path></g><g class="text-container" transform="matrix(1 0 0 1 50 10)"><text style="text-anchor: middle; font-size: 16px; font-weight: 400;font-style: normal;font-weight: 400;font-size: 16px;font-family: Comic Sans MS, cursive;" class="actor actor-box" alignment-baseline="central" dominant-baseline="central" y="405.5" x="75" stroke="rgb(218, 206, 243)" stroke-width="1px" fill="rgb(236, 236, 255)" text-anchor="middle"><tspan dy="0" x="75" stroke="none" stroke-width="1px" fill="rgb(0, 0, 0)" text-anchor="middle" dominant-baseline="central">Client</tspan></text></g><g><path d="M1094.657 74.565 C1094.313 163.686, 1095.664 252.173, 1094.494 381.867" stroke="rgb(218, 206, 243)" stroke-width="2" fill="none"></path></g><g><path d="M1021.997 10.003 C1021.997 10.003, 1021.997 10.003, 1021.997 10.003 M1021.997 10.003 C1021.997 10.003, 1021.997 10.003, 1021.997 10.003 M1020.901 14.881 C1021.614 13.916, 1023.423 13.377, 1026.987 9.689 M1020.901 14.881 C1023.574 12.493, 1025.888 10.503, 1026.987 9.689 M1020.566 19.111 C1023.207 17.05, 1027.437 13.151, 1031.216 10.024 M1020.566 19.111 C1023.286 17.562, 1024.578 15.174, 1031.216 10.024 M1020.991 22.691 C1026.517 16.423, 1031.646 12.135, 1036.206 9.71 M1020.991 22.691 C1025.701 20.128, 1029.329 15.975, 1036.206 9.71 M1020.656 26.92 C1027.094 22.23, 1029.999 15.563, 1040.436 10.045 M1020.656 26.92 C1024.013 22.867, 1029.374 19.914, 1040.436 10.045 M1021.082 30.501 C1028.251 24.714, 1038.005 16.31, 1045.426 9.732 M1021.082 30.501 C1027.466 25.046, 1034.092 19.126, 1045.426 9.732 M1020.746 34.73 C1031.273 27.28, 1044.126 16.805, 1049.655 10.067 M1020.746 34.73 C1031.415 26.02, 1040.532 16.879, 1049.655 10.067 M1020.411 38.96 C1031.597 29.774, 1044.334 16.346, 1054.645 9.753 M1020.411 38.96 C1031.845 29.786, 1044.097 19.871, 1054.645 9.753 M1020.837 42.54 C1032.72 34.979, 1043.48 25.044, 1058.875 10.088 M1020.837 42.54 C1029.499 35.415, 1037.496 27.258, 1058.875 10.088 M1020.502 46.769 C1027.446 39.391, 1039.617 29.7, 1063.865 9.774 M1020.502 46.769 C1033.479 35.445, 1043.968 25.533, 1063.865 9.774 M1020.927 50.35 C1033.51 39.245, 1041.401 33.06, 1068.094 10.109 M1020.927 50.35 C1039.411 33.87, 1057.976 19.223, 1068.094 10.109 M1020.592 54.579 C1035.59 43.285, 1048.855 31.056, 1073.084 9.796 M1020.592 54.579 C1037.004 41.237, 1054.195 25.536, 1073.084 9.796 M1021.018 58.159 C1036.75 42.771, 1055.364 31.003, 1077.314 10.131 M1021.018 58.159 C1042.575 41.199, 1063.897 22.031, 1077.314 10.131 M1020.682 62.389 C1032.075 51.886, 1047.453 37.56, 1082.304 9.817 M1020.682 62.389 C1040.23 46.045, 1057.666 30.802, 1082.304 9.817 M1021.108 65.969 C1039.858 50.498, 1057.379 34.099, 1086.533 10.152 M1021.108 65.969 C1038.69 51.03, 1058.166 36.064, 1086.533 10.152 M1020.773 70.198 C1034.59 57.892, 1053.09 43.286, 1091.523 9.838 M1020.773 70.198 C1047.313 47.653, 1075.074 23.396, 1091.523 9.838 M1020.438 74.428 C1049.21 52.388, 1075.153 29.519, 1095.753 10.173 M1020.438 74.428 C1049.949 49.227, 1080.112 24.872, 1095.753 10.173 M1022.385 76.71 C1053.811 52.881, 1080.828 26.194, 1100.743 9.859 M1022.385 76.71 C1053.218 51.339, 1081.314 27.059, 1100.743 9.859 M1027.375 76.396 C1051.788 57.607, 1073.944 38.404, 1104.972 10.195 M1027.375 76.396 C1044.697 61.202, 1061.674 46.001, 1104.972 10.195 M1031.604 76.731 C1055.848 59.045, 1076.718 36.656, 1109.962 9.881 M1031.604 76.731 C1060.274 52.684, 1088.277 28.979, 1109.962 9.881 M1036.594 76.418 C1057.241 60.671, 1077.462 42.375, 1114.192 10.216 M1036.594 76.418 C1061.839 56.222, 1086.283 35.606, 1114.192 10.216 M1040.824 76.753 C1058.336 59.884, 1079.275 44.227, 1119.182 9.902 M1040.824 76.753 C1059.111 60.292, 1078.615 44.095, 1119.182 9.902 M1045.814 76.439 C1072.668 52.669, 1099.024 29.793, 1123.411 10.237 M1045.814 76.439 C1069.851 58.032, 1091.263 37.741, 1123.411 10.237 M1050.043 76.774 C1078.083 53.393, 1109.643 27.391, 1128.401 9.923 M1050.043 76.774 C1066.435 63.647, 1082.241 50.236, 1128.401 9.923 M1055.034 76.46 C1085.67 49.722, 1117.754 26.098, 1132.631 10.258 M1055.034 76.46 C1078.309 56.576, 1101.511 35.769, 1132.631 10.258 M1059.263 76.795 C1077.801 61.879, 1096.538 44.337, 1137.621 9.945 M1059.263 76.795 C1078.087 59.825, 1098.178 43.143, 1137.621 9.945 M1064.253 76.481 C1088.638 53.734, 1113.667 33.038, 1141.85 10.28 M1064.253 76.481 C1081.552 62.501, 1098.402 46.914, 1141.85 10.28 M1068.482 76.817 C1093.178 54.891, 1117.534 33.407, 1146.841 9.966 M1068.482 76.817 C1084.862 62.675, 1101.874 48.203, 1146.841 9.966 M1073.473 76.503 C1091.743 60.628, 1111.242 46.648, 1151.07 10.301 M1073.473 76.503 C1100.947 53.144, 1129.269 29.386, 1151.07 10.301 M1077.702 76.838 C1106.184 54.065, 1131.771 30.9, 1156.06 9.987 M1077.702 76.838 C1100.946 55.97, 1125.448 36.822, 1156.06 9.987 M1082.692 76.524 C1111.405 52.652, 1139.47 28.611, 1160.289 10.322 M1082.692 76.524 C1112.223 51.007, 1141.706 25.14, 1160.289 10.322 M1086.921 76.859 C1114.869 52.237, 1141.349 29.803, 1165.28 10.009 M1086.921 76.859 C1108.197 61.015, 1127.676 42.27, 1165.28 10.009 M1091.912 76.545 C1122.136 50.501, 1148.233 28.413, 1167.987 11.642 M1091.912 76.545 C1115.911 56.434, 1139.247 36.75, 1167.987 11.642 M1096.141 76.88 C1112.778 62.641, 1124.035 51.419, 1169.935 13.924 M1096.141 76.88 C1113.236 62.578, 1129.872 47.644, 1169.935 13.924 M1101.131 76.567 C1119.375 61.819, 1136.59 43.356, 1169.599 18.153 M1101.131 76.567 C1116.009 61.966, 1132.985 48.506, 1169.599 18.153 M1105.36 76.902 C1123.244 60.754, 1142.76 42.179, 1170.025 21.734 M1105.36 76.902 C1125.006 61.284, 1143.735 43.147, 1170.025 21.734 M1110.351 76.588 C1126.553 61.607, 1142.987 47.909, 1169.69 25.963 M1110.351 76.588 C1133.731 57.273, 1155.26 38.509, 1169.69 25.963 M1114.58 76.923 C1125.256 66.487, 1137.879 58.601, 1170.115 29.543 M1114.58 76.923 C1130.604 63.303, 1145.983 50.266, 1170.115 29.543 M1119.57 76.609 C1131.767 67.613, 1144.096 53.387, 1169.78 33.773 M1119.57 76.609 C1135.021 63.828, 1151.871 48.634, 1169.78 33.773 M1123.8 76.944 C1136.689 68.033, 1146.419 56.636, 1169.445 38.002 M1123.8 76.944 C1139.568 63.08, 1155.003 50.649, 1169.445 38.002 M1128.79 76.631 C1140.961 65.489, 1155.083 53.468, 1169.871 41.583 M1128.79 76.631 C1137.527 68.771, 1148.444 61.115, 1169.871 41.583 M1133.019 76.966 C1145.939 68.597, 1154.126 55.41, 1169.535 45.812 M1133.019 76.966 C1146.551 64.665, 1161.008 52.149, 1169.535 45.812 M1138.009 76.652 C1149.313 68.507, 1154.751 60.259, 1169.961 49.392 M1138.009 76.652 C1146.631 70.328, 1154.772 63.736, 1169.961 49.392 M1142.239 76.987 C1149.242 68.322, 1158.518 62.834, 1169.626 53.622 M1142.239 76.987 C1149.418 71.107, 1156.147 64.182, 1169.626 53.622 M1147.229 76.673 C1153.825 71.782, 1164.021 61.307, 1169.291 57.851 M1147.229 76.673 C1152.741 70.584, 1159.022 66.11, 1169.291 57.851 M1151.458 77.008 C1158.576 71.636, 1163.351 66.533, 1169.716 61.431 M1151.458 77.008 C1156.557 72.787, 1162.841 66.669, 1169.716 61.431 M1156.448 76.694 C1162.201 73.245, 1165.068 68.352, 1169.381 65.661 M1156.448 76.694 C1160.386 74.294, 1163.283 71.021, 1169.381 65.661 M1160.678 77.03 C1163.831 73.108, 1167.254 71.071, 1169.807 69.241 M1160.678 77.03 C1163.176 74.628, 1165.624 72.994, 1169.807 69.241" stroke="rgb(236, 236, 255)" stroke-width="1.85" fill="none"></path><path d="M1022 10 C1067.817 8.366, 1116.978 11.767, 1166 10 M1166 10 C1166.25 10.967, 1170.951 10.326, 1169 13 M1169 13 C1166.878 28.238, 1167.1 44.305, 1169 72 M1169 72 C1167.603 72.611, 1168.035 75.849, 1166 75 M1166 75 C1123.806 74.754, 1079.248 77.168, 1022 75 M1022 75 C1021.625 74.99, 1018.449 74.545, 1019 72 M1019 72 C1017.654 58.842, 1020.39 42.049, 1019 13 M1019 13 C1018.174 12.318, 1020.191 9.758, 1022 10 M1022 10 C1022 10, 1022 10, 1022 10" stroke="rgb(218, 206, 243)" stroke-width="1" fill="none"></path></g><g class="text-container" transform="matrix(1 0 0 1 50 10)"><text style="text-anchor: middle; font-size: 16px; font-weight: 400;font-style: normal;font-weight: 400;font-size: 16px;font-family: Comic Sans MS, cursive;" class="actor actor-box" alignment-baseline="central" dominant-baseline="central" y="32.5" x="1044" stroke="rgb(218, 206, 243)" stroke-width="1px" fill="rgb(236, 236, 255)" text-anchor="middle"><tspan dy="0" x="1044" stroke="none" stroke-width="1px" fill="rgb(0, 0, 0)" text-anchor="middle" dominant-baseline="central">FeatureFlags</tspan></text></g><g><path d="M666.824 74.93 C664.187 173.244, 664.542 272.897, 666.407 383.326" stroke="rgb(218, 206, 243)" stroke-width="2" fill="none"></path></g><g><path d="M580.424 13.126 C580.424 13.126, 580.424 13.126, 580.424 13.126 M580.424 13.126 C580.424 13.126, 580.424 13.126, 580.424 13.126 M580.744 20.33 C582.956 17.606, 584.486 16.474, 586.434 10.916 M580.744 20.33 C582.299 18.778, 582.952 16.236, 586.434 10.916 M580.546 28.39 C584.841 23.564, 588.654 14.914, 591.409 10.417 M580.546 28.39 C585.466 22.231, 588.933 14.516, 591.409 10.417 M580.349 36.449 C585.127 27.886, 593.889 16.121, 595.867 10.775 M580.349 36.449 C585.271 28.307, 588.417 22.181, 595.867 10.775 M580.668 43.653 C587.073 32.756, 593.14 23.93, 600.842 10.276 M580.668 43.653 C586.479 31.885, 593.8 21.238, 600.842 10.276 M580.471 51.713 C584.077 43.262, 591.676 33.715, 605.299 10.634 M580.471 51.713 C587.141 42.041, 592.471 31.921, 605.299 10.634 M580.273 59.773 C586.955 45.118, 598.766 30.146, 610.275 10.135 M580.273 59.773 C590.156 44.191, 598.997 28.938, 610.275 10.135 M580.593 66.977 C588.045 50.955, 597.914 39.955, 614.732 10.493 M580.593 66.977 C592.671 46.785, 604.252 26.875, 614.732 10.493 M581.43 73.325 C592.104 52.471, 607.213 30.252, 619.19 10.85 M581.43 73.325 C594.551 52.659, 605.578 32.327, 619.19 10.85 M584.853 75.394 C597.113 57.084, 607.123 39.728, 624.165 10.352 M584.853 75.394 C597.593 53.775, 609.741 33.606, 624.165 10.352 M589.828 74.896 C605.276 47.64, 622.192 23.904, 628.623 10.709 M589.828 74.896 C598.991 58.579, 610.291 40.911, 628.623 10.709 M594.286 75.253 C605.598 54.67, 618.141 35.145, 633.598 10.211 M594.286 75.253 C609.4 48.829, 625.964 23.374, 633.598 10.211 M599.261 74.755 C611.502 51.701, 624.492 33.605, 638.056 10.568 M599.261 74.755 C612.673 51.78, 628.193 28.95, 638.056 10.568 M603.719 75.112 C617.498 56.136, 629.851 34.595, 642.514 10.926 M603.719 75.112 C616.397 56.312, 628.55 36.529, 642.514 10.926 M608.694 74.614 C623.081 50.596, 636.177 28.401, 647.489 10.427 M608.694 74.614 C620.531 55.82, 631.672 36.045, 647.489 10.427 M613.152 74.971 C621.182 58.391, 631.525 42.264, 651.947 10.785 M613.152 74.971 C627.814 50.065, 642.697 25.721, 651.947 10.785 M617.61 75.329 C628.654 58.083, 639.527 42.941, 656.922 10.286 M617.61 75.329 C625.619 59.775, 634.277 47.015, 656.922 10.286 M622.585 74.83 C633.433 58.278, 640.833 42.641, 661.38 10.644 M622.585 74.83 C630.565 61.994, 637.847 48.392, 661.38 10.644 M627.043 75.188 C639.768 56.036, 652.338 34.668, 665.838 11.001 M627.043 75.188 C637.248 56.683, 648.365 38.62, 665.838 11.001 M632.018 74.689 C645.184 52.965, 657.425 35.879, 670.813 10.503 M632.018 74.689 C641.814 58.529, 650.811 43.225, 670.813 10.503 M636.476 75.047 C648.192 52.337, 664.458 30.723, 675.271 10.86 M636.476 75.047 C648.005 53.812, 662.115 32.554, 675.271 10.86 M640.933 75.404 C652.121 60.293, 659.524 43.919, 680.246 10.362 M640.933 75.404 C655.985 51.996, 670.468 29.324, 680.246 10.362 M645.909 74.906 C654.79 62.333, 662.117 50.572, 684.703 10.719 M645.909 74.906 C660.009 51.658, 674.724 27.678, 684.703 10.719 M650.366 75.263 C663.239 55.494, 673.326 34.599, 689.161 11.076 M650.366 75.263 C663.578 51.733, 676.046 30.179, 689.161 11.076 M655.341 74.765 C667.392 54.416, 680.112 34.669, 694.136 10.578 M655.341 74.765 C665.482 56.851, 676.4 40.013, 694.136 10.578 M659.799 75.122 C672.317 57.426, 683.869 35.513, 698.594 10.935 M659.799 75.122 C668.836 60.625, 676.642 47.752, 698.594 10.935 M664.257 75.48 C674.84 56.272, 685.957 39.515, 703.569 10.437 M664.257 75.48 C680.438 50.702, 695.811 25.648, 703.569 10.437 M669.232 74.981 C678.663 61.001, 685.718 43.577, 708.027 10.794 M669.232 74.981 C678.082 60.367, 687.238 46.1, 708.027 10.794 M673.69 75.339 C685.6 58.891, 693.429 41.753, 713.002 10.296 M673.69 75.339 C687.965 49.995, 703.279 25.144, 713.002 10.296 M678.665 74.84 C691.266 56.927, 702.08 38.365, 717.46 10.653 M678.665 74.84 C693.073 51.975, 707.178 29.011, 717.46 10.653 M683.123 75.198 C696.419 57.791, 706.042 36.155, 721.918 11.011 M683.123 75.198 C692.844 58.284, 704.341 42.468, 721.918 11.011 M687.581 75.555 C700.188 56.353, 712.59 33.994, 726.893 10.512 M687.581 75.555 C696.815 58.451, 708.222 40.57, 726.893 10.512 M692.556 75.057 C700.248 62.284, 707.004 49.285, 731.351 10.87 M692.556 75.057 C706.767 50.531, 722.388 24.819, 731.351 10.87 M697.014 75.414 C709.759 52.835, 727.785 27.519, 736.326 10.371 M697.014 75.414 C711.367 50.395, 726.945 26.205, 736.326 10.371 M701.989 74.916 C715.224 50.064, 732.353 25.782, 740.784 10.729 M701.989 74.916 C716.414 50.116, 731.076 26.808, 740.784 10.729 M706.447 75.273 C713.662 60.117, 721.624 46.558, 745.242 11.086 M706.447 75.273 C719.692 52.186, 734.705 29.814, 745.242 11.086 M711.422 74.775 C722.07 57.231, 731.792 40.562, 750.217 10.588 M711.422 74.775 C719.333 60.62, 727.492 46.445, 750.217 10.588 M715.88 75.132 C726.439 57.58, 736.087 39.021, 753.64 12.657 M715.88 75.132 C726.019 58.402, 735.685 40.286, 753.64 12.657 M720.337 75.489 C728.532 63.001, 737.132 50.425, 754.477 19.005 M720.337 75.489 C733.609 54.138, 747.062 31.305, 754.477 19.005 M725.313 74.991 C738.111 56.328, 748.066 39.66, 754.279 27.065 M725.313 74.991 C731.534 63.909, 739.11 53.773, 754.279 27.065 M729.77 75.348 C733.923 66.841, 739.766 59.186, 754.082 35.125 M729.77 75.348 C737.201 64.962, 742.406 53.604, 754.082 35.125 M734.745 74.85 C739.315 64.943, 747.141 55.454, 754.402 42.329 M734.745 74.85 C740.859 63.192, 747.348 52.847, 754.402 42.329 M739.203 75.207 C741.908 66.798, 747.312 59.87, 754.204 50.389 M739.203 75.207 C742.9 67.962, 747.612 60.176, 754.204 50.389 M743.661 75.565 C745.905 70.234, 751.486 62.131, 754.006 58.448 M743.661 75.565 C747.559 69.726, 751.347 63.616, 754.006 58.448 M748.636 75.066 C750.505 72.618, 750.847 69.223, 753.809 66.508 M748.636 75.066 C750.02 73.414, 751.392 70.876, 753.809 66.508" stroke="rgb(236, 236, 255)" stroke-width="1.302" fill="none"></path><path d="M583.5 10 C617.528 10.702, 651.66 11.164, 750.5 10 M750.5 10 C751.598 8.867, 753.468 10.793, 753.5 13 M753.5 13 C753.489 25.062, 753.054 41.74, 753.5 72 M753.5 72 C754.875 75.202, 753.199 73.993, 750.5 75 M750.5 75 C691.381 73.539, 628.842 73.64, 583.5 75 M583.5 75 C583.741 75.972, 579.96 75.035, 580.5 72 M580.5 72 C579.434 58.017, 578.751 41.577, 580.5 13 M580.5 13 C580.557 12.046, 582.187 8.117, 583.5 10 M583.5 10 C583.5 10, 583.5 10, 583.5 10" stroke="rgb(218, 206, 243)" stroke-width="1" fill="none"></path></g><g class="text-container" transform="matrix(1 0 0 1 50 10)"><text style="text-anchor: middle; font-size: 16px; font-weight: 400;font-style: normal;font-weight: 400;font-size: 16px;font-family: Comic Sans MS, cursive;" class="actor actor-box" alignment-baseline="central" dominant-baseline="central" y="32.5" x="617" stroke="rgb(218, 206, 243)" stroke-width="1px" fill="rgb(236, 236, 255)" text-anchor="middle"><tspan dy="0" x="617" stroke="none" stroke-width="1px" fill="rgb(0, 0, 0)" text-anchor="middle" dominant-baseline="central">MeasurementService</tspan></text></g><g><path d="M414.234 73.964 C413.472 154.395, 413.53 236.556, 414.253 382.267" stroke="rgb(218, 206, 243)" stroke-width="2" fill="none"></path></g><g><path d="M338.032 12.95 C338.032 12.95, 338.032 12.95, 338.032 12.95 M338.032 12.95 C338.032 12.95, 338.032 12.95, 338.032 12.95 M337.85 18.778 C339.434 16.804, 341.899 12.582, 342.719 11.209 M337.85 18.778 C338.71 16.965, 339.888 14.633, 342.719 11.209 M338.209 23.765 C339.896 21.754, 342.376 15.918, 346.324 11.15 M338.209 23.765 C340.714 20.433, 342.38 15.435, 346.324 11.15 M338.026 29.593 C342.976 21.746, 347.25 15.012, 349.929 11.092 M338.026 29.593 C340.835 24.255, 345.018 17.743, 349.929 11.092 M337.844 35.421 C343.356 26.424, 352.386 15.278, 353.535 11.033 M337.844 35.421 C343.173 27.311, 348.008 17.656, 353.535 11.033 M338.203 40.409 C341.773 31.44, 347.768 26.633, 357.14 10.974 M338.203 40.409 C344.931 29.235, 350.738 20.148, 357.14 10.974 M338.021 46.237 C341.827 37.381, 349.766 30.084, 360.745 10.915 M338.021 46.237 C342.491 38.303, 348.292 33.019, 360.745 10.915 M337.838 52.065 C344.918 41.353, 350.005 31.701, 364.35 10.856 M337.838 52.065 C345.826 40.164, 354.245 26.015, 364.35 10.856 M338.197 57.052 C347.967 43.532, 355.864 28.972, 367.955 10.797 M338.197 57.052 C350.088 39.674, 360.244 21.428, 367.955 10.797 M338.015 62.88 C350.751 44.205, 358.504 27.304, 371.019 11.579 M338.015 62.88 C345.559 50.788, 353.862 37.332, 371.019 11.579 M337.833 68.708 C346.785 53.416, 356.658 37.954, 374.624 11.521 M337.833 68.708 C349.982 50.351, 362.529 30.622, 374.624 11.521 M338.733 72.854 C353.745 49.092, 368.085 27.25, 378.229 11.462 M338.733 72.854 C347.573 58.81, 358.592 43.865, 378.229 11.462 M340.715 75.318 C352.836 53.539, 364.474 34.681, 381.834 11.403 M340.715 75.318 C353.51 56.306, 365.565 36.509, 381.834 11.403 M344.32 75.26 C358.448 51.586, 373.723 27.859, 385.439 11.344 M344.32 75.26 C360.04 52.134, 374.146 26.805, 385.439 11.344 M347.925 75.201 C359.358 60.307, 368.356 44.425, 389.044 11.285 M347.925 75.201 C360.93 57.135, 371.907 39.535, 389.044 11.285 M351.53 75.142 C362.183 57.58, 374.692 42.623, 392.649 11.226 M351.53 75.142 C365.901 52.364, 379.639 29.525, 392.649 11.226 M355.135 75.083 C368.298 52.694, 384.333 25.891, 396.254 11.167 M355.135 75.083 C364.096 60.859, 375.026 44.405, 396.254 11.167 M358.74 75.024 C368.573 56.349, 381.418 39.611, 399.859 11.109 M358.74 75.024 C368.887 57.648, 380.088 42.36, 399.859 11.109 M362.345 74.965 C379.385 51.203, 395.434 27.95, 403.464 11.05 M362.345 74.965 C370.999 59.741, 381.701 44.579, 403.464 11.05 M365.409 75.747 C380.918 49.741, 399.486 23.619, 407.07 10.991 M365.409 75.747 C380.417 52.418, 396.91 27.5, 407.07 10.991 M369.014 75.689 C383.084 54.586, 394.853 36.628, 410.675 10.932 M369.014 75.689 C384.588 51.873, 400.003 28.079, 410.675 10.932 M372.619 75.63 C390.308 49.564, 405.701 25.728, 414.28 10.873 M372.619 75.63 C385.039 56.902, 397.02 39.535, 414.28 10.873 M376.224 75.571 C387.071 60.717, 395.696 48.868, 417.344 11.655 M376.224 75.571 C389.069 55.814, 402.967 34.466, 417.344 11.655 M379.829 75.512 C386.937 63.593, 396.832 50.969, 420.949 11.597 M379.829 75.512 C390.841 58.364, 401.574 40.386, 420.949 11.597 M383.434 75.453 C392.13 60.998, 405.472 46.356, 424.554 11.538 M383.434 75.453 C392.414 61.64, 401.277 47.617, 424.554 11.538 M387.039 75.394 C400.136 50.556, 416.411 29.12, 428.159 11.479 M387.039 75.394 C397.279 57.121, 409.69 40.023, 428.159 11.479 M390.644 75.335 C404.911 51.176, 422.043 27.136, 431.764 11.42 M390.644 75.335 C402.907 55.004, 416.285 33.149, 431.764 11.42 M394.25 75.277 C410.384 51.956, 425.295 26.511, 435.369 11.361 M394.25 75.277 C406.452 54.381, 420.425 34.316, 435.369 11.361 M397.855 75.218 C414.725 51.732, 429.982 26.253, 438.974 11.302 M397.855 75.218 C409.858 57.889, 419.045 42.809, 438.974 11.302 M401.46 75.159 C416.749 50.93, 431.114 25.523, 442.579 11.243 M401.46 75.159 C415.632 51.543, 432.089 28.282, 442.579 11.243 M405.065 75.1 C418.333 56.602, 432.055 36.388, 446.184 11.185 M405.065 75.1 C415.283 59.072, 426.39 41.549, 446.184 11.185 M408.67 75.041 C421.345 55.297, 430.073 39, 449.789 11.126 M408.67 75.041 C419.059 58.502, 428.798 44.728, 449.789 11.126 M411.734 75.823 C422.994 58.415, 433.212 40.454, 453.394 11.067 M411.734 75.823 C420.735 61.577, 431.459 45.427, 453.394 11.067 M415.339 75.765 C424.191 62.424, 434.262 45.908, 456.999 11.008 M415.339 75.765 C430.069 52.9, 446.075 29.691, 456.999 11.008 M418.944 75.706 C429.174 59.88, 441.005 40.387, 460.605 10.949 M418.944 75.706 C428.102 59.387, 438.202 43.768, 460.605 10.949 M422.549 75.647 C438 51.85, 453.057 30.958, 463.669 11.731 M422.549 75.647 C435.22 55.32, 450.171 33.701, 463.669 11.731 M426.154 75.588 C440.606 54.071, 453.901 33.095, 467.274 11.673 M426.154 75.588 C441.65 52.437, 457.569 27.656, 467.274 11.673 M429.759 75.529 C439.646 61.373, 449.351 43.564, 470.879 11.614 M429.759 75.529 C440.386 61.262, 447.983 46.074, 470.879 11.614 M433.364 75.47 C441.037 63.815, 450.189 50.264, 474.484 11.555 M433.364 75.47 C444.299 58.647, 456.814 40.33, 474.484 11.555 M436.969 75.411 C450.642 54.983, 463.952 30.235, 478.089 11.496 M436.969 75.411 C446.458 60.465, 453.668 47.769, 478.089 11.496 M440.574 75.353 C454.112 51.836, 470.763 27.506, 481.694 11.437 M440.574 75.353 C454.899 54.144, 467.104 34.123, 481.694 11.437 M444.18 75.294 C457.701 58.049, 467.441 38.705, 485.299 11.378 M444.18 75.294 C456.071 57.639, 467.841 38, 485.299 11.378 M447.785 75.235 C460.579 54.766, 472.591 36.67, 488.363 12.16 M447.785 75.235 C456.82 61.967, 466.312 47.446, 488.363 12.16 M451.39 75.176 C461.146 57.342, 472.48 41.433, 490.345 14.625 M451.39 75.176 C461.602 58.602, 472.152 42.793, 490.345 14.625 M454.995 75.117 C468.666 55.325, 478.88 38.463, 490.163 20.453 M454.995 75.117 C463.082 61.993, 473.203 47.268, 490.163 20.453 M458.059 75.899 C466.942 62.183, 476.012 46.034, 490.521 25.44 M458.059 75.899 C467.19 60.577, 477.618 43.766, 490.521 25.44 M461.664 75.841 C473.563 61.638, 482.254 42.243, 490.339 31.268 M461.664 75.841 C473.492 59.216, 483.251 41.921, 490.339 31.268 M465.269 75.782 C470.044 68.157, 475.865 60.954, 490.157 37.096 M465.269 75.782 C473.01 62.456, 483.012 49.952, 490.157 37.096 M468.874 75.723 C476.011 65.064, 483.62 56.187, 490.516 42.083 M468.874 75.723 C473.922 67.584, 480.134 57.826, 490.516 42.083 M472.479 75.664 C480.322 64.779, 485.48 56.58, 490.334 47.911 M472.479 75.664 C478.336 68.087, 482.119 59.702, 490.334 47.911 M476.084 75.605 C480.791 68.653, 484.083 64.211, 490.151 53.739 M476.084 75.605 C481.56 67.868, 485.982 59.069, 490.151 53.739 M479.689 75.546 C483.806 70.3, 487.723 63.553, 489.969 59.567 M479.689 75.546 C483.097 72.016, 485.634 67.04, 489.969 59.567 M483.294 75.487 C485.335 71.436, 485.728 69.68, 490.328 64.555 M483.294 75.487 C485.378 70.925, 488.224 67.147, 490.328 64.555" stroke="rgb(236, 236, 255)" stroke-width="2.266" fill="none"></path><path d="M341 10 C379.78 11.229, 418.158 9.326, 485 10 M341 10 C382.634 10.29, 422.842 11.065, 485 10 M485 10 C485.816 10.4, 487.97 13.543, 488 13 M485 10 C484.944 7.878, 485.909 11.289, 488 13 M488 13 C486.687 32.938, 489.279 49.108, 488 72 M488 13 C489.094 29.172, 488.426 45.088, 488 72 M488 72 C488.522 73.777, 485.931 76.327, 485 75 M488 72 C489.338 71.491, 488.594 74.993, 485 75 M485 75 C446.795 74.428, 409.257 72.021, 341 75 M485 75 C442.132 75.161, 397.838 73.714, 341 75 M341 75 C340.928 73.381, 337.902 73.844, 338 72 M341 75 C338.027 73.736, 335.84 71.424, 338 72 M338 72 C337.6 58.993, 338.688 47.165, 338 13 M338 72 C336.725 59.537, 337.43 46.65, 338 13 M338 13 C336.368 11.922, 338.263 11.886, 341 10 M338 13 C338.45 10.967, 337.416 9.004, 341 10 M341 10 C341 10, 341 10, 341 10 M341 10 C341 10, 341 10, 341 10" stroke="rgb(218, 206, 243)" stroke-width="1" fill="none"></path></g><g class="text-container" transform="matrix(1 0 0 1 50 10)"><text style="text-anchor: middle; font-size: 16px; font-weight: 400;font-style: normal;font-weight: 400;font-size: 16px;font-family: Comic Sans MS, cursive;" class="actor actor-box" alignment-baseline="central" dominant-baseline="central" y="32.5" x="363" stroke="rgb(218, 206, 243)" stroke-width="1px" fill="rgb(236, 236, 255)" text-anchor="middle"><tspan dy="0" x="363" stroke="none" stroke-width="1px" fill="rgb(0, 0, 0)" text-anchor="middle" dominant-baseline="central">APIGateway</tspan></text></g><g><path d="M125.259 74.776 C123.704 175.46, 123.465 274.943, 123.977 382.677 M125.334 75.305 C125.671 184.082, 125.158 293.243, 125.478 383.051" stroke="rgb(218, 206, 243)" stroke-width="2" fill="none"></path></g><g><path d="M50.259 12.639 C50.259 12.639, 50.259 12.639, 50.259 12.639 M50.259 12.639 C50.259 12.639, 50.259 12.639, 50.259 12.639 M50.137 16.243 C51.725 14.596, 52.806 11.882, 54.214 10.553 M50.137 16.243 C50.862 15.015, 51.638 13.775, 54.214 10.553 M50.015 19.846 C50.662 16.451, 54.563 14.38, 57.005 10.092 M50.015 19.846 C52.448 16.88, 54.942 13.372, 57.005 10.092 M49.894 23.45 C53.45 19.593, 58.8 12.285, 59.213 10.444 M49.894 23.45 C52.263 19.645, 55.611 14.11, 59.213 10.444 M49.772 27.053 C51.814 24.373, 56.918 18.751, 62.004 9.983 M49.772 27.053 C54.168 21.27, 56.258 15.932, 62.004 9.983 M50.233 29.844 C51.924 25.307, 56.965 23.729, 64.212 10.335 M50.233 29.844 C54.871 23.781, 59.641 17.417, 64.212 10.335 M50.111 33.447 C54.164 28.488, 60.294 20.033, 67.002 9.874 M50.111 33.447 C54.158 27.178, 58.086 20.698, 67.002 9.874 M49.989 37.051 C52.831 30.803, 60.626 23.784, 69.211 10.226 M49.989 37.051 C53.756 32.031, 58.051 25.462, 69.211 10.226 M49.868 40.654 C53.795 31.584, 61.916 26.967, 71.419 10.579 M49.868 40.654 C54.928 34.049, 61.001 27.136, 71.419 10.579 M49.746 44.258 C55.957 37.167, 63.265 27.143, 74.209 10.118 M49.746 44.258 C59.859 30.556, 70.017 17.762, 74.209 10.118 M50.207 47.048 C58.956 36.745, 63.974 26.166, 76.418 10.47 M50.207 47.048 C57.513 36.263, 66.043 24.47, 76.418 10.47 M50.085 50.652 C56.518 40.918, 64.062 31.469, 79.208 10.009 M50.085 50.652 C56.716 41.588, 63.495 32.926, 79.208 10.009 M49.963 54.255 C59.943 38.924, 71.454 21.174, 81.416 10.361 M49.963 54.255 C57.292 42.875, 67.031 31.804, 81.416 10.361 M49.842 57.859 C55.706 46.381, 66.113 38.231, 84.207 9.9 M49.842 57.859 C61.072 41.192, 73.831 23.174, 84.207 9.9 M49.72 61.462 C58.561 52.265, 65.097 41.605, 86.415 10.252 M49.72 61.462 C59.3 48.865, 68.423 34.431, 86.415 10.252 M50.181 64.253 C60.556 51.402, 70.361 38.429, 88.623 10.604 M50.181 64.253 C57.776 52.278, 66.49 42.89, 88.623 10.604 M50.059 67.857 C63.291 49.696, 75.794 28.078, 91.414 10.144 M50.059 67.857 C66.013 45.101, 81.27 23.063, 91.414 10.144 M49.937 71.46 C63.624 52.575, 75.31 33.257, 93.622 10.496 M49.937 71.46 C66.006 48.787, 80.392 28.02, 93.622 10.496 M50.981 73.438 C62.382 59.007, 69.964 44.17, 96.413 10.035 M50.981 73.438 C62.123 57.368, 73.81 43.591, 96.413 10.035 M52.024 75.416 C67.621 56.025, 80.938 31.629, 98.621 10.387 M52.024 75.416 C64.087 58.28, 76.685 41.371, 98.621 10.387 M54.815 74.955 C65.785 59.362, 79.024 41.151, 101.412 9.926 M54.815 74.955 C73.825 48.833, 91.791 23.768, 101.412 9.926 M57.023 75.307 C67.469 61.874, 76.444 48.177, 103.62 10.278 M57.023 75.307 C69.997 57.737, 82.285 41.061, 103.62 10.278 M59.813 74.846 C75.871 52.305, 92.547 29.419, 105.828 10.63 M59.813 74.846 C74.921 52.899, 91.288 32.355, 105.828 10.63 M62.022 75.198 C73.46 60.263, 85.131 41.152, 108.619 10.17 M62.022 75.198 C80.555 50.62, 97.53 23.765, 108.619 10.17 M64.812 74.737 C78.061 57.12, 91.284 40.788, 110.827 10.522 M64.812 74.737 C82.522 49.634, 100.086 25.959, 110.827 10.522 M67.02 75.089 C79.88 57.55, 92.545 39.079, 113.618 10.061 M67.02 75.089 C83.813 52.07, 100.631 28.342, 113.618 10.061 M69.229 75.441 C83.711 52.363, 101.152 28.256, 115.826 10.413 M69.229 75.441 C88.189 48.446, 105.999 24.204, 115.826 10.413 M72.019 74.981 C83.314 55.87, 96.83 38.933, 118.616 9.952 M72.019 74.981 C88.1 52.36, 105.256 29.619, 118.616 9.952 M74.227 75.333 C83.555 61.017, 96.126 42.522, 120.825 10.304 M74.227 75.333 C85.388 58.859, 95.77 42.598, 120.825 10.304 M77.018 74.872 C91.613 56.181, 104.293 36.063, 123.033 10.656 M77.018 74.872 C89.358 57.664, 102.087 42.524, 123.033 10.656 M79.226 75.224 C90.119 60.15, 99.97 47.198, 125.823 10.196 M79.226 75.224 C95.399 51.373, 113.041 28.526, 125.823 10.196 M82.017 74.763 C97.612 52.306, 110.974 33.705, 128.032 10.548 M82.017 74.763 C97.448 51.755, 114.968 28.552, 128.032 10.548 M84.225 75.115 C96.74 58.296, 110.53 39.992, 130.822 10.087 M84.225 75.115 C98.054 57.335, 111.556 38.088, 130.822 10.087 M86.433 75.467 C102.249 55.737, 115.624 34.507, 133.03 10.439 M86.433 75.467 C101.066 53.878, 117.088 32.591, 133.03 10.439 M89.224 75.007 C101.117 58.276, 113.163 40.282, 135.821 9.978 M89.224 75.007 C105.826 52.132, 120.789 29.716, 135.821 9.978 M91.432 75.359 C108.87 52.035, 124.965 31.878, 138.029 10.33 M91.432 75.359 C102.248 61.679, 111.616 47.624, 138.029 10.33 M94.223 74.898 C106.629 53.906, 122.484 34.312, 140.237 10.682 M94.223 74.898 C109.208 54.482, 122.745 35.405, 140.237 10.682 M96.431 75.25 C109.374 54.681, 124.807 35.549, 143.028 10.221 M96.431 75.25 C112.062 52.022, 128.853 28.013, 143.028 10.221 M99.222 74.789 C114.164 55.349, 125.13 40.188, 145.236 10.574 M99.222 74.789 C115.005 54.869, 128.167 33.966, 145.236 10.574 M101.43 75.141 C110.363 58.967, 122.032 46.908, 148.027 10.113 M101.43 75.141 C114.127 57.678, 124.834 40.301, 148.027 10.113 M103.638 75.493 C114.611 60.013, 122.539 49.249, 150.235 10.465 M103.638 75.493 C121.229 49.669, 139.194 24.276, 150.235 10.465 M106.429 75.033 C119.27 56.937, 132.874 41.695, 153.026 10.004 M106.429 75.033 C119.062 58.078, 129.177 42.634, 153.026 10.004 M108.637 75.385 C126.114 51.003, 145.324 23.303, 155.234 10.356 M108.637 75.385 C121.832 57.592, 132.881 39.482, 155.234 10.356 M111.427 74.924 C119.325 60.343, 129.559 46.317, 157.442 10.708 M111.427 74.924 C123.547 57.18, 137.228 39.527, 157.442 10.708 M113.636 75.276 C127.292 55.72, 139.806 38.462, 160.233 10.247 M113.636 75.276 C123.731 60.781, 134.569 44.798, 160.233 10.247 M116.426 74.815 C125.766 60.37, 138.776 46.565, 162.441 10.599 M116.426 74.815 C133.234 49.742, 151.06 24.802, 162.441 10.599 M118.634 75.167 C133.298 52.968, 150.768 30.081, 165.231 10.139 M118.634 75.167 C137.111 51.084, 155.078 26.587, 165.231 10.139 M120.842 75.519 C140.517 48.881, 156.338 25.043, 167.44 10.491 M120.842 75.519 C136.708 52.334, 153.285 31.317, 167.44 10.491 M123.633 75.058 C134.377 59.252, 148.177 42.446, 170.23 10.03 M123.633 75.058 C135.545 59.153, 148.557 40.673, 170.23 10.03 M125.841 75.411 C139.002 59.497, 151.492 42.859, 172.438 10.382 M125.841 75.411 C137.614 59.402, 148.992 43.444, 172.438 10.382 M128.632 74.95 C145.883 52.975, 161.283 28.052, 174.647 10.734 M128.632 74.95 C141.813 59.04, 153.347 40.053, 174.647 10.734 M130.84 75.302 C139.605 59.688, 153.214 44.853, 177.437 10.273 M130.84 75.302 C143.413 57.587, 154.174 41.826, 177.437 10.273 M133.631 74.841 C141.704 60.274, 152.917 46.061, 179.645 10.625 M133.631 74.841 C144.295 57.963, 157.022 42.666, 179.645 10.625 M135.839 75.193 C152.105 52.615, 166.784 32.014, 182.436 10.165 M135.839 75.193 C147.821 57.965, 161.564 38.955, 182.436 10.165 M138.047 75.545 C152.442 52.943, 166.349 35.343, 184.644 10.517 M138.047 75.545 C148.712 61.207, 160.669 45.457, 184.644 10.517 M140.838 75.084 C157.018 53.262, 173.999 27.425, 187.435 10.056 M140.838 75.084 C155.116 54.213, 167.341 34.861, 187.435 10.056 M143.046 75.436 C154.534 58.141, 170.758 36.164, 189.643 10.408 M143.046 75.436 C159.823 52.299, 176.87 28.404, 189.643 10.408 M145.837 74.976 C159.354 59.294, 168.243 39.79, 191.851 10.76 M145.837 74.976 C164.362 49.342, 181.366 23.798, 191.851 10.76 M148.045 75.328 C165.664 52.924, 183.058 28.792, 194.642 10.299 M148.045 75.328 C166.05 50.177, 184.249 25.375, 194.642 10.299 M150.835 74.867 C160.964 62.541, 169.243 47.981, 196.85 10.651 M150.835 74.867 C167.122 54.133, 181.539 32.776, 196.85 10.651 M153.044 75.219 C170.671 50.866, 189.633 22.791, 199.058 11.003 M153.044 75.219 C167.108 54.679, 183.031 33.308, 199.058 11.003 M155.252 75.571 C167.177 56.058, 183.313 37.22, 200.101 12.981 M155.252 75.571 C167.97 58.983, 179.838 41.719, 200.101 12.981 M158.042 75.11 C169.524 59.467, 179.205 45.059, 199.98 16.585 M158.042 75.11 C169.228 58.205, 181.927 41.309, 199.98 16.585 M160.251 75.462 C169.878 60.656, 180.654 44.887, 199.858 20.188 M160.251 75.462 C174.885 55.534, 191.107 33.506, 199.858 20.188 M163.041 75.002 C170.221 61.741, 181.89 50.084, 199.736 23.792 M163.041 75.002 C172.558 61.084, 184.037 44.945, 199.736 23.792 M165.249 75.354 C174.322 64.888, 182.532 50.885, 200.197 26.582 M165.249 75.354 C176.098 59.555, 188.313 42.473, 200.197 26.582 M168.04 74.893 C176.759 63.264, 183.865 54.182, 200.076 30.186 M168.04 74.893 C176.288 62.405, 186.198 48.917, 200.076 30.186 M170.248 75.245 C176.105 65.678, 185.029 56.65, 199.954 33.789 M170.248 75.245 C176.156 65.662, 181.729 57.13, 199.954 33.789 M172.456 75.597 C181.874 63.963, 191.951 49.378, 199.832 37.393 M172.456 75.597 C179.741 64.508, 189.105 52.587, 199.832 37.393 M175.247 75.136 C183.345 63.387, 191.24 48.674, 199.711 40.996 M175.247 75.136 C183.384 62.199, 192.261 49.415, 199.711 40.996 M177.455 75.488 C187.103 63.254, 193.072 52.415, 200.171 43.787 M177.455 75.488 C185.145 66.292, 192.031 56.417, 200.171 43.787 M180.246 75.028 C188.841 62.915, 195.201 54.618, 200.05 47.39 M180.246 75.028 C185.492 67.3, 189.491 61.225, 200.05 47.39 M182.454 75.38 C188.623 68.409, 192.019 62.598, 199.928 50.994 M182.454 75.38 C186.147 70.45, 189.943 64.813, 199.928 50.994 M185.245 74.919 C187.39 71.139, 190.516 63.86, 199.806 54.597 M185.245 74.919 C187.686 70.357, 192.093 65.289, 199.806 54.597 M187.453 75.271 C190.65 67.027, 195.719 61.036, 199.685 58.201 M187.453 75.271 C192.628 69.5, 195.924 64.223, 199.685 58.201 M189.661 75.623 C190.817 72.85, 196.325 67.018, 199.563 61.804 M189.661 75.623 C193.295 71.232, 195.469 66.434, 199.563 61.804 M192.452 75.162 C194.75 72.978, 195.508 68.737, 200.024 64.595 M192.452 75.162 C194.27 71.896, 196.763 69.244, 200.024 64.595 M194.66 75.514 C196.128 72.64, 198.993 70.302, 199.902 68.199 M194.66 75.514 C196.245 72.416, 198.896 70.326, 199.902 68.199 M197.45 75.053 C198.573 73.691, 199.16 73.02, 199.78 71.802 M197.45 75.053 C198.014 74.243, 198.483 73.17, 199.78 71.802" stroke="rgb(236, 236, 255)" stroke-width="2.103" fill="none"></path><path d="M53 10 C83.819 8.649, 116.666 10.583, 197 10 M53 10 C84.946 9.276, 116.974 9.77, 197 10 M197 10 C200.587 8.394, 198.451 10.83, 200 13 M197 10 C197.821 10.348, 199.339 12.498, 200 13 M200 13 C199.484 28.023, 200.307 48.155, 200 72 M200 13 C200.526 33.582, 200.939 53.106, 200 72 M200 72 C201.908 74.087, 196.695 75.941, 197 75 M200 72 C200.677 75.105, 200.308 77.192, 197 75 M197 75 C143.441 75.91, 90.311 74.785, 53 75 M197 75 C151.229 76.247, 106.486 76.432, 53 75 M53 75 C51.38 74.801, 50.775 71.871, 50 72 M53 75 C52.484 74.333, 48.051 73.54, 50 72 M50 72 C50.636 50.732, 51.401 28.571, 50 13 M50 72 C50.165 52.642, 49.284 33.153, 50 13 M50 13 C51.265 11.83, 49.744 9.664, 53 10 M50 13 C49.273 11.783, 53.441 8.084, 53 10 M53 10 C53 10, 53 10, 53 10 M53 10 C53 10, 53 10, 53 10" stroke="rgb(218, 206, 243)" stroke-width="1" fill="none"></path></g><g class="text-container" transform="matrix(1 0 0 1 50 10)"><text style="text-anchor: middle; font-size: 16px; font-weight: 400;font-style: normal;font-weight: 400;font-size: 16px;font-family: Comic Sans MS, cursive;" class="actor actor-box" alignment-baseline="central" dominant-baseline="central" y="32.5" x="75" stroke="rgb(218, 206, 243)" stroke-width="1px" fill="rgb(236, 236, 255)" text-anchor="middle"><tspan dy="0" x="75" stroke="none" stroke-width="1px" fill="rgb(0, 0, 0)" text-anchor="middle" dominant-baseline="central">Client</tspan></text></g><g class="text-container" transform="matrix(1 0 0 1 50 10)"><text style="font-size: 16px; font-weight: 400;font-style: normal;font-weight: 400;font-size: 16px;font-family: Comic Sans MS, cursive;" dy="1em" class="messageText" alignment-baseline="middle" dominant-baseline="middle" text-anchor="middle" y="80" x="218" stroke="none" stroke-width="1px" fill="rgb(51, 51, 51)">POST /zealand/measurements</text></g><g><path d="M126.327 122.903 C189.66 120.444, 256.906 120.962, 407.84 123.917" stroke="rgb(51, 51, 51)" stroke-width="1.5" fill="none"></path></g><g><path d="M400.211 117.809 C400.211 117.809, 400.211 117.809, 400.211 117.809 M400.211 117.809 C400.211 117.809, 400.211 117.809, 400.211 117.809 M400.117 120.172 C400.308 119.676, 400.701 119.352, 401.253 118.335 M400.09 120.009 C400.398 119.537, 400.472 119.169, 401.001 118.361 M400.187 121.484 C400.756 120.396, 401.413 119.808, 402.106 118.96 M400.513 121.432 C401.023 120.342, 401.451 119.433, 402 118.831 M400.997 122.431 C401.563 121.489, 402.476 120.26, 403.166 119.153 M400.764 122.867 C401.121 121.972, 401.875 121.068, 402.948 119.211 M400.698 124.823 C401.794 123.65, 402.473 121.931, 403.093 119.615 M400.443 125.006 C401.299 123.889, 401.935 122.512, 403.957 119.88 M400.712 126.788 C401.275 125.177, 402.576 123.311, 404.042 119.77 M401.297 126.292 C402.217 124.012, 403.509 121.881, 404.876 120.418 M400.637 127.66 C401.572 127.005, 402.725 125.12, 405.422 120.645 M401.381 127.568 C402.445 126.053, 403.092 124.626, 405.093 120.583 M402.882 126.832 C403.428 125.732, 405.729 123.689, 405.587 121.127 M402.669 127.387 C403.941 125.369, 405.18 123.052, 405.958 121.53 M404.353 125.69 C405.633 124.726, 407.021 122.528, 407.34 120.704 M404.804 126.441 C405.498 125.023, 406.237 123.906, 407.71 121.191 M406.251 125.584 C406.439 124.709, 407.083 122.77, 408.433 121.757 M405.836 125.857 C406.661 124.775, 407.64 123.304, 408.659 121.651 M407.615 124.799 C408.029 123.893, 408.835 123.328, 409.337 121.825 M407.956 124.636 C408.136 123.946, 408.415 123.212, 409.433 122.082 M409.241 124.308 C409.585 123.632, 409.796 122.847, 410.201 122.335 M409.315 124.109 C409.636 123.588, 409.799 123.102, 410.131 122.528 M411.091 122.968 C411.091 122.968, 411.091 122.968, 411.091 122.968 M411.091 122.968 C411.091 122.968, 411.091 122.968, 411.091 122.968" stroke="rgb(51, 51, 51)" stroke-width="0.559" fill="none"></path><path d="M399.807 118.224 C402.994 119.491, 407.864 121.291, 410.118 123.212 M410.994 123.71 C407.662 123.928, 403.097 126.56, 401.572 128.058 M400.163 128.32 C400.514 126.043, 399.877 123.016, 400.48 117.077" stroke="rgb(51, 51, 51)" stroke-width="1" fill="none"></path></g><g class="text-container" transform="matrix(1 0 0 1 50 10)"><text style="font-size: 16px; font-weight: 400;font-style: normal;font-weight: 400;font-size: 16px;font-family: Comic Sans MS, cursive;" dy="1em" class="messageText" alignment-baseline="middle" dominant-baseline="middle" text-anchor="middle" y="128" x="489" stroke="none" stroke-width="1px" fill="rgb(51, 51, 51)">POST /api/Measurements</text></g><g><path d="M414.182 171.172 C508.021 170.478, 603.185 170.966, 662.939 170.436" stroke="rgb(51, 51, 51)" stroke-width="1.5" fill="none"></path></g><g><path d="M653.99 166.103 C653.99 166.103, 653.99 166.103, 653.99 166.103 M653.99 166.103 C653.99 166.103, 653.99 166.103, 653.99 166.103 M654.113 167.37 C654.391 166.976, 654.749 166.59, 655.362 165.961 M653.893 167.554 C654.374 167.08, 654.76 166.877, 655.376 166.219 M654.819 168.185 C655.089 167.995, 655.575 167.329, 656.187 166.966 M654.654 168.345 C654.933 168.046, 655.194 167.715, 655.99 166.863 M654.374 169.704 C655.325 169.034, 655.756 168.631, 656.815 167.858 M654.685 169.706 C655.179 169.16, 656.072 168.315, 656.852 167.571 M654.202 170.624 C655.6 170.431, 656.183 169.581, 658.398 167.831 M654.445 171.156 C655.328 170.374, 656.096 169.636, 658.351 167.678 M654.868 172.761 C656.066 171.895, 656.87 169.938, 658.413 168.97 M654.357 172.698 C655.554 171.839, 656.372 170.688, 659.093 168.566 M655.749 172.965 C657.001 171.607, 658.3 169.267, 660.883 168.418 M654.887 173.318 C656.694 171.973, 658.321 170.044, 660.428 168.395 M655.001 173.85 C657.079 173.013, 660.187 170.432, 660.804 168.613 M655.117 174.413 C656.997 172.739, 658.539 171.594, 660.698 169.296 M655.055 175.668 C657.048 173.365, 659.301 172.429, 661.811 170.151 M655.348 176.258 C657.138 174.035, 659.327 172.144, 661.61 169.69 M657.525 174.611 C660.427 173.111, 661.964 170.47, 662.448 169.971 M658.247 174.874 C659.032 173.342, 660.184 172.727, 663.083 169.635 M661.566 172.948 C662.355 172.258, 663.087 171.678, 663.482 170.949 M661.531 172.842 C662.092 172.066, 662.971 171.454, 663.854 170.567 M664.465 171.481 C664.687 171.158, 664.945 171.041, 665.241 170.689 M664.452 171.405 C664.591 171.203, 664.787 171.05, 665.19 170.68" stroke="rgb(51, 51, 51)" stroke-width="1.467" fill="none"></path><path d="M652.978 165.329 C656.084 168.526, 659.155 167.632, 665.092 170.014 M665.756 170.37 C661.544 171.747, 656.772 174.29, 655.722 175.692 M654.112 175.852 C654.158 173.268, 654.767 171.769, 654.745 165.058" stroke="rgb(51, 51, 51)" stroke-width="1" fill="none"></path></g><g class="text-container" transform="matrix(1 0 0 1 50 10)"><text style="font-size: 16px; font-weight: 400;font-style: normal;font-weight: 400;font-size: 16px;font-family: Comic Sans MS, cursive;" dy="1em" class="messageText" alignment-baseline="middle" dominant-baseline="middle" text-anchor="middle" y="176" x="829" stroke="none" stroke-width="1px" fill="rgb(51, 51, 51)">Is Feature "EnableCreateMeasurement" Enabled?</text></g><g><path d="M668.689 219.437 C769.7 218.016, 870.548 218.617, 1089.497 219.283" stroke="rgb(51, 51, 51)" stroke-width="1.5" fill="none"></path></g><g><path d="M1081.062 214.05 C1081.062 214.05, 1081.062 214.05, 1081.062 214.05 M1081.062 214.05 C1081.062 214.05, 1081.062 214.05, 1081.062 214.05 M1081.641 216.905 C1082.114 216.427, 1082.677 215.563, 1083.328 214.616 M1081.453 216.747 C1081.924 216.205, 1082.228 215.895, 1083.139 214.426 M1081.292 219.616 C1082.613 218.146, 1084.082 216.186, 1085.227 215.769 M1081.857 219.651 C1082.865 218.261, 1084.148 216.508, 1084.761 215.699 M1082.771 222.079 C1083.547 220.518, 1084.587 219.628, 1086.9 217.632 M1082.328 222.625 C1083.463 220.645, 1084.448 219.303, 1086.736 216.616 M1084.097 223.084 C1085.302 220.307, 1087.937 218.284, 1087.989 217.188 M1084.646 222.792 C1085.281 221.773, 1086.223 220.887, 1088.503 217.211 M1088.191 221.044 C1088.929 220.272, 1089.203 219.566, 1090.106 218.404 M1088.287 221.1 C1088.733 220.284, 1089.351 219.815, 1090.15 218.468" stroke="rgb(51, 51, 51)" stroke-width="1.202" fill="none"></path><path d="M1082.296 214.52 C1083.928 216.519, 1089.903 218.348, 1091.553 218.677 M1092.04 219.212 C1089.243 219.961, 1087.063 220.806, 1082.577 223.811 M1081.808 224.599 C1080.793 221.31, 1080.719 218.985, 1081.829 213.923" stroke="rgb(51, 51, 51)" stroke-width="1" fill="none"></path></g><g class="text-container" transform="matrix(1 0 0 1 50 10)"><text style="font-size: 16px; font-weight: 400;font-style: normal;font-weight: 400;font-size: 16px;font-family: Comic Sans MS, cursive;" dy="1em" class="messageText" alignment-baseline="middle" dominant-baseline="middle" text-anchor="middle" y="224" x="832" stroke="none" stroke-width="1px" fill="rgb(51, 51, 51)">No</text></g><g><path d="M1093.984 267.444 C960.803 264.283, 826.692 266.195, 671.183 266.697" stroke="rgb(51, 51, 51)" stroke-width="1.5" fill="none" stroke-dasharray="3 3"></path></g><g><path d="M668.812 267.08 C668.812 267.08, 668.812 267.08, 668.812 267.08 M668.812 267.08 C668.812 267.08, 668.812 267.08, 668.812 267.08 M670.278 266.893 C670.807 266.524, 672.051 265.937, 672.157 265.135 M670.273 267.188 C670.911 266.379, 671.762 265.818, 672.443 265.047 M670.408 267.99 C671.809 266.159, 673.361 265.636, 675.127 263.516 M670.98 267.867 C672.358 266.698, 673.676 265.699, 675.368 263.932 M672.459 268.002 C674.76 266.177, 677.075 262.904, 678.867 261.606 M671.097 268.326 C672.895 267.545, 674.67 265.802, 678.6 261.81 M673.306 269.106 C675.107 266.361, 676.678 264.57, 680.013 263.316 M673.306 268.71 C675.151 266.192, 678.55 264.334, 679.195 262.788 M673.678 269.897 C675.944 267.009, 677.65 264.967, 679.804 264.192 M673.784 269.3 C675.624 267.349, 677.98 265.281, 679.71 263.982 M674.602 269.392 C676.552 268.533, 676.866 267.539, 679.718 265.308 M674.865 269.473 C676.998 268.104, 678.367 266.776, 679.48 265.148 M675.794 270.716 C676.906 268.341, 679.153 266.873, 679.607 266.273 M675.701 270.461 C676.92 269.183, 678.045 267.943, 680.416 266.372 M677.212 270.053 C677.896 269.833, 678.887 269.059, 680.28 267.416 M677.152 270.323 C677.77 269.809, 678.545 269.016, 679.993 267.449 M677.995 271.213 C678.845 270.303, 679.054 269.764, 680.23 268.854 M677.7 271.145 C678.341 270.668, 678.761 269.932, 680.166 269.125 M678.575 271.801 C679.128 271.377, 679.676 270.781, 680.046 270.293 M678.51 271.678 C679.14 271.294, 679.697 270.775, 680.038 270.381 M679.96 271.756 C680.223 271.612, 680.301 271.478, 680.718 271.124 M679.883 271.849 C680.139 271.595, 680.3 271.486, 680.683 271.094" stroke="rgb(51, 51, 51)" stroke-width="0.88" fill="none"></path><path d="M681.085 271.482 C677.983 270.127, 674.102 268.784, 669.331 266.877 M679.4 272.332 C676.927 271.124, 672.74 268.781, 669.305 267.124 M668.187 266.218 C672.048 266.751, 673.24 264.286, 679.289 261.951 M669.077 267.318 C673.033 265.342, 676.605 263.724, 679.22 262.281 M679.481 262.614 C678.524 263.281, 679.809 267.145, 680.878 271.183 M679.392 261.802 C678.697 264.598, 679.504 266.882, 679.88 272.391" stroke="rgb(51, 51, 51)" stroke-width="1" fill="none"></path></g><g class="text-container" transform="matrix(1 0 0 1 50 10)"><text style="font-size: 16px; font-weight: 400;font-style: normal;font-weight: 400;font-size: 16px;font-family: Comic Sans MS, cursive;" dy="1em" class="messageText" alignment-baseline="middle" dominant-baseline="middle" text-anchor="middle" y="272" x="492" stroke="none" stroke-width="1px" fill="rgb(51, 51, 51)">503 Service Unavailable</text></g><g><path d="M665.241 315.521 C582.66 313.202, 502.975 314.842, 417.759 315.267" stroke="rgb(51, 51, 51)" stroke-width="1.5" fill="none" stroke-dasharray="3 3"></path></g><g><path d="M414.852 315.078 C414.852 315.078, 414.852 315.078, 414.852 315.078 M414.852 315.078 C414.852 315.078, 414.852 315.078, 414.852 315.078 M416.446 316.055 C416.92 315.497, 417.346 314.667, 418.24 313.42 M416.439 316.222 C417.079 315.258, 417.558 314.475, 418.202 313.56 M418.639 316.91 C419.516 314.526, 420.81 313.504, 421.931 310.841 M419.051 316.598 C419.591 315.361, 419.787 314.113, 421.849 311.312 M419.969 318.016 C421.013 314.905, 423.067 313.899, 424.928 310.486 M420.834 317.461 C421.634 314.83, 423.531 313.094, 425.08 309.322 M421.756 318.875 C423.189 316.904, 424.224 315.32, 425.448 313.169 M422.139 318.387 C423.129 316.758, 424.16 315.353, 425.456 313.496 M424.153 319.58 C424.294 318.67, 425.186 318.093, 425.534 316.831 M423.99 319.566 C424.219 318.716, 424.766 318.081, 425.322 316.917" stroke="rgb(51, 51, 51)" stroke-width="1.282" fill="none"></path><path d="M425.835 320.903 C422.46 319.741, 421.565 317.208, 413.844 315.677 M426.108 320.224 C421.548 318.34, 418.791 316.181, 414.609 315.603 M414.584 315.014 C418.677 314.09, 423.179 310.051, 423.998 309.607 M415.423 314.545 C417.975 314.123, 420.412 312.21, 424.887 309.629 M425.718 310.784 C425.56 312.601, 425.528 316.374, 425.504 320.863 M425.271 310.344 C425.051 313.135, 425.538 315.734, 425.926 320.344" stroke="rgb(51, 51, 51)" stroke-width="1" fill="none"></path></g><g class="text-container" transform="matrix(1 0 0 1 50 10)"><text style="font-size: 16px; font-weight: 400;font-style: normal;font-weight: 400;font-size: 16px;font-family: Comic Sans MS, cursive;" dy="1em" class="messageText" alignment-baseline="middle" dominant-baseline="middle" text-anchor="middle" y="320" x="221" stroke="none" stroke-width="1px" fill="rgb(51, 51, 51)">503 Service Unavailable</text></g><g><path d="M412.819 361.662 C310.326 360.621, 208.419 360.747, 130.287 362.415" stroke="rgb(51, 51, 51)" stroke-width="1.5" fill="none" stroke-dasharray="3 3"></path></g><g><path d="M127.105 362.822 C127.105 362.822, 127.105 362.822, 127.105 362.822 M127.105 362.822 C127.105 362.822, 127.105 362.822, 127.105 362.822 M130.57 364.001 C130.901 361.95, 133.317 362.319, 137.872 357.767 M129.878 363.953 C131.816 362.789, 134.247 360.992, 137.575 357.753 M133.013 366.342 C133.944 365.285, 135.021 364.05, 136.972 361.682 M132.55 366.093 C134.263 364.763, 135.741 363.198, 137.137 362.338 M135.866 366.901 C136.31 366.558, 136.817 366.465, 137.73 365.697 M136.054 367.003 C136.511 366.548, 137.115 366.077, 137.575 365.677" stroke="rgb(51, 51, 51)" stroke-width="1.581" fill="none"></path><path d="M138.281 368.861 C135.357 367.871, 132.32 365.39, 126.856 362.761 M127.036 362.664 C130.354 361.954, 132.977 359.868, 135.972 358.079 M136.562 357.474 C137.003 361.49, 138.364 364.402, 137.035 367.483" stroke="rgb(51, 51, 51)" stroke-width="1" fill="none"></path></g></svg>