<?xml version="1.0" encoding="UTF-8"?>
<?xml-stylesheet href="https://cdnjs.cloudflare.com/ajax/libs/font-awesome/6.6.0/css/all.min.css" type="text/css"?>
<svg xmlns="http://www.w3.org/2000/svg" xmlns:xlink="http://www.w3.org/1999/xlink" width="100%" height="100%" stroke-linecap="round" viewBox="0 0 1136 459" style="max-width: 100%;"><g><path d="M935.848 386.238 C935.848 386.238, 935.848 386.238, 935.848 386.238 M935.848 386.238 C935.848 386.238, 935.848 386.238, 935.848 386.238 M936.23 391.224 C937.261 389.423, 937.678 388.742, 940.528 384.476 M936.23 391.224 C937.297 389.837, 938.486 387.95, 940.528 384.476 M936.074 397.052 C938.015 391.604, 943.075 387.56, 944.132 384.401 M936.074 397.052 C937.371 394.085, 940.61 390.815, 944.132 384.401 M935.918 402.881 C939.603 397.952, 942.494 391.814, 947.737 384.326 M935.918 402.881 C938.312 397.767, 943.209 391.866, 947.737 384.326 M935.762 408.71 C940.715 399.258, 947.977 390.194, 951.342 384.251 M935.762 408.71 C940.342 402.077, 943.685 395.338, 951.342 384.251 M936.144 413.696 C941.955 407.848, 943.262 400.457, 954.947 384.175 M936.144 413.696 C941.159 404.43, 947.484 396.832, 954.947 384.175 M935.988 419.524 C943.512 408.912, 947.501 401.362, 958.551 384.1 M935.988 419.524 C945.6 405.923, 953.424 392.775, 958.551 384.1 M935.832 425.353 C941.108 415.828, 945.157 408.926, 962.156 384.025 M935.832 425.353 C942.439 413.924, 951.113 401.706, 962.156 384.025 M936.213 430.339 C941.538 419.421, 951.255 406.569, 965.761 383.95 M936.213 430.339 C946.652 414.025, 955.21 399.651, 965.761 383.95 M936.057 436.168 C942.077 424.92, 950.992 415.547, 969.366 383.875 M936.057 436.168 C949.715 415.406, 960.794 396.398, 969.366 383.875 M935.902 441.997 C943.906 427.319, 951.488 416.187, 972.97 383.8 M935.902 441.997 C943.999 428.181, 952.868 415.275, 972.97 383.8 M937.357 445.295 C951.763 423.777, 964.474 398.897, 976.038 384.568 M937.357 445.295 C948.619 427.571, 957.529 410.762, 976.038 384.568 M938.813 448.594 C951.876 427.422, 966.628 407.703, 979.643 384.493 M938.813 448.594 C946.706 434.058, 955.468 422.188, 979.643 384.493 M942.418 448.518 C953.087 431.025, 964.313 417.832, 983.248 384.417 M942.418 448.518 C955.382 427.848, 968.188 408.576, 983.248 384.417 M946.023 448.443 C957.304 434.381, 962.844 418.506, 986.852 384.342 M946.023 448.443 C955.085 433.112, 966.904 417.43, 986.852 384.342 M949.627 448.368 C964.67 425.45, 978.591 401.636, 990.457 384.267 M949.627 448.368 C960.708 428.264, 973.664 408.111, 990.457 384.267 M953.232 448.293 C963.921 432.345, 974.716 418.334, 994.062 384.192 M953.232 448.293 C963.399 430.702, 973.987 415.786, 994.062 384.192 M956.837 448.218 C967.86 427.322, 979.579 411.093, 997.667 384.117 M956.837 448.218 C972.038 422.96, 988.439 396.639, 997.667 384.117 M960.442 448.143 C972.966 427.614, 988.394 407.151, 1001.271 384.042 M960.442 448.143 C971.025 432.134, 981.208 413.992, 1001.271 384.042 M964.047 448.067 C978.939 423.416, 990.661 401.889, 1004.876 383.966 M964.047 448.067 C978.159 425.928, 994.475 403.273, 1004.876 383.966 M967.114 448.836 C981.343 426.352, 992.624 407.449, 1008.481 383.891 M967.114 448.836 C979.997 428.291, 992.739 409.421, 1008.481 383.891 M970.719 448.76 C983.4 433.132, 994.1 413.339, 1011.548 384.659 M970.719 448.76 C983.993 427.334, 996.71 406.41, 1011.548 384.659 M974.324 448.685 C984.872 428.541, 996.646 410.203, 1015.153 384.584 M974.324 448.685 C985.377 433.294, 994.667 418.366, 1015.153 384.584 M977.928 448.61 C987.882 431.439, 999.854 410.641, 1018.758 384.509 M977.928 448.61 C993.052 424.706, 1007.904 402.294, 1018.758 384.509 M981.533 448.535 C987.8 435.504, 998.503 423.115, 1022.363 384.434 M981.533 448.535 C992.826 429.941, 1004.232 413.411, 1022.363 384.434 M985.138 448.46 C1002.473 424.556, 1015.732 397.625, 1025.967 384.359 M985.138 448.46 C996.396 428.891, 1008.845 410.101, 1025.967 384.359 M988.743 448.385 C1003.294 426.464, 1015.153 406.276, 1029.572 384.284 M988.743 448.385 C1002.827 427.906, 1015.241 407.102, 1029.572 384.284 M992.347 448.309 C1004.266 426.821, 1021.059 404.013, 1033.177 384.208 M992.347 448.309 C1003.272 433.456, 1011.193 418.776, 1033.177 384.208 M995.952 448.234 C1010.494 428.626, 1023.326 406.851, 1036.782 384.133 M995.952 448.234 C1006.63 434.025, 1015.652 418.354, 1036.782 384.133 M999.557 448.159 C1011.8 427.178, 1026.936 406.835, 1040.387 384.058 M999.557 448.159 C1010.189 432.465, 1018.816 417.198, 1040.387 384.058 M1002.625 448.927 C1015.405 429.923, 1023.337 415.396, 1043.991 383.983 M1002.625 448.927 C1012.164 435.026, 1019.409 421.941, 1043.991 383.983 M1006.229 448.852 C1012.848 436.596, 1022.84 422.489, 1047.596 383.908 M1006.229 448.852 C1015.438 435.518, 1022.622 420.027, 1047.596 383.908 M1009.834 448.777 C1019.104 430.77, 1031.575 412.855, 1050.664 384.676 M1009.834 448.777 C1019.585 433.773, 1031.139 418.441, 1050.664 384.676 M1013.439 448.702 C1028.179 426.81, 1038.373 406.114, 1054.268 384.601 M1013.439 448.702 C1026.213 426.208, 1040.238 404.272, 1054.268 384.601 M1017.044 448.627 C1027.577 430.271, 1039.319 413.611, 1057.873 384.526 M1017.044 448.627 C1027.429 432.326, 1037.668 416.735, 1057.873 384.526 M1020.648 448.551 C1029.781 436.094, 1039.054 420.847, 1061.478 384.45 M1020.648 448.551 C1035.86 422.873, 1052.87 398.245, 1061.478 384.45 M1024.253 448.476 C1032.713 432.626, 1043.897 418.883, 1065.083 384.375 M1024.253 448.476 C1038.301 425.951, 1053.826 402.946, 1065.083 384.375 M1027.858 448.401 C1041.953 427.498, 1052.625 409.106, 1068.687 384.3 M1027.858 448.401 C1045.598 424.031, 1060.016 396.853, 1068.687 384.3 M1031.463 448.326 C1046.819 422.667, 1065.881 397.059, 1072.292 384.225 M1031.463 448.326 C1046.514 425.476, 1059.998 403.986, 1072.292 384.225 M1035.067 448.251 C1045.689 429.955, 1056.976 413.803, 1075.897 384.15 M1035.067 448.251 C1044.384 433.235, 1053.451 417.757, 1075.897 384.15 M1038.135 449.019 C1054.075 424.378, 1069.86 403.397, 1079.502 384.075 M1038.135 449.019 C1054.209 425.13, 1068.532 399.621, 1079.502 384.075 M1041.74 448.944 C1049.577 434.733, 1061.092 419.888, 1083.107 383.999 M1041.74 448.944 C1052.853 431.658, 1064.542 411.806, 1083.107 383.999 M1045.345 448.869 C1052.416 435.524, 1063.827 422.703, 1086.174 384.768 M1045.345 448.869 C1060.079 425.099, 1073.299 403.16, 1086.174 384.768 M1048.949 448.793 C1060.919 427.558, 1072.607 410.906, 1088.167 387.223 M1048.949 448.793 C1061.338 426.896, 1076.864 407.085, 1088.167 387.223 M1052.554 448.718 C1065.206 432.508, 1075.08 414.3, 1088.011 393.052 M1052.554 448.718 C1065.264 428.113, 1079.179 408.934, 1088.011 393.052 M1056.159 448.643 C1067.194 431.154, 1076.037 416.473, 1087.855 398.88 M1056.159 448.643 C1066.239 433.019, 1077.746 415.933, 1087.855 398.88 M1059.764 448.568 C1067.585 438.571, 1076.174 424.912, 1088.237 403.866 M1059.764 448.568 C1067.695 436.168, 1075.48 423.615, 1088.237 403.866 M1063.368 448.493 C1070.707 438.676, 1074.546 428.464, 1088.081 409.695 M1063.368 448.493 C1072.207 434.247, 1080.013 421.667, 1088.081 409.695 M1066.973 448.418 C1075.064 435.701, 1080.965 425.464, 1087.925 415.524 M1066.973 448.418 C1074.558 438.071, 1079.521 428.729, 1087.925 415.524 M1070.578 448.342 C1073.883 442.426, 1077.085 437.175, 1087.769 421.352 M1070.578 448.342 C1076.589 440.524, 1081.487 432.317, 1087.769 421.352 M1074.183 448.267 C1076.005 444.15, 1079.318 438.586, 1088.151 426.338 M1074.183 448.267 C1079.194 440.963, 1084.377 433.543, 1088.151 426.338 M1077.25 449.035 C1081.875 444.138, 1084.349 441.783, 1087.995 432.167 M1077.25 449.035 C1080.877 442.74, 1084.185 436.404, 1087.995 432.167 M1080.855 448.96 C1083.685 445.574, 1084.537 444.479, 1087.839 437.996 M1080.855 448.96 C1083.439 444.674, 1085.688 441.066, 1087.839 437.996" stroke="rgb(236, 236, 255)" stroke-width="1.709" fill="none"></path><path d="M939 383 C987.09 382.442, 1034.15 383.397, 1083 383 M1083 383 C1085.891 383.933, 1084.108 385.484, 1086 386 M1086 386 C1086.396 410.855, 1087.884 432.282, 1086 445 M1086 445 C1085.115 448.385, 1082.961 447.528, 1083 448 M1083 448 C1029.906 447.154, 975.597 450.692, 939 448 M939 448 C936.46 447.287, 936.562 444.395, 936 445 M936 445 C935.099 426.478, 933.956 410.658, 936 386 M936 386 C934.63 383.743, 939.323 384.771, 939 383 M939 383 C939 383, 939 383, 939 383" stroke="rgb(218, 206, 243)" stroke-width="1" fill="none"></path></g><g class="text-container" transform="matrix(1 0 0 1 50 10)"><text style="text-anchor: middle; font-size: 16px; font-weight: 400;font-style: normal;font-weight: 400;font-size: 16px;font-family: Comic Sans MS, cursive;" class="actor actor-box" alignment-baseline="central" dominant-baseline="central" y="405.5" x="961" stroke="rgb(218, 206, 243)" stroke-width="1px" fill="rgb(236, 236, 255)" text-anchor="middle"><tspan dy="0" x="961" stroke="none" stroke-width="1px" fill="rgb(0, 0, 0)" text-anchor="middle" dominant-baseline="central">MeasurementDB</tspan></text></g><g><path d="M644.789 382.724 C644.789 382.724, 644.789 382.724, 644.789 382.724 M644.789 382.724 C644.789 382.724, 644.789 382.724, 644.789 382.724 M643.245 388.347 C644.103 387.823, 645.537 385.677, 649.031 382.822 M643.245 388.347 C645.765 386.554, 647.91 384.411, 649.031 382.822 M643.147 392.588 C645.319 390.475, 650.618 386.082, 653.272 382.919 M643.147 392.588 C647.554 388.512, 651.413 384.654, 653.272 382.919 M643.773 396.139 C649.319 392.881, 654.815 387.405, 657.514 383.017 M643.773 396.139 C648.475 391.156, 653.286 386.956, 657.514 383.017 M643.675 400.381 C648.973 394.459, 654.305 389.522, 661.755 383.115 M643.675 400.381 C650.985 394.012, 656.958 387.666, 661.755 383.115 M643.577 404.622 C652.029 394.921, 660.568 387.469, 665.997 383.213 M643.577 404.622 C652.876 396.566, 661.737 387.609, 665.997 383.213 M643.479 408.864 C648.777 401.573, 655.843 395.171, 670.238 383.311 M643.479 408.864 C653.282 399.337, 662.485 390.271, 670.238 383.311 M643.382 413.105 C652.048 402.295, 665.234 391.412, 675.203 382.718 M643.382 413.105 C656.928 400.014, 669.086 388.878, 675.203 382.718 M643.284 417.347 C652.482 408.966, 665.92 399.555, 679.444 382.815 M643.284 417.347 C656.569 405.225, 669.488 393.309, 679.444 382.815 M643.186 421.588 C653.439 411.637, 666.626 402.434, 683.686 382.913 M643.186 421.588 C652.099 412.258, 662.559 402.135, 683.686 382.913 M643.811 425.139 C658.757 412.61, 672.681 395.992, 687.927 383.011 M643.811 425.139 C661.417 408.42, 679.214 392.568, 687.927 383.011 M643.714 429.381 C655.457 415.075, 671.233 404.27, 692.169 383.109 M643.714 429.381 C660.786 413.123, 677.503 398.275, 692.169 383.109 M643.616 433.622 C652.857 424.402, 664.277 415.139, 696.41 383.206 M643.616 433.622 C663.756 415.399, 684.983 394.79, 696.41 383.206 M643.518 437.864 C657.629 422.355, 673.193 410.006, 700.652 383.304 M643.518 437.864 C663.791 417.418, 686.702 396.423, 700.652 383.304 M643.42 442.105 C654.668 428.088, 667.457 417.27, 704.893 383.402 M643.42 442.105 C658.73 426.83, 675.414 410.174, 704.893 383.402 M643.323 446.347 C667.35 425.348, 692.394 401.932, 709.858 382.809 M643.323 446.347 C669.586 422.755, 695.445 398.229, 709.858 382.809 M644.671 449.207 C659.96 432.878, 676.259 421.528, 714.1 382.907 M644.671 449.207 C661.345 433.281, 678.855 416.656, 714.1 382.907 M648.913 449.305 C669.217 429.324, 690.143 408.248, 718.341 383.005 M648.913 449.305 C665.882 433.636, 680.653 416.476, 718.341 383.005 M653.154 449.402 C675.294 426.916, 695.83 407.351, 722.583 383.102 M653.154 449.402 C678.587 425.106, 704.587 400.055, 722.583 383.102 M657.396 449.5 C681.674 425.704, 706.679 399.132, 726.824 383.2 M657.396 449.5 C681.679 425.932, 705.098 401.999, 726.824 383.2 M662.361 448.907 C678.175 433.803, 692.168 419.985, 731.066 383.298 M662.361 448.907 C688.592 424.713, 714.964 399.214, 731.066 383.298 M666.602 449.005 C686.735 430.048, 704.199 411.774, 735.307 383.396 M666.602 449.005 C692.338 424.414, 716.207 399.144, 735.307 383.396 M670.844 449.103 C689.51 433.019, 707.462 414.999, 739.549 383.493 M670.844 449.103 C690.856 430.045, 711.334 411.901, 739.549 383.493 M675.085 449.201 C702.953 424.503, 727.829 402.02, 744.514 382.901 M675.085 449.201 C700.268 424.268, 726.304 400.134, 744.514 382.901 M679.327 449.298 C706.454 425.972, 730.645 399.832, 748.755 382.998 M679.327 449.298 C706.06 425.457, 730.148 400.665, 748.755 382.998 M683.568 449.396 C711.072 423.389, 734.414 397.673, 752.997 383.096 M683.568 449.396 C698.526 435.189, 712.694 419.755, 752.997 383.096 M687.81 449.494 C711.718 425.165, 736.697 404.343, 757.238 383.194 M687.81 449.494 C704.662 433.472, 722.588 416.95, 757.238 383.194 M692.774 448.901 C708.071 433.883, 721.924 418.292, 761.48 383.292 M692.774 448.901 C707.446 434.56, 723.353 420.452, 761.48 383.292 M697.016 448.999 C714.056 435.799, 725.69 418.063, 765.721 383.389 M697.016 448.999 C723.374 424.872, 748.129 401.536, 765.721 383.389 M701.257 449.097 C717.761 435.371, 733.283 419.605, 769.963 383.487 M701.257 449.097 C722.919 430.336, 742.054 410.61, 769.963 383.487 M705.499 449.194 C728.309 424.77, 752.981 401.647, 774.927 382.894 M705.499 449.194 C719.68 434.803, 734.79 418.855, 774.927 382.894 M709.741 449.292 C730.497 429.501, 753.684 409.173, 779.169 382.992 M709.741 449.292 C733.498 425.569, 759.438 403.16, 779.169 382.992 M713.982 449.39 C734.408 428.502, 754.067 410.207, 783.41 383.09 M713.982 449.39 C731.263 434.058, 748.734 416.131, 783.41 383.09 M718.224 449.488 C732.612 434.592, 745.641 420.85, 787.652 383.187 M718.224 449.488 C735.516 433.478, 752.264 417.559, 787.652 383.187 M722.465 449.585 C746.046 428.471, 766.846 409.127, 791.893 383.285 M722.465 449.585 C747.756 425.935, 772.136 400.456, 791.893 383.285 M727.43 448.992 C744.018 431.198, 762.582 415.189, 796.135 383.383 M727.43 448.992 C748.623 430.641, 768.369 410.044, 796.135 383.383 M731.671 449.09 C757.941 423.98, 782.69 400.358, 800.376 383.481 M731.671 449.09 C751.014 431.542, 768.177 413.125, 800.376 383.481 M735.913 449.188 C763.273 423.564, 787.85 399.621, 804.618 383.578 M735.913 449.188 C752.823 432.844, 769.707 418.762, 804.618 383.578 M740.154 449.286 C764.367 423.821, 789.587 399.907, 809.583 382.986 M740.154 449.286 C758.781 431.929, 776.304 415.405, 809.583 382.986 M744.396 449.383 C756.879 436.719, 772.453 423.063, 813.101 383.774 M744.396 449.383 C766.919 429.226, 789.049 408.737, 813.101 383.774 M748.637 449.481 C761.511 436.839, 776.278 420.728, 814.45 386.634 M748.637 449.481 C768.094 429.754, 788.604 412.69, 814.45 386.634 M752.879 449.579 C773.095 432.274, 789.178 413.102, 815.075 390.185 M752.879 449.579 C767.695 436.108, 782.478 421.914, 815.075 390.185 M757.12 449.677 C774.281 433.242, 787.495 420.328, 814.977 394.427 M757.12 449.677 C774.398 432.911, 791.549 416.763, 814.977 394.427 M762.085 449.084 C772.352 436.148, 785.545 427.027, 814.88 398.668 M762.085 449.084 C780.021 433.089, 797.088 415.594, 814.88 398.668 M766.327 449.182 C785.748 430.115, 805.424 414.59, 814.782 402.91 M766.327 449.182 C784.609 432.665, 801.071 416.396, 814.782 402.91 M770.568 449.279 C786.743 435.069, 801.407 418.924, 814.684 407.151 M770.568 449.279 C783.265 437.123, 795.927 425.848, 814.684 407.151 M774.81 449.377 C785.128 439.336, 795.295 432.096, 814.586 411.393 M774.81 449.377 C785.488 439.038, 797.549 428.14, 814.586 411.393 M779.051 449.475 C790.801 440.541, 799.065 428.026, 814.489 415.634 M779.051 449.475 C786.843 442.459, 796.768 433.285, 814.489 415.634 M783.293 449.573 C793.388 440.974, 800.789 434.633, 814.391 419.876 M783.293 449.573 C789.099 442.553, 796.802 435.988, 814.391 419.876 M787.534 449.67 C795.289 442.553, 806.91 429.7, 814.293 424.117 M787.534 449.67 C793.49 444.535, 798.76 438.882, 814.293 424.117 M792.499 449.078 C801.763 441.668, 810.204 432.397, 814.918 427.668 M792.499 449.078 C797.824 444.381, 803.266 439.305, 814.918 427.668 M796.74 449.175 C801.018 442.527, 807.083 438.786, 814.821 431.91 M796.74 449.175 C801.892 443.085, 808.327 437.528, 814.821 431.91 M800.982 449.273 C805.005 444.544, 810.724 440.057, 814.723 436.151 M800.982 449.273 C803.958 447.026, 806.572 443.779, 814.723 436.151 M805.223 449.371 C807.915 445.286, 811.381 442.472, 814.625 440.393 M805.223 449.371 C808.139 447.372, 810.295 443.402, 814.625 440.393 M809.465 449.469 C811.148 448.577, 812.458 445.764, 814.527 444.634 M809.465 449.469 C810.959 448.192, 812.646 446.18, 814.527 444.634" stroke="rgb(236, 236, 255)" stroke-width="1.398" fill="none"></path><path d="M644.5 383 C710.328 385.066, 772.22 382.697, 811.5 383 M811.5 383 C811.234 381.599, 812.864 382.878, 814.5 386 M814.5 386 C813.999 400.645, 814.633 411.085, 814.5 445 M814.5 445 C815.239 447.567, 812.259 448.038, 811.5 448 M811.5 448 C777.047 445.63, 744.555 448.798, 644.5 448 M644.5 448 C641.677 446.858, 639.738 446.886, 641.5 445 M641.5 445 C643.326 426.852, 643.331 407.376, 641.5 386 M641.5 386 C643.121 385.539, 644.592 382.853, 644.5 383 M644.5 383 C644.5 383, 644.5 383, 644.5 383" stroke="rgb(218, 206, 243)" stroke-width="1" fill="none"></path></g><g class="text-container" transform="matrix(1 0 0 1 50 10)"><text style="text-anchor: middle; font-size: 16px; font-weight: 400;font-style: normal;font-weight: 400;font-size: 16px;font-family: Comic Sans MS, cursive;" class="actor actor-box" alignment-baseline="central" dominant-baseline="central" y="405.5" x="678" stroke="rgb(218, 206, 243)" stroke-width="1px" fill="rgb(236, 236, 255)" text-anchor="middle"><tspan dy="0" x="678" stroke="none" stroke-width="1px" fill="rgb(0, 0, 0)" text-anchor="middle" dominant-baseline="central">MeasurementService</tspan></text></g><g><path d="M368.739 386.289 C368.739 386.289, 368.739 386.289, 368.739 386.289 M368.739 386.289 C368.739 386.289, 368.739 386.289, 368.739 386.289 M369.105 393.351 C372.754 389.74, 373.993 387.415, 377.81 383.695 M369.105 393.351 C371.532 391.676, 373.461 388.875, 377.81 383.695 M368.801 401.155 C375.424 395.859, 381.484 388.683, 384.871 383.33 M368.801 401.155 C373.511 395.625, 380.034 389.691, 384.871 383.33 M369.166 408.217 C377.3 402.553, 381.147 394.027, 391.263 383.707 M369.166 408.217 C375.462 402.35, 380.174 395.801, 391.263 383.707 M368.863 416.021 C381.638 404.685, 390.732 390.6, 398.325 383.341 M368.863 416.021 C376.608 406.995, 386.507 397.812, 398.325 383.341 M369.228 423.083 C376.228 415.834, 385.109 406.569, 404.717 383.718 M369.228 423.083 C382.492 407.506, 395.755 392.788, 404.717 383.718 M368.924 430.887 C379.859 419.583, 389.018 406.56, 411.778 383.353 M368.924 430.887 C378.95 420.423, 387.93 410.184, 411.778 383.353 M369.29 437.949 C378.921 427.069, 390.338 414.813, 418.17 383.73 M369.29 437.949 C385.057 418.641, 402.323 399.937, 418.17 383.73 M369.655 445.01 C383.692 428.995, 401.453 412.992, 425.232 383.364 M369.655 445.01 C382.681 430.373, 394.646 418.093, 425.232 383.364 M374.039 447.616 C388.94 428.692, 407.335 412.568, 431.624 383.741 M374.039 447.616 C390.678 427.478, 408.617 409.007, 431.624 383.741 M380.431 447.993 C399.992 427.903, 418.149 406.462, 438.686 383.376 M380.431 447.993 C393.339 432.405, 407.45 417.193, 438.686 383.376 M387.492 447.627 C405.468 427.635, 424.182 407.138, 445.078 383.753 M387.492 447.627 C401.406 430.353, 415.873 415.478, 445.078 383.753 M393.884 448.004 C414.672 424.968, 439.813 396.955, 452.139 383.387 M393.884 448.004 C412.781 427.833, 431.688 405.272, 452.139 383.387 M400.946 447.639 C419.223 424.802, 438.885 404.142, 458.531 383.764 M400.946 447.639 C420.634 426.305, 439.887 403.512, 458.531 383.764 M407.338 448.016 C428.211 428.138, 445.866 406.631, 465.593 383.399 M407.338 448.016 C429.392 424.659, 448.804 401.717, 465.593 383.399 M414.4 447.65 C427.936 435.421, 436.449 424.457, 471.985 383.776 M414.4 447.65 C426.146 435.047, 438.562 420.15, 471.985 383.776 M420.792 448.027 C439.473 425.568, 460.155 402.944, 479.047 383.41 M420.792 448.027 C436.747 430.177, 452.753 412.049, 479.047 383.41 M427.184 448.404 C443.519 429.125, 459.99 413.827, 485.439 383.787 M427.184 448.404 C440.542 434.106, 452.317 420.312, 485.439 383.787 M434.245 448.038 C448.776 432.261, 464.882 412.885, 492.5 383.421 M434.245 448.038 C457.102 422.085, 479.624 396.642, 492.5 383.421 M440.637 448.416 C456.529 429.443, 470.549 413.327, 498.892 383.799 M440.637 448.416 C459.107 427.334, 479.512 405.082, 498.892 383.799 M447.699 448.05 C469.451 426.252, 487.825 403.962, 505.954 383.433 M447.699 448.05 C465.777 427.787, 484.216 407.854, 505.954 383.433 M454.091 448.427 C470.86 430.403, 486.726 412.124, 512.346 383.81 M454.091 448.427 C476.803 425.28, 497.539 401.215, 512.346 383.81 M461.152 448.061 C480.625 427.038, 499.311 407.787, 518.068 384.93 M461.152 448.061 C482.367 424.366, 503.421 400.424, 518.068 384.93 M467.544 448.438 C481.884 431.777, 493.07 419.108, 519.103 391.249 M467.544 448.438 C478.609 436.669, 489.728 422.721, 519.103 391.249 M474.606 448.073 C483.44 437.356, 494.318 427.055, 519.469 398.31 M474.606 448.073 C490.615 429.296, 506.505 412.509, 519.469 398.31 M480.998 448.45 C496.686 433.21, 509.792 418.592, 519.165 406.115 M480.998 448.45 C490.805 437.308, 500.611 425.051, 519.165 406.115 M488.06 448.084 C496.557 437.318, 504.613 431.428, 519.531 413.176 M488.06 448.084 C500.07 435.313, 510.168 423.091, 519.531 413.176 M494.452 448.461 C498.809 444.561, 504.389 438.074, 519.227 420.981 M494.452 448.461 C502.501 440.603, 509.841 431.801, 519.227 420.981 M501.513 448.096 C508.004 442.376, 517.066 433.406, 518.923 428.785 M501.513 448.096 C508.029 440.567, 512.504 435.762, 518.923 428.785 M507.905 448.473 C512.75 442.945, 516.868 440.823, 519.288 435.846 M507.905 448.473 C511.886 443.559, 516.52 439.45, 519.288 435.846 M514.967 448.107 C516.574 446.394, 517.117 445.161, 518.985 443.651 M514.967 448.107 C516.131 446.517, 517.955 445.224, 518.985 443.651" stroke="rgb(236, 236, 255)" stroke-width="2.967" fill="none"></path><path d="M372 383 C412.29 381.743, 456.994 384.183, 516 383 M516 383 C518.108 383.573, 517.387 384.841, 519 386 M519 386 C519.225 399.951, 518.456 411.41, 519 445 M519 445 C520.57 447.985, 517.928 447.182, 516 448 M516 448 C468.829 449.14, 419.283 446.774, 372 448 M372 448 C371.774 448.001, 368.324 445.776, 369 445 M369 445 C369.197 424.726, 367.372 404.713, 369 386 M369 386 C370.215 385.678, 369.875 382.561, 372 383 M372 383 C372 383, 372 383, 372 383" stroke="rgb(218, 206, 243)" stroke-width="1" fill="none"></path></g><g class="text-container" transform="matrix(1 0 0 1 50 10)"><text style="text-anchor: middle; font-size: 16px; font-weight: 400;font-style: normal;font-weight: 400;font-size: 16px;font-family: Comic Sans MS, cursive;" class="actor actor-box" alignment-baseline="central" dominant-baseline="central" y="405.5" x="394" stroke="rgb(218, 206, 243)" stroke-width="1px" fill="rgb(236, 236, 255)" text-anchor="middle"><tspan dy="0" x="394" stroke="none" stroke-width="1px" fill="rgb(0, 0, 0)" text-anchor="middle" dominant-baseline="central">APIGateway</tspan></text></g><g><path d="M49.958 386.042 C49.958 386.042, 49.958 386.042, 49.958 386.042 M49.958 386.042 C49.958 386.042, 49.958 386.042, 49.958 386.042 M49.963 390.284 C52.737 388.755, 53.213 387.21, 56.32 383.913 M49.963 390.284 C51.678 388.95, 53.195 387.301, 56.32 383.913 M49.968 394.527 C54.023 392.343, 55.659 387.376, 60.563 383.908 M49.968 394.527 C53.634 390.776, 57.805 385.734, 60.563 383.908 M49.973 398.77 C54.722 395.685, 58.532 390.226, 64.805 383.903 M49.973 398.77 C54.055 393.669, 57.639 390.844, 64.805 383.903 M49.978 403.012 C52.636 397.509, 58.645 393.863, 69.048 383.898 M49.978 403.012 C56.627 397.692, 62.866 391.743, 69.048 383.898 M49.983 407.255 C59.78 396.937, 69.774 389.222, 73.291 383.894 M49.983 407.255 C54.707 402.767, 60.114 397.338, 73.291 383.894 M49.988 411.497 C54.744 405.736, 62.836 399.701, 77.533 383.889 M49.988 411.497 C59.79 401.028, 70.612 391.128, 77.533 383.889 M49.993 415.74 C57.467 407.041, 65.017 399.544, 81.776 383.884 M49.993 415.74 C58.195 406.975, 68.715 398.312, 81.776 383.884 M49.997 419.983 C56.735 409.711, 66.305 401.68, 86.018 383.879 M49.997 419.983 C58.286 411.154, 66.671 402.719, 86.018 383.879 M50.002 424.225 C64.335 411.933, 73.104 400.058, 90.261 383.874 M50.002 424.225 C59.283 416.431, 68.172 406.574, 90.261 383.874 M50.007 428.468 C64.917 413.27, 81.487 397.801, 94.504 383.869 M50.007 428.468 C65.295 411.267, 81.938 394.503, 94.504 383.869 M50.012 432.711 C67.548 415.104, 89.254 395.454, 98.746 383.864 M50.012 432.711 C61.086 421.893, 73.676 408.904, 98.746 383.864 M50.017 436.953 C69.431 414.707, 92.244 396.435, 102.989 383.859 M50.017 436.953 C71.125 416.027, 91.192 396.202, 102.989 383.859 M50.022 441.196 C66.47 427.796, 79.713 410.82, 107.232 383.855 M50.022 441.196 C69.595 420.349, 89.663 400.484, 107.232 383.855 M50.027 445.439 C69.427 424.759, 92.128 403.083, 111.474 383.85 M50.027 445.439 C63.934 433.344, 76.266 420.432, 111.474 383.85 M52.15 447.557 C73.118 426.371, 92.996 406.786, 115.717 383.845 M52.15 447.557 C64.24 435.594, 77.181 422.139, 115.717 383.845 M56.393 447.553 C71.773 432.682, 90.993 413.062, 119.96 383.84 M56.393 447.553 C72.946 430.862, 90.703 414.258, 119.96 383.84 M60.636 447.548 C85.765 421.453, 109.797 396.989, 124.202 383.835 M60.636 447.548 C79.511 429.332, 98.657 409.508, 124.202 383.835 M64.878 447.543 C81.543 428.923, 101.766 413.738, 128.445 383.83 M64.878 447.543 C81.409 431.223, 98.543 413.521, 128.445 383.83 M69.121 447.538 C87.545 426.604, 107.039 408.923, 132.687 383.825 M69.121 447.538 C86.855 429.241, 106.15 410.806, 132.687 383.825 M73.364 447.533 C87.246 435.295, 101.906 421.027, 136.93 383.821 M73.364 447.533 C96.639 425.3, 119.672 401.018, 136.93 383.821 M77.606 447.528 C102.807 425.382, 124.86 402.011, 141.173 383.816 M77.606 447.528 C91.525 435.036, 103.162 421.559, 141.173 383.816 M81.849 447.523 C101.458 427.453, 117.578 410.09, 145.415 383.811 M81.849 447.523 C99.718 430.6, 115.905 413.857, 145.415 383.811 M86.091 447.519 C108.987 420.953, 133.666 396.715, 149.658 383.806 M86.091 447.519 C99.348 434.22, 111.994 420.68, 149.658 383.806 M89.628 448.222 C108.179 426.714, 131.583 408.047, 153.901 383.801 M89.628 448.222 C109.285 427.798, 130.66 408.448, 153.901 383.801 M93.87 448.217 C106.917 432.706, 123.171 420.436, 158.143 383.796 M93.87 448.217 C111.667 429.377, 131.257 410.834, 158.143 383.796 M98.113 448.212 C123.868 423.519, 146.135 397.765, 162.386 383.791 M98.113 448.212 C113.014 433.58, 126.953 419.252, 162.386 383.791 M102.356 448.207 C124.861 426.263, 145.826 404.491, 166.629 383.787 M102.356 448.207 C116.461 435.288, 128.819 423.076, 166.629 383.787 M106.598 448.202 C130.036 422.898, 158.59 397.863, 170.871 383.782 M106.598 448.202 C131.838 422.688, 158.689 396.123, 170.871 383.782 M110.841 448.197 C131.127 427.129, 149.369 409.642, 175.114 383.777 M110.841 448.197 C126.569 431.439, 142.808 414.7, 175.114 383.777 M115.084 448.192 C137.098 427.277, 159.068 401.805, 179.357 383.772 M115.084 448.192 C129.337 433.052, 146.042 416.616, 179.357 383.772 M119.326 448.188 C135.038 430.304, 153.967 414.044, 183.599 383.767 M119.326 448.188 C138.006 428.866, 157.554 409.41, 183.599 383.767 M123.569 448.183 C137.899 435.296, 153.589 420.315, 187.842 383.762 M123.569 448.183 C137.564 434.21, 152.052 418.499, 187.842 383.762 M127.812 448.178 C149.895 424.141, 173.943 401.807, 192.084 383.757 M127.812 448.178 C148.306 428.592, 167.348 408.85, 192.084 383.757 M132.054 448.173 C155.666 425.864, 175.999 404.868, 196.327 383.752 M132.054 448.173 C145.876 432.95, 160.647 419.808, 196.327 383.752 M136.297 448.168 C154.413 432.123, 168.158 415.324, 199.157 385.163 M136.297 448.168 C162.354 422.577, 187.164 398.595, 199.157 385.163 M140.539 448.163 C156.4 433.252, 169.834 419.338, 200.575 387.99 M140.539 448.163 C155.103 434.305, 168.969 420.17, 200.575 387.99 M144.782 448.158 C165.695 426.506, 185.332 407.027, 200.579 392.233 M144.782 448.158 C166.439 425.963, 190.105 403.97, 200.579 392.233 M149.025 448.153 C164.034 435.059, 176.152 419.789, 200.584 396.476 M149.025 448.153 C164.311 432.494, 179.379 417.499, 200.584 396.476 M153.267 448.149 C165.671 435.418, 178.291 421.939, 200.589 400.718 M153.267 448.149 C165.252 437.192, 174.798 425.012, 200.589 400.718 M157.51 448.144 C174.45 431.997, 190.344 413.58, 200.594 404.961 M157.51 448.144 C172.593 432.626, 185.65 418.684, 200.594 404.961 M161.753 448.139 C172.13 441.52, 178.733 432.415, 200.599 409.203 M161.753 448.139 C172.846 437.507, 183.887 424.384, 200.599 409.203 M165.995 448.134 C173.876 439.787, 182.891 432.317, 200.604 413.446 M165.995 448.134 C173.545 440.889, 179.381 432.809, 200.604 413.446 M170.238 448.129 C178.347 438.673, 192.439 428.076, 200.609 417.689 M170.238 448.129 C180.826 437.62, 192.759 426.522, 200.609 417.689 M174.481 448.124 C182.592 441.422, 188.064 431.92, 200.613 421.931 M174.481 448.124 C182.338 439.508, 190.973 430.985, 200.613 421.931 M178.723 448.119 C187.625 441.408, 194.816 431.864, 200.618 426.174 M178.723 448.119 C185.699 439.449, 193.999 432.772, 200.618 426.174 M182.966 448.115 C187.914 445.253, 191.443 437.218, 200.623 430.417 M182.966 448.115 C186.695 444.281, 192.13 438.585, 200.623 430.417 M187.208 448.11 C191.59 442.933, 195.338 442.351, 200.628 434.659 M187.208 448.11 C190.827 443.241, 195.866 438.373, 200.628 434.659 M191.451 448.105 C195.057 445.946, 197.934 443.35, 200.633 438.902 M191.451 448.105 C194.368 445.482, 196.032 442.595, 200.633 438.902 M195.694 448.1 C196.294 447.283, 197.689 445.908, 200.638 443.145 M195.694 448.1 C197.301 446.872, 198.054 445.68, 200.638 443.145" stroke="rgb(236, 236, 255)" stroke-width="1.426" fill="none"></path><path d="M53 383 C111.644 383.199, 166.078 383.23, 197 383 M53 383 C91.107 382.389, 129.131 381.633, 197 383 M197 383 C199.554 384.386, 198.22 383.342, 200 386 M197 383 C199.387 383.629, 200.459 386.084, 200 386 M200 386 C200.571 400.449, 198.797 413.919, 200 445 M200 386 C199.785 402.597, 200.99 421.687, 200 445 M200 445 C198.15 445.228, 197.516 449.437, 197 448 M200 445 C200.101 445.69, 200.618 446.886, 197 448 M197 448 C145.078 447.002, 96.035 445.784, 53 448 M197 448 C158.934 448.82, 123.392 448.618, 53 448 M53 448 C50.971 448.887, 50.33 448.25, 50 445 M53 448 C50.124 446.098, 51.545 444.372, 50 445 M50 445 C50.606 425.396, 49.261 408.069, 50 386 M50 445 C50.859 426.062, 50.798 407.149, 50 386 M50 386 C50.285 385.563, 53.605 382.555, 53 383 M50 386 C49.643 384.459, 50.756 384.884, 53 383 M53 383 C53 383, 53 383, 53 383 M53 383 C53 383, 53 383, 53 383" stroke="rgb(218, 206, 243)" stroke-width="1" fill="none"></path></g><g class="text-container" transform="matrix(1 0 0 1 50 10)"><text style="text-anchor: middle; font-size: 16px; font-weight: 400;font-style: normal;font-weight: 400;font-size: 16px;font-family: Comic Sans MS, cursive;" class="actor actor-box" alignment-baseline="central" dominant-baseline="central" y="405.5" x="75" stroke="rgb(218, 206, 243)" stroke-width="1px" fill="rgb(236, 236, 255)" text-anchor="middle"><tspan dy="0" x="75" stroke="none" stroke-width="1px" fill="rgb(0, 0, 0)" text-anchor="middle" dominant-baseline="central">Client</tspan></text></g><g><path d="M1010.737 74.659 C1009.499 197.254, 1010.413 317.501, 1010.663 382.842 M1010.799 75.206 C1010.048 171.506, 1010.751 269.44, 1011.302 383.094" stroke="rgb(218, 206, 243)" stroke-width="2" fill="none"></path></g><g><path d="M938.834 10.154 C938.834 10.154, 938.834 10.154, 938.834 10.154 M938.834 10.154 C938.834 10.154, 938.834 10.154, 938.834 10.154 M936.469 16.431 C938.555 14.196, 942.393 11.777, 943.073 10.317 M936.469 16.431 C938.592 14.548, 940.717 12.638, 943.073 10.317 M936.306 20.671 C940.98 17.909, 941.787 14.313, 948.047 9.801 M936.306 20.671 C940.507 16.306, 944.555 13.313, 948.047 9.801 M936.877 24.231 C939.727 21.623, 947.115 13.15, 952.286 9.964 M936.877 24.231 C941.405 20.916, 945.814 16.443, 952.286 9.964 M936.714 28.471 C944.443 21.2, 947.295 15.904, 956.526 10.127 M936.714 28.471 C941.047 23.466, 947.484 19.062, 956.526 10.127 M936.55 32.71 C945.615 25.907, 952.038 17.682, 960.765 10.29 M936.55 32.71 C942.724 27.348, 947.879 21.894, 960.765 10.29 M936.387 36.95 C946.515 30.041, 954.687 23.143, 965.739 9.774 M936.387 36.95 C945.028 28.901, 952.204 22.54, 965.739 9.774 M936.224 41.189 C943.826 35.855, 948.927 29.541, 969.978 9.937 M936.224 41.189 C943.434 32.455, 951.555 26.341, 969.978 9.937 M936.795 44.749 C951.045 32.022, 961.22 22.472, 974.218 10.1 M936.795 44.749 C946.998 34.785, 956.019 25.767, 974.218 10.1 M936.632 48.989 C950.632 33.637, 966.006 22.793, 978.457 10.264 M936.632 48.989 C947.594 37.76, 958.976 27.997, 978.457 10.264 M936.468 53.228 C950.597 39.072, 963.689 29.563, 983.43 9.747 M936.468 53.228 C947.774 42.324, 958.917 32.392, 983.43 9.747 M936.305 57.468 C953.077 45.416, 968.106 31.211, 987.67 9.911 M936.305 57.468 C955.513 39.266, 975.347 20.946, 987.67 9.911 M936.876 61.028 C952.065 47.028, 969.075 32.669, 991.909 10.074 M936.876 61.028 C952.35 46.499, 968.964 30.848, 991.909 10.074 M936.713 65.267 C949.619 52.986, 962.086 40.594, 996.149 10.237 M936.713 65.267 C954.865 48.558, 973.01 31.645, 996.149 10.237 M936.549 69.507 C955.938 50.967, 974.787 33.57, 1000.388 10.4 M936.549 69.507 C954.267 52.589, 971.081 36.229, 1000.388 10.4 M937.12 73.067 C953.295 56.495, 970.177 40.521, 1005.362 9.884 M937.12 73.067 C955.907 56.266, 972.981 38.479, 1005.362 9.884 M939.158 75.268 C954.078 60.939, 974.086 43.923, 1009.601 10.047 M939.158 75.268 C959.215 56.022, 978.538 38.539, 1009.601 10.047 M944.131 74.752 C958.758 63.132, 971.516 50.414, 1013.841 10.21 M944.131 74.752 C965.563 56.252, 985.556 36.541, 1013.841 10.21 M948.371 74.915 C971.768 49.692, 997.256 25.634, 1018.08 10.373 M948.371 74.915 C965.348 59.469, 981.5 44.817, 1018.08 10.373 M952.61 75.078 C980.505 48.346, 1006.661 25.605, 1023.053 9.857 M952.61 75.078 C976.357 51.436, 1000.562 29.922, 1023.053 9.857 M956.85 75.242 C980.875 50.555, 1007.103 30.687, 1027.293 10.02 M956.85 75.242 C975.261 56.506, 995.244 38.522, 1027.293 10.02 M961.823 74.725 C978.337 59.613, 993.196 47.168, 1031.532 10.184 M961.823 74.725 C985.462 52.895, 1007.393 30.295, 1031.532 10.184 M966.063 74.889 C993.079 52.34, 1015.452 26.249, 1035.772 10.347 M966.063 74.889 C984.929 58.648, 1002.479 41.378, 1035.772 10.347 M970.302 75.052 C989.323 56.803, 1009.978 37.807, 1040.011 10.51 M970.302 75.052 C997.552 50.335, 1023.044 25.664, 1040.011 10.51 M974.542 75.215 C1002.078 49.689, 1026.822 28.782, 1044.985 9.994 M974.542 75.215 C1000.704 51.293, 1025.559 28.027, 1044.985 9.994 M979.515 74.699 C999.762 56.482, 1016.256 43.15, 1049.224 10.157 M979.515 74.699 C999.467 55.785, 1019.536 37.711, 1049.224 10.157 M983.754 74.862 C1000.275 59.898, 1018.83 44.15, 1053.464 10.32 M983.754 74.862 C1005.728 55.45, 1027.232 35.893, 1053.464 10.32 M987.994 75.025 C1007.12 54.324, 1030.55 33.02, 1057.703 10.483 M987.994 75.025 C1015.325 50.755, 1041.212 24.573, 1057.703 10.483 M992.233 75.188 C1017.357 50.061, 1046.78 27.435, 1062.676 9.967 M992.233 75.188 C1009.666 58.313, 1027.734 41.94, 1062.676 9.967 M996.473 75.351 C1018.705 52.439, 1044.62 30.898, 1066.916 10.13 M996.473 75.351 C1017.107 55.931, 1038.14 37.646, 1066.916 10.13 M1001.446 74.835 C1028.67 50.979, 1052.274 24.903, 1071.155 10.294 M1001.446 74.835 C1023.961 54.128, 1048.003 32.722, 1071.155 10.294 M1005.686 74.998 C1032.141 52.257, 1055.707 30.22, 1075.395 10.457 M1005.686 74.998 C1026.554 54.772, 1047.139 34.239, 1075.395 10.457 M1009.925 75.162 C1025.101 59.447, 1043.945 43.062, 1080.368 9.941 M1009.925 75.162 C1033.623 51.745, 1059.242 28.127, 1080.368 9.941 M1014.165 75.325 C1028.726 60.39, 1044.93 45.636, 1084.608 10.104 M1014.165 75.325 C1030.963 59.657, 1047.071 43.737, 1084.608 10.104 M1019.138 74.809 C1040.475 54.587, 1062.082 35.279, 1085.912 12.984 M1019.138 74.809 C1040.809 55.016, 1063.642 33.664, 1085.912 12.984 M1023.378 74.972 C1045.397 56.006, 1063.296 38.199, 1086.483 16.545 M1023.378 74.972 C1044.161 56.72, 1064.593 37.419, 1086.483 16.545 M1027.617 75.135 C1045.037 60.184, 1061.58 45.63, 1086.32 20.784 M1027.617 75.135 C1044.897 60.139, 1060.164 44.81, 1086.32 20.784 M1031.857 75.298 C1052.188 56.909, 1072.785 37.131, 1086.89 24.344 M1031.857 75.298 C1051.573 57.517, 1070.658 37.698, 1086.89 24.344 M1036.096 75.461 C1046.292 64.569, 1056.212 55.775, 1086.727 28.584 M1036.096 75.461 C1051.854 60.802, 1067.743 47.394, 1086.727 28.584 M1041.069 74.945 C1055.656 58.561, 1073.649 46.071, 1086.564 32.823 M1041.069 74.945 C1053.772 63.96, 1064.994 52.782, 1086.564 32.823 M1045.309 75.108 C1060.211 63.299, 1073.917 49.294, 1086.401 37.063 M1045.309 75.108 C1060.791 60.111, 1077.264 46.511, 1086.401 37.063 M1049.548 75.271 C1059.586 64.868, 1072.68 55.13, 1086.237 41.302 M1049.548 75.271 C1061.912 64.045, 1074.673 50.47, 1086.237 41.302 M1053.788 75.435 C1064.453 68.384, 1072.598 58.05, 1086.808 44.862 M1053.788 75.435 C1061.621 70.104, 1067.787 63.462, 1086.808 44.862 M1058.761 74.918 C1070.509 66.915, 1078.106 56.449, 1086.645 49.102 M1058.761 74.918 C1065.454 68.23, 1073.332 61.825, 1086.645 49.102 M1063.001 75.082 C1072.889 67.067, 1078.365 58.416, 1086.482 53.341 M1063.001 75.082 C1070.343 67.504, 1077.858 60.61, 1086.482 53.341 M1067.24 75.245 C1069.628 73.117, 1073.762 68.495, 1086.318 57.581 M1067.24 75.245 C1073.569 68.37, 1081.195 61.891, 1086.318 57.581 M1071.48 75.408 C1074.963 70.138, 1081.36 67.051, 1086.155 61.82 M1071.48 75.408 C1075.752 71.472, 1080.696 67.368, 1086.155 61.82 M1076.453 74.892 C1081.256 72.423, 1082.763 68.762, 1086.726 65.38 M1076.453 74.892 C1080.144 70.972, 1083.852 68.009, 1086.726 65.38 M1080.692 75.055 C1082.645 73.772, 1084.491 71.948, 1086.563 69.62 M1080.692 75.055 C1082.527 72.928, 1084.881 70.663, 1086.563 69.62" stroke="rgb(236, 236, 255)" stroke-width="1.205" fill="none"></path><path d="M939 10 C969.746 8.836, 1003.417 9.506, 1083 10 M939 10 C981.26 8.879, 1023.274 10.307, 1083 10 M1083 10 C1084.152 8.614, 1087.713 9.796, 1086 13 M1083 10 C1086.133 11.594, 1086.706 12.755, 1086 13 M1086 13 C1085.9 34.399, 1087.052 54.633, 1086 72 M1086 13 C1086.294 28.987, 1086.02 42.564, 1086 72 M1086 72 C1086.103 72.873, 1083.261 74.511, 1083 75 M1086 72 C1084.051 71.698, 1085.208 76.988, 1083 75 M1083 75 C1030.43 76.552, 979.219 74.35, 939 75 M1083 75 C1039.934 75.94, 996.766 75.524, 939 75 M939 75 C935.988 76.82, 934.147 73.487, 936 72 M939 75 C938.907 74.613, 937.129 72.963, 936 72 M936 72 C934.027 49.48, 935.048 27.252, 936 13 M936 72 C935.834 48.944, 935.673 26.245, 936 13 M936 13 C935.268 10.017, 938.501 8.759, 939 10 M936 13 C935.364 12.176, 937.725 8.971, 939 10 M939 10 C939 10, 939 10, 939 10 M939 10 C939 10, 939 10, 939 10" stroke="rgb(218, 206, 243)" stroke-width="1" fill="none"></path></g><g class="text-container" transform="matrix(1 0 0 1 50 10)"><text style="text-anchor: middle; font-size: 16px; font-weight: 400;font-style: normal;font-weight: 400;font-size: 16px;font-family: Comic Sans MS, cursive;" class="actor actor-box" alignment-baseline="central" dominant-baseline="central" y="32.5" x="961" stroke="rgb(218, 206, 243)" stroke-width="1px" fill="rgb(236, 236, 255)" text-anchor="middle"><tspan dy="0" x="961" stroke="none" stroke-width="1px" fill="rgb(0, 0, 0)" text-anchor="middle" dominant-baseline="central">MeasurementDB</tspan></text></g><g><path d="M729.168 76.084 C728.208 147.25, 729.047 218.017, 727.628 382.4" stroke="rgb(218, 206, 243)" stroke-width="2" fill="none"></path></g><g><path d="M641.417 13.086 C641.417 13.086, 641.417 13.086, 641.417 13.086 M641.417 13.086 C641.417 13.086, 641.417 13.086, 641.417 13.086 M641.518 18.741 C642.573 17.12, 644.195 15.362, 647.073 12.985 M641.518 18.741 C643.255 17.267, 644.2 15.817, 647.073 12.985 M641.619 24.397 C643.308 23.518, 646.55 17.922, 652.729 12.884 M641.619 24.397 C644.695 20.768, 649.423 16.472, 652.729 12.884 M641.719 30.053 C648.001 24.3, 655.776 17.941, 658.385 12.784 M641.719 30.053 C645.954 24.621, 651.206 20.413, 658.385 12.784 M641.82 35.709 C648.39 28.613, 655.403 24.527, 664.041 12.683 M641.82 35.709 C649.252 26.526, 657.73 19.493, 664.041 12.683 M641.226 42.085 C652.311 30.57, 661.122 20.306, 669.697 12.583 M641.226 42.085 C651.205 33.647, 658.935 23.968, 669.697 12.583 M641.326 47.741 C654.82 33.503, 665.597 22.489, 675.353 12.482 M641.326 47.741 C650.083 40.072, 657.414 31.389, 675.353 12.482 M641.427 53.397 C649.89 45.546, 656.703 36.799, 680.315 13.101 M641.427 53.397 C653.646 41.532, 664.615 29.181, 680.315 13.101 M641.528 59.053 C657.072 44.986, 673.219 29.843, 685.971 13.001 M641.528 59.053 C655.719 46.039, 668.591 32.238, 685.971 13.001 M641.628 64.709 C655.043 52.701, 667.34 38.589, 691.627 12.9 M641.628 64.709 C656.474 49.148, 671.961 32.133, 691.627 12.9 M641.729 70.365 C665.717 49.375, 687.263 24.777, 697.283 12.799 M641.729 70.365 C653.767 56.926, 667.354 44.384, 697.283 12.799 M643.913 73.862 C662.959 56.193, 681.173 39.517, 702.939 12.699 M643.913 73.862 C660.203 57.167, 676.817 41.064, 702.939 12.699 M646.096 77.359 C661.87 63.931, 677.362 45.263, 708.595 12.598 M646.096 77.359 C660.152 64.223, 675.86 48.596, 708.595 12.598 M651.752 77.259 C671.625 58.198, 687.775 39.753, 714.251 12.498 M651.752 77.259 C672.358 57.475, 692.196 36.947, 714.251 12.498 M657.408 77.158 C672.937 62.022, 688.461 48.004, 719.212 13.117 M657.408 77.158 C679.393 53.71, 700.192 31.704, 719.212 13.117 M663.064 77.058 C677.853 62.999, 688.396 48.686, 724.868 13.016 M663.064 77.058 C677.689 61.138, 694.087 45.162, 724.868 13.016 M668.026 77.677 C690.764 54.923, 712.641 32.988, 730.524 12.916 M668.026 77.677 C682.123 64.139, 696.031 50.405, 730.524 12.916 M673.682 77.576 C695.168 55.654, 718.353 31.441, 736.18 12.815 M673.682 77.576 C691.741 58.256, 709.854 39.397, 736.18 12.815 M679.338 77.475 C695.071 61.684, 708.201 47.685, 741.836 12.714 M679.338 77.475 C702.126 53.437, 723.925 32.019, 741.836 12.714 M684.994 77.375 C704.751 57.355, 725.064 37.742, 747.492 12.614 M684.994 77.375 C697.541 64.531, 711.472 51.314, 747.492 12.614 M690.65 77.274 C709.442 56.314, 731.141 36.831, 752.453 13.233 M690.65 77.274 C705.883 60.098, 722.29 44.6, 752.453 13.233 M696.306 77.174 C719.221 54.435, 737.297 36.013, 758.109 13.132 M696.306 77.174 C715.652 57.858, 732.416 40.716, 758.109 13.132 M701.267 77.793 C717.276 62.343, 731.291 48.506, 763.765 13.032 M701.267 77.793 C715.252 63.411, 728.145 48.017, 763.765 13.032 M706.923 77.692 C731.705 52.385, 750.83 30.398, 769.421 12.931 M706.923 77.692 C727.717 54.902, 748.978 32.368, 769.421 12.931 M712.579 77.592 C737.944 53.592, 762.236 26.304, 775.077 12.831 M712.579 77.592 C728.373 60.412, 746.649 41.951, 775.077 12.831 M718.235 77.491 C731.5 59.487, 748.96 44.271, 780.733 12.73 M718.235 77.491 C732.42 61.931, 748.193 46.985, 780.733 12.73 M723.891 77.39 C744.566 58.765, 761.751 37.424, 786.389 12.63 M723.891 77.39 C744.825 55.267, 766.021 34.094, 786.389 12.63 M729.547 77.29 C745.959 60.147, 761.835 41.822, 791.351 13.249 M729.547 77.29 C753.211 53.741, 776.009 30.011, 791.351 13.249 M735.203 77.189 C757.262 57.165, 776.211 33.786, 797.007 13.148 M735.203 77.189 C756.31 55.903, 778.705 33.03, 797.007 13.148 M740.164 77.808 C762.479 53.777, 787.796 26.429, 802.663 13.047 M740.164 77.808 C758.531 57.812, 776.186 40.195, 802.663 13.047 M745.82 77.708 C764.196 58.812, 780.09 38.993, 808.319 12.947 M745.82 77.708 C763.491 60.433, 781.728 40.847, 808.319 12.947 M751.476 77.607 C774.069 57.25, 792.828 35.104, 814.669 12.127 M751.476 77.607 C770.563 56.496, 791.373 37.599, 814.669 12.127 M757.132 77.507 C776.715 54.548, 799.225 33.075, 816.853 15.624 M757.132 77.507 C779.926 53.4, 802.075 32.03, 816.853 15.624 M762.788 77.406 C781.317 60.628, 798.091 40.412, 816.953 21.28 M762.788 77.406 C781.847 58.016, 802.126 37.047, 816.953 21.28 M768.444 77.305 C787.971 59.22, 807.168 39.32, 817.054 26.936 M768.444 77.305 C778.248 65.953, 789.31 56.483, 817.054 26.936 M773.406 77.924 C782.384 68.973, 794.856 57.636, 817.154 32.592 M773.406 77.924 C784.798 66.292, 796.703 55.207, 817.154 32.592 M779.062 77.824 C788.503 68.078, 799.275 56.15, 817.255 38.248 M779.062 77.824 C792.123 63.929, 805.52 49.269, 817.255 38.248 M784.718 77.723 C795.984 65.981, 810.332 50.328, 816.661 44.623 M784.718 77.723 C792.243 68.848, 800.988 62.475, 816.661 44.623 M790.374 77.623 C797.262 72.057, 803.067 64.01, 816.762 50.279 M790.374 77.623 C798.251 70.635, 803.725 62.78, 816.762 50.279 M796.03 77.522 C804.522 67.798, 811.013 61.746, 816.862 55.935 M796.03 77.522 C805.238 68.962, 813.395 59.711, 816.862 55.935 M801.686 77.422 C806.539 69.542, 813.196 66.747, 816.963 61.591 M801.686 77.422 C807.008 72.875, 811.928 67.386, 816.963 61.591 M807.342 77.321 C809.803 74.57, 813.977 72.084, 817.063 67.247 M807.342 77.321 C811.108 74.567, 814.27 70.805, 817.063 67.247" stroke="rgb(236, 236, 255)" stroke-width="2.759" fill="none"></path><path d="M644.5 10 C702.537 9.405, 761.738 8.569, 811.5 10 M644.5 10 C688.153 8.016, 732.511 9.076, 811.5 10 M811.5 10 C814.188 8.53, 816.063 13.415, 814.5 13 M811.5 10 C812.844 10.229, 812.907 11.617, 814.5 13 M814.5 13 C812.696 35.539, 815.844 56.664, 814.5 72 M814.5 13 C814.239 33.595, 814.407 52.266, 814.5 72 M814.5 72 C813.769 71.699, 811.469 73.985, 811.5 75 M814.5 72 C812.746 73.202, 814.692 74.743, 811.5 75 M811.5 75 C761.687 75.679, 712.884 74.237, 644.5 75 M811.5 75 C747.362 73.926, 683.363 75.809, 644.5 75 M644.5 75 C643.545 75.738, 639.983 71.847, 641.5 72 M644.5 75 C644.261 76.41, 640.47 73.868, 641.5 72 M641.5 72 C641.86 54.37, 640.908 35.067, 641.5 13 M641.5 72 C641.929 56.963, 642.044 40.627, 641.5 13 M641.5 13 C641.072 10.271, 641.716 8.486, 644.5 10 M641.5 13 C642.316 9.454, 644.788 8.204, 644.5 10 M644.5 10 C644.5 10, 644.5 10, 644.5 10 M644.5 10 C644.5 10, 644.5 10, 644.5 10" stroke="rgb(218, 206, 243)" stroke-width="1" fill="none"></path></g><g class="text-container" transform="matrix(1 0 0 1 50 10)"><text style="text-anchor: middle; font-size: 16px; font-weight: 400;font-style: normal;font-weight: 400;font-size: 16px;font-family: Comic Sans MS, cursive;" class="actor actor-box" alignment-baseline="central" dominant-baseline="central" y="32.5" x="678" stroke="rgb(218, 206, 243)" stroke-width="1px" fill="rgb(236, 236, 255)" text-anchor="middle"><tspan dy="0" x="678" stroke="none" stroke-width="1px" fill="rgb(0, 0, 0)" text-anchor="middle" dominant-baseline="central">MeasurementService</tspan></text></g><g><path d="M444.981 75.157 C442.207 156.808, 443.764 236.451, 443.027 384.096" stroke="rgb(218, 206, 243)" stroke-width="2" fill="none"></path></g><g><path d="M368.843 13.217 C368.843 13.217, 368.843 13.217, 368.843 13.217 M368.843 13.217 C368.843 13.217, 368.843 13.217, 368.843 13.217 M368.805 21.82 C370.543 17.265, 374.099 14.177, 376.993 10.464 M368.805 21.82 C371.672 17.591, 374.332 14.47, 376.993 10.464 M368.767 30.422 C375.547 21.77, 376.88 14.917, 383.388 10.143 M368.767 30.422 C373.74 23.045, 380.12 15.041, 383.388 10.143 M368.728 39.024 C374.001 34.14, 376.054 26.012, 389.783 9.823 M368.728 39.024 C376.348 27.773, 383.809 17.581, 389.783 9.823 M369.275 46.815 C377.522 33.957, 387.877 19.444, 395.593 10.314 M369.275 46.815 C376.273 39.013, 382.979 29.996, 395.593 10.314 M369.237 55.417 C376.085 43.886, 384.497 34.684, 401.989 9.994 M369.237 55.417 C381.75 37.363, 394.457 19.724, 401.989 9.994 M369.198 64.02 C384.416 46.654, 396.33 28.102, 407.799 10.485 M369.198 64.02 C384.676 43.086, 399.473 20.802, 407.799 10.485 M369.16 72.622 C378.195 59.597, 387.738 47.248, 414.194 10.164 M369.16 72.622 C379.838 57.209, 391.773 43.029, 414.194 10.164 M373.8 74.735 C385.836 60.668, 395.859 43.948, 420.004 10.655 M373.8 74.735 C391.424 50.376, 409.933 23.624, 420.004 10.655 M379.611 75.226 C396.766 52.929, 413.281 28.269, 426.399 10.335 M379.611 75.226 C390.246 59.719, 401.504 43.87, 426.399 10.335 M386.006 74.906 C404.242 51.175, 424.297 24.176, 432.794 10.015 M386.006 74.906 C398.256 57.182, 410.858 38.795, 432.794 10.015 M391.816 75.397 C400.552 61.374, 412.276 46.12, 438.605 10.506 M391.816 75.397 C407.527 54.2, 423.658 32.702, 438.605 10.506 M398.211 75.076 C409.16 60.4, 422.23 41.245, 445 10.185 M398.211 75.076 C411.773 58.261, 424.685 39.72, 445 10.185 M404.606 74.756 C421.424 52.771, 438.015 26.251, 450.81 10.676 M404.606 74.756 C414.496 62.242, 423.774 47.016, 450.81 10.676 M410.416 75.247 C423.782 52.296, 438.58 33.116, 457.205 10.356 M410.416 75.247 C420.032 61.053, 431.335 44.707, 457.205 10.356 M416.812 74.927 C430.748 55.068, 442.544 38.817, 463.6 10.036 M416.812 74.927 C434.979 50.308, 454.023 23.548, 463.6 10.036 M422.622 75.418 C441.114 52.05, 455.812 29.008, 469.411 10.527 M422.622 75.418 C439.75 51.301, 456.183 27.162, 469.411 10.527 M429.017 75.097 C436.304 60.943, 447.149 49.344, 475.806 10.206 M429.017 75.097 C444.54 54.395, 458.691 32.671, 475.806 10.206 M435.412 74.777 C446.325 57.341, 460.65 42.483, 481.616 10.697 M435.412 74.777 C449.15 54.658, 464.75 34.618, 481.616 10.697 M441.222 75.268 C454.259 59.387, 466.25 43.355, 488.011 10.377 M441.222 75.268 C452.333 59.631, 464.371 42.914, 488.011 10.377 M447.617 74.948 C463.005 52.337, 479.747 34.061, 494.406 10.057 M447.617 74.948 C462.757 54.884, 478.42 32.201, 494.406 10.057 M453.428 75.439 C464.623 58.919, 477.435 43.428, 500.216 10.548 M453.428 75.439 C465.955 58.804, 477.861 40.768, 500.216 10.548 M459.823 75.118 C475.32 52.905, 489.375 32.101, 506.611 10.227 M459.823 75.118 C469.752 60.446, 480.101 47.08, 506.611 10.227 M466.218 74.798 C481.054 54.105, 498.036 33.995, 512.422 10.718 M466.218 74.798 C480.628 56.759, 492.379 38.712, 512.422 10.718 M472.028 75.289 C486.123 55.846, 496.682 37.428, 518.232 11.209 M472.028 75.289 C487.212 52.637, 502.963 31.337, 518.232 11.209 M478.423 74.969 C488.943 61.192, 498.423 48.471, 519.363 18.189 M478.423 74.969 C489.257 59.745, 500.8 43.841, 519.363 18.189 M484.234 75.46 C493.682 64.209, 500.271 53.071, 519.325 26.791 M484.234 75.46 C497.624 57.459, 510.413 39.001, 519.325 26.791 M490.629 75.139 C501.767 63.006, 509.544 47.722, 519.287 35.394 M490.629 75.139 C496.5 65.848, 502.887 58.12, 519.287 35.394 M497.024 74.819 C504.876 63.614, 511.059 55.784, 519.248 43.996 M497.024 74.819 C504.626 64.724, 513.363 52.795, 519.248 43.996 M502.834 75.31 C506.659 70.256, 512.242 61.311, 519.21 52.598 M502.834 75.31 C508.941 67.359, 513.629 59.423, 519.21 52.598 M509.229 74.99 C512.27 68.66, 516.328 64.527, 519.172 61.2 M509.229 74.99 C511.618 71.25, 514.545 69.345, 519.172 61.2 M515.039 75.481 C516.83 73.434, 517.454 71.868, 519.133 69.803 M515.039 75.481 C516.545 73.755, 517.826 71.313, 519.133 69.803" stroke="rgb(236, 236, 255)" stroke-width="2.12" fill="none"></path><path d="M372 10 C423.311 9.367, 474.598 10.573, 516 10 M516 10 C516.526 8.987, 519.587 13.592, 519 13 M519 13 C517.279 33.967, 517.047 57.912, 519 72 M519 72 C518.272 72.373, 516.241 73.046, 516 75 M516 75 C482.451 74.632, 449.47 73.06, 372 75 M372 75 C369.977 76.276, 370.506 74.551, 369 72 M369 72 C370.547 59.024, 369.441 45.455, 369 13 M369 13 C369.863 9.983, 372.323 10.991, 372 10 M372 10 C372 10, 372 10, 372 10" stroke="rgb(218, 206, 243)" stroke-width="1" fill="none"></path></g><g class="text-container" transform="matrix(1 0 0 1 50 10)"><text style="text-anchor: middle; font-size: 16px; font-weight: 400;font-style: normal;font-weight: 400;font-size: 16px;font-family: Comic Sans MS, cursive;" class="actor actor-box" alignment-baseline="central" dominant-baseline="central" y="32.5" x="394" stroke="rgb(218, 206, 243)" stroke-width="1px" fill="rgb(236, 236, 255)" text-anchor="middle"><tspan dy="0" x="394" stroke="none" stroke-width="1px" fill="rgb(0, 0, 0)" text-anchor="middle" dominant-baseline="central">APIGateway</tspan></text></g><g><path d="M124.319 75.637 C124.077 137.882, 124.45 203.72, 123.94 381.725" stroke="rgb(218, 206, 243)" stroke-width="2" fill="none"></path></g><g><path d="M53.255 9.77 C53.255 9.77, 53.255 9.77, 53.255 9.77 M53.255 9.77 C53.255 9.77, 53.255 9.77, 53.255 9.77 M50.882 14.604 C53.523 12.343, 54.506 10.76, 56.08 9.916 M50.882 14.604 C52.367 12.768, 54.156 11.524, 56.08 9.916 M50.736 17.429 C53.598 13.482, 58.064 11.555, 58.904 10.061 M50.736 17.429 C53.349 15.045, 56.391 12.301, 58.904 10.061 M50.591 20.254 C55.183 16.402, 58.064 12.733, 61.729 10.207 M50.591 20.254 C54.449 17.401, 58.456 13.876, 61.729 10.207 M50.445 23.078 C53.012 19.395, 56.27 15.29, 64.554 10.352 M50.445 23.078 C56.144 18.022, 60.583 14.453, 64.554 10.352 M50.3 25.903 C56.684 21.662, 64.749 15.203, 68.121 9.828 M50.3 25.903 C55.545 21.842, 59.749 17.286, 68.121 9.828 M50.154 28.728 C54.863 21.642, 62.815 17.523, 70.946 9.973 M50.154 28.728 C54.203 24.899, 59.074 20.128, 70.946 9.973 M50.751 30.882 C55.705 24.286, 65.645 18.568, 73.77 10.119 M50.751 30.882 C56.926 24.834, 63.517 18.372, 73.77 10.119 M50.606 33.707 C57.865 24.95, 67.076 18.891, 76.595 10.264 M50.606 33.707 C60.224 25.725, 68.49 16.416, 76.595 10.264 M50.46 36.532 C57.958 30.839, 65.111 23.276, 80.162 9.74 M50.46 36.532 C58.496 28.161, 68.497 20.809, 80.162 9.74 M50.315 39.356 C62.596 27.433, 71.142 18.856, 82.987 9.885 M50.315 39.356 C61.076 28.974, 74.374 18.769, 82.987 9.885 M50.17 42.181 C58.252 32.124, 67.796 25.197, 85.812 10.031 M50.17 42.181 C59.465 32.182, 70.971 24.16, 85.812 10.031 M50.767 44.336 C62.656 32.189, 77.72 22.573, 88.636 10.176 M50.767 44.336 C59.115 37.151, 66.655 28.724, 88.636 10.176 M50.621 47.161 C59.77 36.308, 69.546 28.729, 91.461 10.322 M50.621 47.161 C61.127 38.183, 69.32 31.349, 91.461 10.322 M50.476 49.985 C64.404 35.506, 81.915 23.951, 95.028 9.797 M50.476 49.985 C64.656 36.398, 81.008 22.752, 95.028 9.797 M50.33 52.81 C62.26 40.841, 74.076 30.742, 97.853 9.943 M50.33 52.81 C70.347 36.285, 88.415 19.388, 97.853 9.943 M50.185 55.635 C62.161 44.839, 72.308 32.381, 100.677 10.088 M50.185 55.635 C63.823 44.118, 74.667 33.3, 100.677 10.088 M50.782 57.79 C68.171 43.411, 88.16 25.74, 103.502 10.234 M50.782 57.79 C66.731 42.514, 84.632 29.331, 103.502 10.234 M50.636 60.614 C64.042 45.942, 81.487 33.041, 106.327 10.379 M50.636 60.614 C63.809 48.158, 77.718 35.632, 106.327 10.379 M50.491 63.439 C74.66 43.428, 95.803 20.801, 109.894 9.855 M50.491 63.439 C67.059 47.938, 82.034 33.729, 109.894 9.855 M50.345 66.264 C68.537 51.034, 82.377 37.735, 112.719 10.001 M50.345 66.264 C63.167 54.846, 76.191 42.464, 112.719 10.001 M50.2 69.088 C73.933 46.486, 96.685 27.68, 115.543 10.146 M50.2 69.088 C69.536 50.907, 89.477 32.517, 115.543 10.146 M50.797 71.243 C74.901 48.194, 102.211 26.183, 118.368 10.291 M50.797 71.243 C76.31 49.24, 103.27 24.288, 118.368 10.291 M51.394 73.398 C72.393 56.954, 88.485 37.573, 121.193 10.437 M51.394 73.398 C69.252 56.145, 85.914 41.424, 121.193 10.437 M51.991 75.553 C77.028 53.274, 103.383 27.431, 124.76 9.913 M51.991 75.553 C72.636 57.634, 92.28 39.622, 124.76 9.913 M55.558 75.029 C80.603 50.144, 109.681 25.798, 127.585 10.058 M55.558 75.029 C78.057 56.336, 97.602 36.047, 127.585 10.058 M58.383 75.174 C74.607 61.498, 92.61 42.075, 130.409 10.204 M58.383 75.174 C76.155 57.955, 93.454 42.172, 130.409 10.204 M61.208 75.32 C80.751 58.274, 99.728 43.17, 133.234 10.349 M61.208 75.32 C81.69 56.487, 101.578 39.308, 133.234 10.349 M64.032 75.465 C87.936 56.618, 109.213 33.545, 136.059 10.495 M64.032 75.465 C79.822 61.578, 95.059 46.043, 136.059 10.495 M66.857 75.611 C85.488 62.368, 99.07 47.483, 139.626 9.97 M66.857 75.611 C82.746 61.797, 99.677 46.324, 139.626 9.97 M70.424 75.086 C86.828 59.761, 104.815 44.487, 142.451 10.116 M70.424 75.086 C92.47 56.163, 113.179 34.551, 142.451 10.116 M73.249 75.232 C94.391 55.683, 120.211 32.672, 145.275 10.261 M73.249 75.232 C99.659 52.821, 123.977 29.231, 145.275 10.261 M76.074 75.377 C100.398 54.627, 122.91 34.119, 148.1 10.407 M76.074 75.377 C93.219 58.564, 111.243 43.195, 148.1 10.407 M78.898 75.523 C94.329 57.994, 111.84 42.818, 151.667 9.882 M78.898 75.523 C101.25 55.465, 122.103 36.801, 151.667 9.882 M82.465 74.998 C102.072 59.281, 121.927 41.063, 154.492 10.028 M82.465 74.998 C101.579 56.579, 122.967 37.895, 154.492 10.028 M85.29 75.144 C107.907 55.926, 132.813 33.033, 157.317 10.173 M85.29 75.144 C104.886 55.896, 126.016 38.56, 157.317 10.173 M88.115 75.289 C117.372 49.778, 143.186 25.238, 160.141 10.319 M88.115 75.289 C109.955 54.118, 131.854 34.57, 160.141 10.319 M90.939 75.435 C117.508 54.775, 140.919 30.454, 162.966 10.464 M90.939 75.435 C108.657 60.36, 124.61 43.698, 162.966 10.464 M93.764 75.58 C120.314 52.743, 147.759 26.085, 166.533 9.94 M93.764 75.58 C120.391 50.526, 148.476 26.625, 166.533 9.94 M97.331 75.056 C122.844 50.87, 147.632 29.548, 169.358 10.085 M97.331 75.056 C115.284 58.405, 132.923 43.091, 169.358 10.085 M100.156 75.202 C116.718 57.349, 136.271 43.993, 172.183 10.231 M100.156 75.202 C122.14 56.164, 144.998 35.553, 172.183 10.231 M102.981 75.347 C122.117 56.57, 139.015 44.041, 175.007 10.376 M102.981 75.347 C124.911 56.316, 146.589 36.184, 175.007 10.376 M105.805 75.493 C123.63 59.232, 140.061 47.434, 177.832 10.522 M105.805 75.493 C121.794 62.646, 135.404 48.899, 177.832 10.522 M108.63 75.638 C131.143 58.489, 148.04 40.676, 181.399 9.998 M108.63 75.638 C135.936 50.025, 164.229 24.321, 181.399 9.998 M112.197 75.114 C133.972 56.449, 156.79 34.983, 184.224 10.143 M112.197 75.114 C139.559 50.884, 166.273 27.336, 184.224 10.143 M115.022 75.259 C132.356 59.383, 145.732 43.947, 187.049 10.289 M115.022 75.259 C134.248 56.597, 154.164 39.796, 187.049 10.289 M117.847 75.405 C137.691 53.838, 161.344 38.46, 189.873 10.434 M117.847 75.405 C146.074 50.483, 175.103 24.778, 189.873 10.434 M120.671 75.55 C141.027 58.618, 156.873 40.103, 192.698 10.58 M120.671 75.55 C141.571 55.252, 163.942 35.938, 192.698 10.58 M123.496 75.696 C149.752 54.539, 171.827 33.831, 196.265 10.055 M123.496 75.696 C148.954 54.174, 173.339 31.436, 196.265 10.055 M127.063 75.171 C146.348 57.765, 166.115 43.621, 198.347 10.87 M127.063 75.171 C154.215 51.019, 180.345 28.061, 198.347 10.87 M129.888 75.317 C150.029 57.812, 165.744 43.344, 199.687 12.356 M129.888 75.317 C145.077 60.569, 160.021 48.361, 199.687 12.356 M132.713 75.462 C157.896 49.662, 183.566 28.296, 200.284 14.51 M132.713 75.462 C154.346 55.112, 176.13 35.99, 200.284 14.51 M135.537 75.608 C152.12 61.235, 171.23 46.198, 200.138 17.335 M135.537 75.608 C148.951 63.063, 163.908 51.867, 200.138 17.335 M138.362 75.753 C158.767 57.81, 174.528 43.097, 199.993 20.16 M138.362 75.753 C152.169 62.793, 167.416 48.47, 199.993 20.16 M141.929 75.229 C153.272 61.82, 168.942 50.381, 199.847 22.985 M141.929 75.229 C156.597 62.359, 169.935 49.063, 199.847 22.985 M144.754 75.374 C166.517 58.376, 185.141 36.31, 200.445 25.139 M144.754 75.374 C163.268 59.445, 182.301 41.11, 200.445 25.139 M147.579 75.52 C161.415 64.093, 171.101 52.391, 200.299 27.964 M147.579 75.52 C163.659 61.421, 179.991 47.355, 200.299 27.964 M150.403 75.665 C163.029 65.714, 173.829 52.514, 200.154 30.789 M150.403 75.665 C160.898 66.052, 172.08 57.411, 200.154 30.789 M153.971 75.141 C167.576 63.734, 183.573 49.459, 200.008 33.613 M153.971 75.141 C164.59 64.61, 176.393 54.736, 200.008 33.613 M156.795 75.287 C170.997 65.241, 181.295 51.98, 199.863 36.438 M156.795 75.287 C168.225 63.863, 181.543 52.387, 199.863 36.438 M159.62 75.432 C166.228 69.325, 176.917 61.128, 200.46 38.593 M159.62 75.432 C169.205 66.544, 180.006 55.628, 200.46 38.593 M162.445 75.578 C174.934 64.688, 183.638 56.504, 200.314 41.418 M162.445 75.578 C170.015 67.913, 177.534 61.968, 200.314 41.418 M165.269 75.723 C176.995 63.733, 190.668 52.902, 200.169 44.242 M165.269 75.723 C177.503 65.211, 189.421 54.746, 200.169 44.242 M168.836 75.199 C176.894 71.147, 180.028 63.801, 200.023 47.067 M168.836 75.199 C178.342 67.432, 188.121 58.839, 200.023 47.067 M171.661 75.344 C181.288 67.565, 190.053 58.745, 199.878 49.892 M171.661 75.344 C181.652 67.481, 190.452 58.398, 199.878 49.892 M174.486 75.49 C181.045 68.647, 188.285 64.693, 199.732 52.716 M174.486 75.49 C180.534 71.08, 184.119 66.203, 199.732 52.716 M177.311 75.635 C183.95 68.22, 194.089 60.296, 200.329 54.871 M177.311 75.635 C185.254 68.954, 190.583 63.445, 200.329 54.871 M180.135 75.781 C185.717 71.004, 189.007 68.113, 200.184 57.696 M180.135 75.781 C187.972 69.397, 195.993 61.399, 200.184 57.696 M183.702 75.256 C189.535 73.05, 191.142 66.768, 200.038 60.521 M183.702 75.256 C190.353 69.497, 195.957 62.87, 200.038 60.521 M186.527 75.402 C189.481 71.588, 192.714 67.497, 199.893 63.345 M186.527 75.402 C190.256 72.56, 194.704 69.325, 199.893 63.345 M189.352 75.547 C194.853 70.592, 198.603 67.607, 199.747 66.17 M189.352 75.547 C191.445 72.957, 194.048 72.142, 199.747 66.17 M192.176 75.693 C194.483 74.063, 197.674 71.014, 199.602 68.995 M192.176 75.693 C195.277 73.331, 197.688 70.472, 199.602 68.995 M195.001 75.838 C197.032 73.463, 198.861 72.329, 200.199 71.15 M195.001 75.838 C196.278 74.568, 197.725 73.528, 200.199 71.15" stroke="rgb(236, 236, 255)" stroke-width="2.984" fill="none"></path><path d="M53 10 C90.155 9.19, 126.665 9.141, 197 10 M53 10 C108.066 8.88, 162.291 8.151, 197 10 M197 10 C197.35 8.115, 201.923 12.346, 200 13 M197 10 C198.334 8.679, 199.716 10.111, 200 13 M200 13 C200.257 35.821, 200.713 55.461, 200 72 M200 13 C198.629 32.311, 200.141 52.002, 200 72 M200 72 C200.29 71.718, 199.654 74.398, 197 75 M200 72 C201.896 73.063, 198.46 74.834, 197 75 M197 75 C168.502 74.537, 137.524 74.112, 53 75 M197 75 C150.688 73.957, 103.31 73.778, 53 75 M53 75 C53.302 75.906, 50.926 75.017, 50 72 M53 75 C51.53 74.491, 47.851 72.881, 50 72 M50 72 C49.445 57.889, 50.568 47.746, 50 13 M50 72 C50.468 49.753, 50.626 29.452, 50 13 M50 13 C49.176 9.923, 52.885 9.631, 53 10 M50 13 C50.865 9.406, 51.515 8.387, 53 10 M53 10 C53 10, 53 10, 53 10 M53 10 C53 10, 53 10, 53 10" stroke="rgb(218, 206, 243)" stroke-width="1" fill="none"></path></g><g class="text-container" transform="matrix(1 0 0 1 50 10)"><text style="text-anchor: middle; font-size: 16px; font-weight: 400;font-style: normal;font-weight: 400;font-size: 16px;font-family: Comic Sans MS, cursive;" class="actor actor-box" alignment-baseline="central" dominant-baseline="central" y="32.5" x="75" stroke="rgb(218, 206, 243)" stroke-width="1px" fill="rgb(236, 236, 255)" text-anchor="middle"><tspan dy="0" x="75" stroke="none" stroke-width="1px" fill="rgb(0, 0, 0)" text-anchor="middle" dominant-baseline="central">Client</tspan></text></g><g class="text-container" transform="matrix(1 0 0 1 50 10)"><text style="font-size: 16px; font-weight: 400;font-style: normal;font-weight: 400;font-size: 16px;font-family: Comic Sans MS, cursive;" dy="1em" class="messageText" alignment-baseline="middle" dominant-baseline="middle" text-anchor="middle" y="80" x="233" stroke="none" stroke-width="1px" fill="rgb(51, 51, 51)">GET /zealand/measurements/{ssn}</text></g><g><path d="M124.955 123.718 C188.622 122.508, 253.238 123.661, 440.74 123.737 M125.663 122.954 C199.446 123.568, 274.75 123.579, 439.528 123.152" stroke="rgb(51, 51, 51)" stroke-width="1.5" fill="none"></path></g><g><path d="M430.843 118.349 C430.843 118.349, 430.843 118.349, 430.843 118.349 M430.843 118.349 C430.843 118.349, 430.843 118.349, 430.843 118.349 M431.166 120.883 C431.795 120.542, 432.178 119.62, 432.78 118.584 M431.246 121.275 C431.937 120.289, 432.594 119.42, 433.116 118.806 M431.204 124.04 C432.996 122.266, 433.854 121.455, 434.901 119.926 M431.798 123.995 C432.711 122.537, 433.618 121.314, 434.779 119.687 M431.529 126.087 C433.448 124.921, 435.571 122.872, 436.69 120.131 M431.755 127.045 C433.338 124.856, 434.812 123.789, 436.516 119.988 M433.747 126.462 C435.381 124.47, 437.729 122.344, 438.961 121.587 M434.045 126.79 C435.804 125.454, 437.315 122.963, 438.745 121.391 M438.123 125.068 C439.073 124.733, 439.092 123.983, 440.996 121.521 M438.493 125.237 C439.225 124.122, 439.858 123.02, 440.582 121.872" stroke="rgb(51, 51, 51)" stroke-width="0.65" fill="none"></path><path d="M431.168 118.85 C434.642 119.005, 438.495 121.104, 442.385 124.06 M430.594 118.531 C434.946 120.592, 439.985 121.882, 442.039 123.39 M441.445 123.559 C440.315 125.219, 437.183 124.581, 431.695 127.498 M442.628 122.557 C439.499 124.123, 436.753 125.162, 432.502 127.896 M431.263 127.476 C431.048 125.214, 431.043 120.854, 430.662 117.837 M432.434 128.2 C431.552 123.702, 431.421 119.887, 431.004 117.975" stroke="rgb(51, 51, 51)" stroke-width="1" fill="none"></path></g><g class="text-container" transform="matrix(1 0 0 1 50 10)"><text style="font-size: 16px; font-weight: 400;font-style: normal;font-weight: 400;font-size: 16px;font-family: Comic Sans MS, cursive;" dy="1em" class="messageText" alignment-baseline="middle" dominant-baseline="middle" text-anchor="middle" y="128" x="535" stroke="none" stroke-width="1px" fill="rgb(51, 51, 51)">GET /api/Measurements/{ssn}</text></g><g><path d="M446.067 172.054 C545.696 168.27, 646.767 170.095, 724.983 169.83 M445.731 171.011 C536.679 168.455, 629.27 168.56, 723.324 170.395" stroke="rgb(51, 51, 51)" stroke-width="1.5" fill="none"></path></g><g><path d="M715.182 165.874 C715.182 165.874, 715.182 165.874, 715.182 165.874 M715.182 165.874 C715.182 165.874, 715.182 165.874, 715.182 165.874 M715.544 167.282 C715.698 167.141, 715.709 166.887, 716.052 166.347 M715.456 167.227 C715.566 167.136, 715.745 166.895, 716.051 166.38 M715.437 169.41 C716.067 168.42, 716.274 167.467, 716.708 167.231 M715.278 169.336 C715.84 168.851, 716.32 167.956, 716.826 166.828 M715.461 170.703 C716.175 169.552, 717.054 168.566, 717.844 167.116 M715.449 170.964 C716.373 169.665, 717.071 168.406, 717.531 167.473 M715.856 172.174 C716.838 171.275, 717.33 169.839, 718.723 168.041 M716.053 172.134 C716.97 171.02, 717.523 169.435, 718.329 167.991 M715.506 173.909 C717.119 171.365, 718.944 168.752, 719.506 167.058 M716.341 173.828 C717.006 171.96, 717.904 170.534, 720.245 167.714 M716.727 175.522 C717.324 173.454, 718.418 170.724, 720.485 168.472 M715.694 176.252 C717.29 173.084, 719.612 169.791, 721.106 168.429 M716.709 177.224 C718.763 174.058, 720.803 170.343, 721.027 169.224 M716.875 176.309 C717.981 173.986, 719.514 171.196, 721.869 169.133 M718.243 175.507 C719.812 174.524, 720.164 172.956, 722.508 169.269 M718.612 175.268 C719.671 173.587, 720.776 172.01, 722.763 169.271 M719.803 175.497 C721.425 174.088, 721.65 172.664, 723.764 170.263 M719.971 174.729 C720.939 173.939, 721.356 172.733, 723.116 170.058 M722.022 173.635 C722.463 172.708, 723.039 171.928, 723.963 170.31 M722.161 173.65 C722.552 172.815, 723.176 171.933, 724.038 170.489 M723.806 172.696 C724.51 172.101, 724.652 171.221, 725.079 170.795 M723.979 172.7 C724.23 171.955, 724.72 171.426, 725.066 170.895" stroke="rgb(51, 51, 51)" stroke-width="0.812" fill="none"></path><path d="M713.984 167.123 C717.865 167.639, 721.569 169.923, 727.134 170.773 M726.88 171.309 C723.312 172.901, 721.056 173.124, 716.288 175.582 M715.616 176.303 C715.294 171.795, 714.504 169.399, 715.121 166.426" stroke="rgb(51, 51, 51)" stroke-width="1" fill="none"></path></g><g class="text-container" transform="matrix(1 0 0 1 50 10)"><text style="font-size: 16px; font-weight: 400;font-style: normal;font-weight: 400;font-size: 16px;font-family: Comic Sans MS, cursive;" dy="1em" class="messageText" alignment-baseline="middle" dominant-baseline="middle" text-anchor="middle" y="176" x="818" stroke="none" stroke-width="1px" fill="rgb(51, 51, 51)">Query measurements by SSN</text></g><g><path d="M730.021 218.092 C838.758 219.284, 951.302 221.518, 1006.886 217.716" stroke="rgb(51, 51, 51)" stroke-width="1.5" fill="none"></path></g><g><path d="M997.984 214.123 C997.984 214.123, 997.984 214.123, 997.984 214.123 M997.984 214.123 C997.984 214.123, 997.984 214.123, 997.984 214.123 M998.503 217.349 C999.54 217.278, 999.986 216.516, 1000.744 215.563 M998.819 217.771 C999.443 216.997, 999.948 216.352, 1000.993 215.599 M998.616 222.475 C1000.018 219.796, 1003.048 218.628, 1003.518 217.434 M999.252 221.621 C1000.433 220.221, 1002.875 217.734, 1003.67 217.093 M999.983 224.455 C1002.953 222.47, 1005.656 219.241, 1006.796 218.087 M1000.411 224.958 C1001.811 222.962, 1003.584 221.737, 1006.676 218.049" stroke="rgb(51, 51, 51)" stroke-width="0.91" fill="none"></path><path d="M999.062 213.533 C1000.305 214.981, 1002.787 215.762, 1009.775 218.781 M998.356 213.707 C1001.577 215.241, 1005.516 216.716, 1009.345 219.489 M1008.786 219.104 C1005.68 219.336, 1003.742 220.541, 999.853 224.169 M1009.046 218.517 C1005.658 220.515, 1001.694 222.421, 999.639 223.618 M998.892 223.497 C999.136 221.196, 998.009 217.415, 998.781 213.647 M999.344 223.789 C999.302 221.093, 998.203 219.249, 998.018 213.583" stroke="rgb(51, 51, 51)" stroke-width="1" fill="none"></path></g><g class="text-container" transform="matrix(1 0 0 1 50 10)"><text style="font-size: 16px; font-weight: 400;font-style: normal;font-weight: 400;font-size: 16px;font-family: Comic Sans MS, cursive;" dy="1em" class="messageText" alignment-baseline="middle" dominant-baseline="middle" text-anchor="middle" y="224" x="821" stroke="none" stroke-width="1px" fill="rgb(51, 51, 51)">List of measurements</text></g><g><path d="M1010.319 266.216 C931.669 266.048, 852.496 267.906, 730.504 267.569 M1010.603 266.611 C948.595 267.018, 886.738 266.169, 732.609 266.513" stroke="rgb(51, 51, 51)" stroke-width="1.5" fill="none" stroke-dasharray="3 3"></path></g><g><path d="M729.923 266.976 C729.923 266.976, 729.923 266.976, 729.923 266.976 M729.923 266.976 C729.923 266.976, 729.923 266.976, 729.923 266.976 M732.367 267.826 C733.357 266.935, 733.312 265.695, 735.908 264.009 M732.14 267.727 C732.892 267.047, 733.437 266.301, 735.512 264.117 M732.843 268.6 C735.674 266.208, 737.768 265.307, 740.218 262.671 M733.927 269.452 C736.24 266.51, 738.267 264.374, 740.566 262.029 M735.139 269.818 C736.641 267.666, 738.822 266.553, 740.671 264.293 M735.902 269.806 C737.483 267.626, 739.526 266.213, 740.661 264.926 M737.778 270.503 C738.991 269.814, 739.711 269.001, 740.848 267.537 M737.8 270.276 C738.488 269.332, 739.516 268.353, 740.58 267.743 M739.985 271.19 C740.261 270.869, 740.371 270.649, 741.107 269.849 M739.894 271.09 C740.188 270.812, 740.491 270.524, 741.344 269.649" stroke="rgb(51, 51, 51)" stroke-width="1.488" fill="none"></path><path d="M740.125 271.279 C737.207 271.087, 734.388 269.825, 730.328 266.332 M740.818 271.914 C738.034 270.958, 735.865 269.893, 729.507 267.136 M729.4 267.916 C732.919 265.531, 735.171 264.949, 740.53 261.052 M730.25 267.333 C733.798 265.205, 737.655 263.168, 739.477 261.989 M739.933 262.759 C740.597 265.378, 740.461 267.163, 741.064 272.62 M739.555 262.04 C740.547 264.537, 740.109 267.021, 741.141 272.008" stroke="rgb(51, 51, 51)" stroke-width="1" fill="none"></path></g><g class="text-container" transform="matrix(1 0 0 1 50 10)"><text style="font-size: 16px; font-weight: 400;font-style: normal;font-weight: 400;font-size: 16px;font-family: Comic Sans MS, cursive;" dy="1em" class="messageText" alignment-baseline="middle" dominant-baseline="middle" text-anchor="middle" y="272" x="538" stroke="none" stroke-width="1px" fill="rgb(51, 51, 51)">Response (Measurements)</text></g><g><path d="M727.977 313.565 C622.628 316.597, 519.872 314.776, 449.261 314.947" stroke="rgb(51, 51, 51)" stroke-width="1.5" fill="none" stroke-dasharray="3 3"></path></g><g><path d="M445.971 314.918 C445.971 314.918, 445.971 314.918, 445.971 314.918 M445.971 314.918 C445.971 314.918, 445.971 314.918, 445.971 314.918 M446.592 315.597 C447.037 315.236, 447.523 314.759, 448.176 313.968 M446.714 315.486 C447.047 315.108, 447.495 314.61, 448.072 314.083 M447.4 316.263 C448.857 315.127, 450.059 313.323, 450.664 312.078 M447.385 316.328 C448.588 314.655, 449.789 313.349, 450.999 312.623 M449.271 315.802 C450.394 315.022, 451.597 313.008, 453.342 311.519 M449.128 316.099 C449.82 314.758, 450.847 313.684, 452.792 311.539 M449.233 317.323 C452.052 315.061, 452.565 312.299, 455.558 310.027 M449.38 316.511 C450.882 315.135, 452.588 313.303, 455.196 310.814 M451.233 317.888 C453.218 315.14, 453.67 313.685, 456.61 311.443 M450.215 317.573 C452.332 315.015, 454.835 312.234, 456.428 310.897 M451.275 316.979 C453.56 315.035, 455.651 312.963, 456.508 311.51 M451.487 317.392 C453.141 316.222, 454.144 314.807, 456.297 311.892 M453.076 317.584 C453.704 317.036, 455.124 315.194, 456.333 313.536 M452.708 318.163 C454.024 316.605, 455.286 314.882, 456.279 313.52 M453.834 318.171 C454.075 317.818, 455.589 316.372, 456.267 314.544 M453.419 318.592 C454.72 317.143, 455.54 315.794, 456.462 315.089 M454.543 318.378 C455.701 317.567, 456.19 317.063, 456.716 316.09 M454.738 318.413 C455.261 318.021, 455.755 317.157, 456.694 316.199 M455.547 319.095 C455.81 318.592, 456.131 318.295, 456.989 317.467 M455.447 319.247 C456.005 318.755, 456.396 318.265, 456.892 317.63 M456.211 319.86 C456.517 319.166, 457.022 318.953, 457.495 318.45 M456.159 319.822 C456.555 319.469, 456.863 319.28, 457.598 318.273" stroke="rgb(51, 51, 51)" stroke-width="1.451" fill="none"></path><path d="M457.961 319.904 C453.669 317.493, 448.196 316.41, 446.302 316.152 M456.877 319.661 C453.002 318.717, 450.414 317.256, 446.385 314.68 M446.806 315.886 C448.751 314.129, 453.591 310.464, 455.847 310.897 M445.65 315.495 C449.392 313.229, 452.179 312.11, 455.455 310.342 M456.843 309.633 C456.282 312.104, 455.719 316.517, 457.228 320.304 M455.724 310.164 C456.284 311.922, 456.394 314.086, 457.143 319.978" stroke="rgb(51, 51, 51)" stroke-width="1" fill="none"></path></g><g class="text-container" transform="matrix(1 0 0 1 50 10)"><text style="font-size: 16px; font-weight: 400;font-style: normal;font-weight: 400;font-size: 16px;font-family: Comic Sans MS, cursive;" dy="1em" class="messageText" alignment-baseline="middle" dominant-baseline="middle" text-anchor="middle" y="320" x="236" stroke="none" stroke-width="1px" fill="rgb(51, 51, 51)">Response (Measurements)</text></g><g><path d="M443.338 364.351 C331.461 364.373, 221.522 364.134, 129.507 361.613 M442.384 363.559 C359.407 363.441, 276.844 364.405, 128.906 362.994" stroke="rgb(51, 51, 51)" stroke-width="1.5" fill="none" stroke-dasharray="3 3"></path></g><g><path d="M126.684 363.37 C126.684 363.37, 126.684 363.37, 126.684 363.37 M126.684 363.37 C126.684 363.37, 126.684 363.37, 126.684 363.37 M129.024 363.466 C129.184 362.874, 129.573 362.284, 130.087 361.679 M128.82 363.42 C129.249 362.994, 129.535 362.275, 129.913 361.856 M130.439 364.547 C130.866 364.098, 131.798 362.448, 133.43 359.772 M130.71 364.519 C131.428 363.226, 132.164 361.224, 133.81 359.442 M131.8 365.613 C133.093 362.872, 134.814 360.309, 137.072 357.294 M132.346 365.452 C133.561 362.92, 135.707 360.507, 136.485 357.755 M133.434 366.094 C135.493 364.02, 136.98 362.134, 138.273 360.573 M134.359 366.87 C135.353 364.364, 136.147 362.636, 137.286 360.808 M135.626 367.211 C136.709 366.44, 137.078 364.763, 138.035 363.563 M135.595 367.388 C136.585 366.379, 136.954 365.511, 138.126 363.432 M138.06 367.642 C138.223 367.463, 138.514 367.051, 138.518 366.882 M138.018 367.671 C138.226 367.411, 138.322 367.164, 138.559 366.795" stroke="rgb(51, 51, 51)" stroke-width="1.382" fill="none"></path><path d="M138.783 368.279 C134.043 367.211, 133.71 365.006, 126.731 362.719 M126.42 363.013 C129.813 360.793, 134.63 359.892, 136.088 357.88 M136.364 358.741 C136.984 361.372, 137.804 364.793, 137.73 367.634" stroke="rgb(51, 51, 51)" stroke-width="1" fill="none"></path></g></svg>