<?xml version="1.0" encoding="UTF-8"?>
<?xml-stylesheet href="https://cdnjs.cloudflare.com/ajax/libs/font-awesome/6.6.0/css/all.min.css" type="text/css"?>
<svg xmlns="http://www.w3.org/2000/svg" xmlns:xlink="http://www.w3.org/1999/xlink" width="100%" height="100%" stroke-linecap="round" viewBox="0 0 983 459" style="max-width: 100%;"><g><path d="M783.075 385.895 C783.075 385.895, 783.075 385.895, 783.075 385.895 M783.075 385.895 C783.075 385.895, 783.075 385.895, 783.075 385.895 M782.844 393.102 C784.929 391.468, 785.026 388.665, 789.817 383.336 M782.844 393.102 C785.599 389.57, 788.195 386.646, 789.817 383.336 M783.194 399.496 C789.308 392.845, 790.791 387.601, 794.816 383.219 M783.194 399.496 C787.689 394.061, 790.143 390.381, 794.816 383.219 M782.962 406.703 C787.408 398.086, 794.205 390.679, 799.814 383.102 M782.962 406.703 C787.242 401.339, 791.594 394.519, 799.814 383.102 M782.731 413.91 C792.603 402.828, 800.246 390.367, 804.813 382.985 M782.731 413.91 C790.013 404.555, 797.515 393.584, 804.813 382.985 M783.081 420.304 C791.66 409.73, 798.506 399.059, 809.812 382.868 M783.081 420.304 C792.711 407.682, 799.962 396.496, 809.812 382.868 M782.849 427.511 C790.974 416.421, 797.152 408.486, 814.229 383.565 M782.849 427.511 C795.106 409.395, 807.213 391.96, 814.229 383.565 M783.199 433.905 C792.396 419.051, 802.965 408.213, 819.228 383.448 M783.199 433.905 C794.19 418.28, 804.605 402.616, 819.228 383.448 M782.968 441.112 C793.141 425.24, 802.976 410.003, 824.226 383.331 M782.968 441.112 C794.523 424.189, 807.713 405.745, 824.226 383.331 M783.899 446.692 C800.266 420.484, 816.912 396.958, 829.225 383.214 M783.899 446.692 C799.525 424.854, 814.711 401.778, 829.225 383.214 M787.735 448.203 C804.972 423.596, 822.655 400.188, 834.224 383.097 M787.735 448.203 C804.369 424.518, 822.337 401.995, 834.224 383.097 M792.734 448.086 C807.551 426.395, 822.481 406.341, 839.222 382.98 M792.734 448.086 C808.927 426.13, 825.362 403.951, 839.222 382.98 M797.732 447.969 C814.593 426.506, 827.186 405.005, 843.64 383.676 M797.732 447.969 C813.768 425.755, 831.296 402.505, 843.64 383.676 M802.731 447.852 C820.039 423.427, 835.496 400.06, 848.638 383.559 M802.731 447.852 C816.091 427.761, 830.975 406.827, 848.638 383.559 M807.73 447.735 C818.52 435.63, 825.03 420.54, 853.637 383.442 M807.73 447.735 C822.458 426.92, 838.033 403.586, 853.637 383.442 M812.147 448.431 C821.583 433.709, 830.795 418.705, 858.636 383.325 M812.147 448.431 C824.212 431.701, 837.624 414.138, 858.636 383.325 M817.146 448.314 C834.01 421.89, 850.786 396.747, 863.634 383.208 M817.146 448.314 C828.541 432.573, 838.802 416.997, 863.634 383.208 M822.144 448.197 C839.233 421.221, 860.369 394.403, 868.633 383.091 M822.144 448.197 C838.731 424.934, 857.566 400.281, 868.633 383.091 M827.143 448.08 C838.444 434.765, 845.861 419.057, 873.632 382.974 M827.143 448.08 C838.439 432.268, 848.55 417.274, 873.632 382.974 M832.142 447.963 C850.377 421.744, 868.624 396.255, 878.049 383.671 M832.142 447.963 C844.949 429.959, 859.998 410.573, 878.049 383.671 M837.14 447.846 C852.39 427.252, 868.074 405.637, 883.048 383.554 M837.14 447.846 C848.565 429.966, 862.443 412.308, 883.048 383.554 M841.558 448.543 C852.534 435.107, 861.965 417.21, 888.046 383.437 M841.558 448.543 C855.098 429.553, 868.654 410.443, 888.046 383.437 M846.556 448.426 C860.119 426.047, 877.283 403.794, 893.045 383.32 M846.556 448.426 C856.092 433.385, 868.306 418.884, 893.045 383.32 M851.555 448.309 C860.778 434.423, 871.878 421.316, 898.044 383.203 M851.555 448.309 C862.117 432.234, 873.621 416.789, 898.044 383.203 M856.554 448.192 C871.318 428.277, 887.906 406.089, 903.042 383.086 M856.554 448.192 C870.475 428.48, 885.284 408.261, 903.042 383.086 M861.552 448.075 C881.593 423.391, 897.554 397.958, 907.46 383.782 M861.552 448.075 C875.029 427.711, 890.752 408.15, 907.46 383.782 M866.551 447.958 C881.226 429.166, 895.156 409.154, 912.458 383.665 M866.551 447.958 C876.37 433.815, 885.117 420.914, 912.458 383.665 M870.968 448.654 C884.067 430.358, 897.605 408.525, 917.457 383.548 M870.968 448.654 C884.732 429.018, 898.732 411.243, 917.457 383.548 M875.967 448.537 C886.578 436.139, 893.612 423.364, 922.456 383.431 M875.967 448.537 C888.773 432.057, 901.06 413.097, 922.456 383.431 M880.966 448.42 C895.086 433.042, 903.307 417.303, 927.454 383.314 M880.966 448.42 C896.308 427.759, 910.44 406.137, 927.454 383.314 M885.964 448.303 C897.791 435.623, 907.431 420.21, 931.872 384.011 M885.964 448.303 C900.144 426.408, 915.762 404.544, 931.872 384.011 M890.963 448.186 C901.066 434.72, 907.789 423.521, 933.965 387.963 M890.963 448.186 C900.844 432.57, 912.862 418.422, 933.965 387.963 M895.962 448.069 C911.587 427.456, 923.197 409.161, 933.734 395.17 M895.962 448.069 C907.083 433.2, 916.441 419.147, 933.734 395.17 M900.96 447.952 C914.9 431.287, 925.336 410.922, 933.502 402.378 M900.96 447.952 C910.911 434.125, 921.772 419.803, 933.502 402.378 M905.378 448.649 C912.822 442.029, 916.145 433.067, 933.852 408.771 M905.378 448.649 C911.704 440.941, 917.05 431.946, 933.852 408.771 M910.376 448.532 C918.73 436.726, 925.679 425.971, 933.621 415.979 M910.376 448.532 C916.493 440.983, 922.056 433.49, 933.621 415.979 M915.375 448.415 C921.595 443.918, 923.529 437.157, 933.389 423.186 M915.375 448.415 C921.676 439.493, 928.178 431.92, 933.389 423.186 M920.374 448.298 C923.254 445.059, 926.001 440.677, 933.739 429.58 M920.374 448.298 C924.339 444.697, 926.011 438.755, 933.739 429.58 M925.372 448.181 C927.488 444.343, 928.269 440.972, 933.508 436.787 M925.372 448.181 C928.462 443.698, 931.188 440.662, 933.508 436.787 M930.371 448.064 C931.636 446.891, 932.602 445.532, 933.276 443.995 M930.371 448.064 C931.436 446.997, 931.971 445.609, 933.276 443.995" stroke="rgb(236, 236, 255)" stroke-width="1.585" fill="none"></path><path d="M786 383 C826.633 384.2, 864.831 382.603, 930 383 M930 383 C933.426 384.887, 933.801 386.316, 933 386 M933 386 C934.054 408.672, 932.313 427.267, 933 445 M933 445 C932.272 446.375, 932.272 449.181, 930 448 M930 448 C899.163 446.556, 865.783 445.992, 786 448 M786 448 C782.914 447.586, 783.015 447.683, 783 445 M783 445 C781.813 432.608, 785.014 419.754, 783 386 M783 386 C781.612 384.14, 784.217 384.224, 786 383 M786 383 C786 383, 786 383, 786 383" stroke="rgb(218, 206, 243)" stroke-width="1" fill="none"></path></g><g class="text-container" transform="matrix(1 0 0 1 50 10)"><text style="text-anchor: middle; font-size: 16px; font-weight: 400;font-style: normal;font-weight: 400;font-size: 16px;font-family: Comic Sans MS, cursive;" class="actor actor-box" alignment-baseline="central" dominant-baseline="central" y="405.5" x="808" stroke="rgb(218, 206, 243)" stroke-width="1px" fill="rgb(236, 236, 255)" text-anchor="middle"><tspan dy="0" x="808" stroke="none" stroke-width="1px" fill="rgb(0, 0, 0)" text-anchor="middle" dominant-baseline="central">PatientDatabase</tspan></text></g><g><path d="M557.876 383.122 C557.876 383.122, 557.876 383.122, 557.876 383.122 M557.876 383.122 C557.876 383.122, 557.876 383.122, 557.876 383.122 M557.847 388.779 C559.153 386.839, 560.641 384.971, 563.533 383.151 M557.847 388.779 C559.532 386.606, 561.57 384.676, 563.533 383.151 M557.818 394.436 C559.49 392.867, 564.355 389.103, 569.19 383.181 M557.818 394.436 C560.592 390.821, 563.625 388.15, 569.19 383.181 M557.789 400.093 C562.171 395.276, 566.841 391.503, 574.847 383.21 M557.789 400.093 C564.101 393.799, 569.613 389.206, 574.847 383.21 M557.76 405.749 C565.625 398.432, 571.235 393.29, 580.504 383.239 M557.76 405.749 C566.492 396.932, 576.376 389.097, 580.504 383.239 M557.731 411.406 C563.306 403.547, 569.143 400.491, 586.16 383.268 M557.731 411.406 C564.626 405.003, 571.66 396.658, 586.16 383.268 M557.701 417.063 C563.421 412.334, 570.837 403.485, 591.817 383.297 M557.701 417.063 C569.414 403.663, 583.67 391.663, 591.817 383.297 M557.672 422.72 C569.113 411.417, 578.915 402.205, 597.474 383.327 M557.672 422.72 C570.396 411.617, 581.005 398.634, 597.474 383.327 M557.643 428.377 C569.943 416.358, 583.843 404.77, 603.131 383.356 M557.643 428.377 C571.901 414.738, 587.761 399.872, 603.131 383.356 M557.614 434.033 C570.682 421.673, 579.429 410.074, 608.787 383.385 M557.614 434.033 C569.188 422.314, 582.818 409.745, 608.787 383.385 M557.585 439.69 C571.03 427.823, 584.187 414.151, 614.444 383.414 M557.585 439.69 C575.296 423.038, 592.578 405.879, 614.444 383.414 M556.134 446.754 C580.235 423.301, 606.406 396.681, 620.101 383.443 M556.134 446.754 C572.05 430.083, 588.485 414.538, 620.101 383.443 M558.948 449.597 C582.948 427.256, 607.526 403.182, 625.758 383.472 M558.948 449.597 C585.224 422.432, 612.643 397.089, 625.758 383.472 M564.605 449.626 C590.07 425.191, 614.65 400.832, 632.125 382.798 M564.605 449.626 C591.915 423.903, 617.59 397.413, 632.125 382.798 M570.261 449.655 C585.746 436.774, 597.224 423.588, 637.782 382.827 M570.261 449.655 C589.359 429.306, 608.016 410.579, 637.782 382.827 M575.918 449.684 C591.808 437.154, 604.779 421.769, 643.439 382.856 M575.918 449.684 C592.938 432.604, 609.365 415.341, 643.439 382.856 M581.575 449.713 C607.774 425.738, 633.47 397.059, 649.096 382.886 M581.575 449.713 C600.146 431.28, 617.651 413.042, 649.096 382.886 M587.232 449.743 C607.375 431.343, 629.419 410.377, 654.752 382.915 M587.232 449.743 C604.111 433.009, 620.553 416.815, 654.752 382.915 M592.888 449.772 C610.627 430.99, 631.468 414.84, 660.409 382.944 M592.888 449.772 C611.075 430.82, 631.676 411.923, 660.409 382.944 M598.545 449.801 C619.729 427.71, 639.25 410.046, 666.066 382.973 M598.545 449.801 C618.203 428.587, 639.502 408.429, 666.066 382.973 M604.202 449.83 C621.915 430.588, 643.064 412.132, 671.723 383.002 M604.202 449.83 C624.749 428.663, 647.64 407.463, 671.723 383.002 M609.859 449.859 C632.344 426.473, 659.807 402.682, 677.38 383.032 M609.859 449.859 C632.954 427.856, 655.512 404.099, 677.38 383.032 M615.516 449.889 C629.522 435.702, 641.281 422.651, 683.036 383.061 M615.516 449.889 C639.874 426.565, 662.708 403.608, 683.036 383.061 M621.172 449.918 C634.78 437.417, 650.128 425.194, 688.693 383.09 M621.172 449.918 C640.133 429.535, 660.764 410.74, 688.693 383.09 M626.829 449.947 C650.671 427.815, 669.547 406.022, 694.35 383.119 M626.829 449.947 C647.67 429.504, 667.176 408.729, 694.35 383.119 M632.486 449.976 C653.024 428.904, 678.06 405.224, 700.007 383.148 M632.486 449.976 C659.163 424.916, 684.327 398.365, 700.007 383.148 M638.143 450.005 C662.363 426.065, 687.583 399.398, 704.242 384.584 M638.143 450.005 C660.831 429.25, 682.112 408.227, 704.242 384.584 M643.799 450.034 C657.378 436.232, 671.634 422.598, 707.056 387.427 M643.799 450.034 C669.066 425.688, 694.317 400.062, 707.056 387.427 M649.456 450.064 C663.639 434.678, 680.586 418.34, 707.027 393.084 M649.456 450.064 C662.879 436.997, 674.8 425.003, 707.027 393.084 M655.113 450.093 C673.221 429.985, 695.797 410.103, 706.997 398.741 M655.113 450.093 C671.498 433.444, 689.305 416.253, 706.997 398.741 M660.77 450.122 C674.802 434.295, 689.032 420.222, 706.968 404.398 M660.77 450.122 C677.045 434.878, 692.075 420.697, 706.968 404.398 M666.427 450.151 C675.712 439.925, 686.578 429.57, 706.939 410.054 M666.427 450.151 C678.443 438.277, 691.807 424.586, 706.939 410.054 M672.083 450.18 C681.562 444.856, 688.195 437.22, 706.91 415.711 M672.083 450.18 C680.537 440.873, 691.783 431.438, 706.91 415.711 M677.74 450.209 C689.741 437.568, 701.328 426.663, 706.881 421.368 M677.74 450.209 C686.508 441.482, 694.705 433.7, 706.881 421.368 M683.397 450.239 C690.902 442.117, 699.664 435.113, 706.852 427.025 M683.397 450.239 C691.662 440.893, 700.697 432.669, 706.852 427.025 M689.054 450.268 C694.917 444.401, 696.131 443.523, 706.822 432.682 M689.054 450.268 C693.393 446.173, 698.783 440.684, 706.822 432.682 M694.71 450.297 C698.458 445.703, 703.82 442.726, 706.793 438.338 M694.71 450.297 C697.318 447.43, 700.522 443.806, 706.793 438.338 M702.5 448.216 C703.933 446.672, 705.422 444.612, 706.764 443.995 M702.5 448.216 C703.985 446.988, 705.179 445.206, 706.764 443.995" stroke="rgb(236, 236, 255)" stroke-width="2.861" fill="none"></path><path d="M558 383 C610.692 383.825, 662.626 382.923, 702 383 M558 383 C605.809 383.346, 653.178 382.568, 702 383 M702 383 C702.343 382.63, 703.971 382.693, 705 386 M702 383 C703.458 384.6, 704.838 385.806, 705 386 M705 386 C704.106 402.922, 703.614 419.531, 705 445 M705 386 C704.361 409.839, 703.797 433.814, 705 445 M705 445 C706.605 445.326, 703.457 449.171, 702 448 M705 445 C704.328 445.641, 701.284 445.833, 702 448 M702 448 C651.894 447.021, 599.902 446.331, 558 448 M702 448 C661.438 448.524, 621.725 447.844, 558 448 M558 448 C554.784 449.875, 553.688 447.177, 555 445 M558 448 C555.702 446.807, 556.483 445.437, 555 445 M555 445 C554.062 427.711, 554.78 413.419, 555 386 M555 445 C555.212 429.303, 554.51 412.238, 555 386 M555 386 C554.174 383.76, 558.643 381.482, 558 383 M555 386 C557.009 385.082, 558.728 383.288, 558 383 M558 383 C558 383, 558 383, 558 383 M558 383 C558 383, 558 383, 558 383" stroke="rgb(218, 206, 243)" stroke-width="1" fill="none"></path></g><g class="text-container" transform="matrix(1 0 0 1 50 10)"><text style="text-anchor: middle; font-size: 16px; font-weight: 400;font-style: normal;font-weight: 400;font-size: 16px;font-family: Comic Sans MS, cursive;" class="actor actor-box" alignment-baseline="central" dominant-baseline="central" y="405.5" x="580" stroke="rgb(218, 206, 243)" stroke-width="1px" fill="rgb(236, 236, 255)" text-anchor="middle"><tspan dy="0" x="580" stroke="none" stroke-width="1px" fill="rgb(0, 0, 0)" text-anchor="middle" dominant-baseline="central">PatientService</tspan></text></g><g><path d="M292.186 382.837 C292.186 382.837, 292.186 382.837, 292.186 382.837 M292.186 382.837 C292.186 382.837, 292.186 382.837, 292.186 382.837 M291.149 387.729 C292.993 386.753, 295.491 384.164, 296.419 383.121 M291.149 387.729 C292.57 386.609, 293.484 385.769, 296.419 383.121 M290.865 391.962 C295.659 389.588, 300.361 385.92, 301.405 382.747 M290.865 391.962 C294.753 389.38, 297.72 385.564, 301.405 382.747 M290.581 396.195 C297.358 392.711, 303.602 385.418, 305.638 383.031 M290.581 396.195 C295.697 391.252, 302.137 386.476, 305.638 383.031 M291.05 399.77 C294.916 396.794, 302.091 390.034, 309.871 383.315 M291.05 399.77 C295.551 395.102, 301.038 390.822, 309.871 383.315 M290.766 404.003 C296.555 397.324, 304.655 393.638, 314.857 382.941 M290.766 404.003 C297.586 398.047, 303.393 393.626, 314.857 382.941 M290.482 408.236 C296.948 400.952, 304.289 394.164, 319.091 383.225 M290.482 408.236 C301.109 398.923, 311.162 391.07, 319.091 383.225 M290.951 411.811 C298.06 405.054, 309.122 397.822, 324.077 382.851 M290.951 411.811 C304.312 401.206, 317.659 390.183, 324.077 382.851 M290.667 416.044 C298.622 407.653, 307.629 400.705, 328.31 383.135 M290.667 416.044 C305.142 403.877, 317.877 392.265, 328.31 383.135 M291.135 419.619 C302.614 407.881, 314.9 396.58, 333.296 382.761 M291.135 419.619 C305.182 407.077, 320.745 395.135, 333.296 382.761 M290.851 423.852 C300.457 413.551, 311.375 403.527, 337.529 383.045 M290.851 423.852 C303.63 412.798, 315.076 403.943, 337.529 383.045 M290.567 428.085 C304.556 413.37, 322.434 403.147, 341.762 383.329 M290.567 428.085 C308.952 410.689, 328.532 393.708, 341.762 383.329 M291.036 431.66 C306.543 419.005, 324.757 404.866, 346.748 382.955 M291.036 431.66 C311.995 412.863, 334.356 392.708, 346.748 382.955 M290.752 435.893 C310.331 415.976, 332.514 399.308, 350.981 383.239 M290.752 435.893 C313.621 415.107, 337.137 394.996, 350.981 383.239 M290.468 440.126 C306.832 423.513, 324.895 409.016, 355.967 382.865 M290.468 440.126 C311.047 422.273, 333.858 403.315, 355.967 382.865 M289.431 445.018 C310.094 426.55, 331.3 408.731, 360.2 383.149 M289.431 445.018 C303.942 432.721, 318.037 419.637, 360.2 383.149 M290.653 447.935 C318.906 424.335, 348.078 398.493, 364.433 383.433 M290.653 447.935 C308.734 432.059, 327.619 415.718, 364.433 383.433 M295.639 447.56 C318.062 424.763, 344.54 404.613, 369.419 383.059 M295.639 447.56 C323.712 423.163, 354.027 396.772, 369.419 383.059 M299.872 447.844 C328.918 424.511, 353.348 398.54, 373.652 383.343 M299.872 447.844 C314.619 433.602, 329.493 420.224, 373.652 383.343 M304.858 447.47 C327.695 427.749, 353.784 408.251, 378.638 382.969 M304.858 447.47 C322.124 433.334, 339.052 418.366, 378.638 382.969 M309.091 447.754 C329.095 429.754, 348.215 414.28, 382.871 383.253 M309.091 447.754 C333.807 425.741, 357.174 403.978, 382.871 383.253 M313.324 448.038 C341.418 422.71, 372.457 395.989, 387.857 382.879 M313.324 448.038 C334.947 428.728, 358.121 408.902, 387.857 382.879 M318.31 447.664 C344.744 425.242, 367.837 403.356, 392.091 383.163 M318.31 447.664 C344.633 422.58, 372.06 399.654, 392.091 383.163 M322.543 447.948 C338.225 435.83, 353.251 421.472, 396.324 383.447 M322.543 447.948 C338.279 433.121, 353.983 418.818, 396.324 383.447 M327.529 447.574 C356.547 421.882, 384.478 397.487, 401.31 383.073 M327.529 447.574 C344.319 433.119, 361.771 418.726, 401.31 383.073 M331.762 447.858 C358.125 423.308, 384.223 400.893, 405.543 383.357 M331.762 447.858 C357.039 424.413, 381.776 402.235, 405.543 383.357 M335.995 448.142 C363.918 426.566, 389.478 399.553, 410.529 382.983 M335.995 448.142 C357.563 428.997, 377.637 411.577, 410.529 382.983 M340.981 447.768 C361.476 431.792, 382.881 413.671, 414.762 383.267 M340.981 447.768 C357.76 433.577, 373.938 417.224, 414.762 383.267 M345.215 448.052 C364.018 431.257, 382.105 416.289, 418.995 383.551 M345.215 448.052 C369.626 427.437, 392.846 407.159, 418.995 383.551 M350.201 447.678 C379.626 421.091, 407.504 394.946, 423.981 383.176 M350.201 447.678 C364.199 435.627, 380.307 422.47, 423.981 383.176 M354.434 447.962 C377.923 426.031, 404.453 405.551, 428.214 383.461 M354.434 447.962 C383.759 424.092, 411.212 398.387, 428.214 383.461 M359.42 447.588 C386.807 423.454, 413.379 402.347, 433.2 383.086 M359.42 447.588 C390.202 421.132, 419.59 395.509, 433.2 383.086 M363.653 447.872 C382.83 431.655, 397.5 419.162, 437.433 383.37 M363.653 447.872 C390.244 425.141, 417.209 400.874, 437.433 383.37 M367.886 448.156 C385.574 435.903, 398.996 422.287, 438.655 386.287 M367.886 448.156 C393.163 426.48, 416.238 405.849, 438.655 386.287 M372.872 447.782 C396.898 425.986, 422.206 403.944, 440.629 388.546 M372.872 447.782 C397.546 426.477, 419.778 406.484, 440.629 388.546 M377.105 448.066 C391.063 436.33, 404.308 423.264, 441.098 392.121 M377.105 448.066 C399.113 427.735, 423.602 407.645, 441.098 392.121 M382.091 447.692 C400.524 432.551, 420.711 412.236, 440.814 396.354 M382.091 447.692 C403.108 430.087, 423.481 412.218, 440.814 396.354 M386.324 447.976 C403.946 432.301, 421.296 417.816, 441.283 399.929 M386.324 447.976 C403.282 431.805, 422.31 415.885, 441.283 399.929 M390.557 448.26 C407.299 432.98, 421.481 420.615, 440.999 404.162 M390.557 448.26 C410.993 430.352, 430.353 414.399, 440.999 404.162 M395.543 447.886 C406.463 437.058, 418.698 427.788, 440.715 408.395 M395.543 447.886 C406.097 437.696, 416.775 427.776, 440.715 408.395 M399.776 448.17 C408.542 442.607, 417.294 434.335, 441.184 411.97 M399.776 448.17 C408.271 440.395, 416.541 434.05, 441.184 411.97 M404.762 447.796 C416.164 436.256, 426.882 429.407, 440.9 416.203 M404.762 447.796 C420.156 435.35, 433.997 423.498, 440.9 416.203 M408.995 448.08 C421.239 437.176, 429.931 430.832, 440.616 420.436 M408.995 448.08 C419.679 438.084, 430.487 429.497, 440.616 420.436 M413.981 447.706 C422.477 442.349, 428.406 432.902, 441.084 424.011 M413.981 447.706 C420.324 440.808, 428.77 435.548, 441.084 424.011 M418.215 447.99 C422.613 442.397, 427.396 439.367, 440.8 428.244 M418.215 447.99 C425.663 440.821, 432.95 434.781, 440.8 428.244 M422.448 448.274 C428.034 443.773, 433.707 437.731, 440.516 432.477 M422.448 448.274 C426.709 444.228, 431.817 440.318, 440.516 432.477 M427.434 447.9 C431.781 446.038, 433.671 442.861, 440.985 436.052 M427.434 447.9 C431.146 444.6, 435.154 441.634, 440.985 436.052 M431.667 448.184 C435.585 445.03, 438.12 441.995, 440.701 440.285 M431.667 448.184 C434.63 445.364, 437.412 443.475, 440.701 440.285 M435.9 448.468 C436.424 447.315, 438.521 446.561, 440.417 444.519 M435.9 448.468 C437.128 447.393, 438.288 446.318, 440.417 444.519" stroke="rgb(236, 236, 255)" stroke-width="2.747" fill="none"></path><path d="M292 383 C340.554 381.727, 387.028 384.419, 436 383 M292 383 C329.194 384.682, 366.235 383.182, 436 383 M436 383 C438.396 382.363, 439.693 385.431, 439 386 M436 383 C437.03 381.081, 440.882 385.302, 439 386 M439 386 C441.41 401.376, 439.383 419.115, 439 445 M439 386 C438.371 404.901, 439.577 424.014, 439 445 M439 445 C440.495 447.755, 436.676 448.047, 436 448 M439 445 C440.184 444.839, 435.516 446.565, 436 448 M436 448 C382.476 448.229, 326.342 446.158, 292 448 M436 448 C398.892 447.923, 362.848 448.082, 292 448 M292 448 C290.074 449.915, 290.744 446.543, 289 445 M292 448 C292.516 448.761, 290.924 446.521, 289 445 M289 445 C286.994 425.094, 286.486 401.276, 289 386 M289 445 C289.265 427.131, 288.663 409.811, 289 386 M289 386 C287.483 386.107, 290.177 383.666, 292 383 M289 386 C289.78 382.911, 291.792 384.856, 292 383 M292 383 C292 383, 292 383, 292 383 M292 383 C292 383, 292 383, 292 383" stroke="rgb(218, 206, 243)" stroke-width="1" fill="none"></path></g><g class="text-container" transform="matrix(1 0 0 1 50 10)"><text style="text-anchor: middle; font-size: 16px; font-weight: 400;font-style: normal;font-weight: 400;font-size: 16px;font-family: Comic Sans MS, cursive;" class="actor actor-box" alignment-baseline="central" dominant-baseline="central" y="405.5" x="314" stroke="rgb(218, 206, 243)" stroke-width="1px" fill="rgb(236, 236, 255)" text-anchor="middle"><tspan dy="0" x="314" stroke="none" stroke-width="1px" fill="rgb(0, 0, 0)" text-anchor="middle" dominant-baseline="central">APIGateway</tspan></text></g><g><path d="M49.786 386.27 C49.786 386.27, 49.786 386.27, 49.786 386.27 M49.786 386.27 C49.786 386.27, 49.786 386.27, 49.786 386.27 M49.983 394.078 C50.852 390.562, 54.534 389.299, 58.671 383.1 M49.983 394.078 C52.767 389.618, 56.153 385.183, 58.671 383.1 M50.181 401.886 C52.1 397.967, 57.19 391.247, 65.074 383.066 M50.181 401.886 C53.552 396.798, 58.817 390.979, 65.074 383.066 M49.758 410.478 C53.075 405.973, 61.138 398.082, 71.477 383.032 M49.758 410.478 C56.97 399.945, 65.828 391.324, 71.477 383.032 M49.955 418.286 C59.647 406.087, 73.104 392.131, 77.88 382.999 M49.955 418.286 C60.526 405.436, 70.128 391, 77.88 382.999 M50.152 426.093 C61.127 411.538, 74.099 397.938, 83.663 383.749 M50.152 426.093 C59.239 415.149, 69.516 402.169, 83.663 383.749 M49.729 434.685 C62.353 418.9, 75.577 403.337, 90.066 383.715 M49.729 434.685 C64.643 415.431, 81.218 395.422, 90.066 383.715 M49.927 442.493 C64.632 424.256, 76.708 408.264, 96.469 383.681 M49.927 442.493 C64.211 425.155, 77.262 407.012, 96.469 383.681 M51.986 447.948 C68.275 426.271, 84.481 410.095, 102.872 383.648 M51.986 447.948 C72.334 422.509, 92.483 395.855, 102.872 383.648 M58.389 447.914 C73.305 429.833, 88.952 406.951, 109.275 383.614 M58.389 447.914 C76.284 424.921, 95.304 399.324, 109.275 383.614 M64.792 447.881 C81.951 424.361, 97.605 404.814, 115.678 383.58 M64.792 447.881 C75.884 433.751, 88.159 418.586, 115.678 383.58 M71.195 447.847 C82.747 431.752, 97.63 417.954, 122.081 383.546 M71.195 447.847 C88.536 425.894, 103.921 404.597, 122.081 383.546 M77.598 447.813 C91.509 429.877, 103.563 417.208, 128.484 383.512 M77.598 447.813 C89.801 431.309, 103.395 415.507, 128.484 383.512 M84.001 447.779 C96.341 430.386, 112.829 411.93, 134.887 383.479 M84.001 447.779 C102.236 423.915, 120.773 400.311, 134.887 383.479 M90.404 447.745 C107.536 425.514, 128.496 403.518, 141.29 383.445 M90.404 447.745 C107.87 424.6, 128.341 400.808, 141.29 383.445 M96.807 447.712 C108.059 434.105, 115.851 421.918, 147.693 383.411 M96.807 447.712 C110.449 430.801, 124.739 411.821, 147.693 383.411 M103.21 447.678 C122.353 421.389, 140.487 399.43, 154.096 383.377 M103.21 447.678 C123.518 421.611, 143.155 397.109, 154.096 383.377 M109.613 447.644 C120.216 433.64, 131.301 422.699, 160.499 383.343 M109.613 447.644 C121.866 434.711, 132.572 420.961, 160.499 383.343 M115.395 448.395 C131.692 430.53, 144.526 410.79, 166.902 383.31 M115.395 448.395 C129.748 430.893, 142.987 415.296, 166.902 383.31 M121.798 448.361 C136.51 429.386, 152.03 411.034, 173.305 383.276 M121.798 448.361 C139.56 426.633, 155.663 405.873, 173.305 383.276 M128.201 448.327 C143.593 431.721, 157.558 413.906, 179.708 383.242 M128.201 448.327 C146.459 423.789, 165.367 399.791, 179.708 383.242 M134.605 448.293 C150.979 427.753, 169.409 402.361, 186.111 383.208 M134.605 448.293 C152.039 427.181, 170.015 405.206, 186.111 383.208 M141.008 448.259 C154.048 432.345, 163.609 420.553, 191.894 383.959 M141.008 448.259 C156.783 427.629, 171.69 408.136, 191.894 383.959 M147.411 448.226 C160.764 430.508, 177.791 413.743, 198.297 383.925 M147.411 448.226 C163.401 429.528, 178.387 408.648, 198.297 383.925 M153.814 448.192 C167.971 429.526, 182.647 409.054, 200.356 389.38 M153.814 448.192 C165.733 433.043, 178.89 418.472, 200.356 389.38 M160.217 448.158 C174.977 429.836, 190.023 413.404, 199.933 397.972 M160.217 448.158 C170.979 433.383, 182.618 419.864, 199.933 397.972 M166.62 448.124 C177.395 433.031, 187.649 419.487, 200.13 405.78 M166.62 448.124 C178.212 433.593, 189.469 419.77, 200.13 405.78 M173.023 448.09 C184.273 434.557, 191.044 423.131, 200.328 413.588 M173.023 448.09 C178.828 439.882, 184.47 432.442, 200.328 413.588 M179.426 448.057 C187.315 439.636, 192.133 430.326, 199.904 422.18 M179.426 448.057 C184.488 442.257, 188.192 436.017, 199.904 422.18 M185.829 448.023 C189.28 446.3, 193.41 439.556, 200.102 429.987 M185.829 448.023 C191.94 441.081, 197.227 434.414, 200.102 429.987 M192.232 447.989 C196.559 444.878, 198.346 440.543, 200.299 437.795 M192.232 447.989 C195.139 444.919, 197.678 440.835, 200.299 437.795" stroke="rgb(236, 236, 255)" stroke-width="1.817" fill="none"></path><path d="M53 383 C84.131 383.361, 120.948 383.075, 197 383 M53 383 C92.267 382.875, 132.378 383.113, 197 383 M197 383 C197.86 383.779, 200.118 382.956, 200 386 M197 383 C198.118 381.608, 201.28 386.007, 200 386 M200 386 C200.337 403.603, 200.657 420.008, 200 445 M200 386 C201.034 400.586, 200.437 413.14, 200 445 M200 445 C198.326 447.642, 199.712 449.556, 197 448 M200 445 C198.068 447.571, 197.187 449.156, 197 448 M197 448 C139.916 448.304, 84.879 447.426, 53 448 M197 448 C153.15 448.778, 109.609 449.822, 53 448 M53 448 C52.977 449.211, 50.325 446.351, 50 445 M53 448 C51.521 449.014, 48.238 447.593, 50 445 M50 445 C50.248 430.65, 50.685 415.133, 50 386 M50 445 C50.882 423.799, 49.663 401.138, 50 386 M50 386 C48.429 383.602, 52.667 384.812, 53 383 M50 386 C49.93 383.88, 51.127 382.086, 53 383 M53 383 C53 383, 53 383, 53 383 M53 383 C53 383, 53 383, 53 383" stroke="rgb(218, 206, 243)" stroke-width="1" fill="none"></path></g><g class="text-container" transform="matrix(1 0 0 1 50 10)"><text style="text-anchor: middle; font-size: 16px; font-weight: 400;font-style: normal;font-weight: 400;font-size: 16px;font-family: Comic Sans MS, cursive;" class="actor actor-box" alignment-baseline="central" dominant-baseline="central" y="405.5" x="75" stroke="rgb(218, 206, 243)" stroke-width="1px" fill="rgb(236, 236, 255)" text-anchor="middle"><tspan dy="0" x="75" stroke="none" stroke-width="1px" fill="rgb(0, 0, 0)" text-anchor="middle" dominant-baseline="central">Client</tspan></text></g><g><path d="M858.28 74.335 C858.22 168.546, 859.855 265.207, 859.356 383.985" stroke="rgb(218, 206, 243)" stroke-width="2" fill="none"></path></g><g><path d="M782.724 13.405 C782.724 13.405, 782.724 13.405, 782.724 13.405 M782.724 13.405 C782.724 13.405, 782.724 13.405, 782.724 13.405 M782.948 18.4 C783.467 16.234, 784.841 14.097, 788.02 10.965 M782.948 18.4 C784.739 15.629, 787.296 12.569, 788.02 10.965 M783.172 23.395 C784.005 19.282, 787.209 18.624, 791.625 11.003 M783.172 23.395 C786.582 18.762, 789.234 14.677, 791.625 11.003 M782.833 29.216 C784.669 24.159, 788.659 20.251, 795.23 11.042 M782.833 29.216 C786.36 24.549, 790.27 19.072, 795.23 11.042 M783.057 34.211 C787.128 29.14, 788.688 24.653, 798.836 11.08 M783.057 34.211 C786.429 28.933, 790.112 25.282, 798.836 11.08 M783.281 39.206 C790.926 30.279, 796.756 23.527, 802.441 11.118 M783.281 39.206 C787.619 31.778, 793.54 24.087, 802.441 11.118 M782.942 45.027 C790.277 32.665, 797.66 22.705, 806.046 11.157 M782.942 45.027 C792.025 30.787, 801.697 17.429, 806.046 11.157 M783.167 50.022 C791.167 36.139, 802.436 23.723, 809.652 11.195 M783.167 50.022 C793.55 34.464, 804.978 20.039, 809.652 11.195 M782.827 55.843 C791.663 44.336, 796.857 35.142, 813.257 11.233 M782.827 55.843 C791.992 42.844, 801.698 28.351, 813.257 11.233 M783.052 60.838 C792.552 46.902, 804.566 30.834, 816.862 11.272 M783.052 60.838 C792.512 46.235, 801.838 32.214, 816.862 11.272 M783.276 65.833 C792.907 49.731, 804.048 31.421, 820.468 11.31 M783.276 65.833 C789.591 55.979, 796.795 44.746, 820.468 11.31 M782.937 71.654 C796.343 53.249, 805.498 35.601, 824.073 11.348 M782.937 71.654 C794.625 53.6, 807.024 36.302, 824.073 11.348 M785.415 73.345 C799.338 54.714, 809.573 35.886, 827.678 11.387 M785.415 73.345 C796.941 58.813, 806.573 42.033, 827.678 11.387 M787.33 75.861 C796.791 60.927, 808.378 42.294, 831.284 11.425 M787.33 75.861 C802.331 53.547, 819.533 30.255, 831.284 11.425 M790.935 75.9 C806.834 52.93, 823.085 27.336, 834.889 11.463 M790.935 75.9 C802.318 59.513, 815.006 42.766, 834.889 11.463 M794.54 75.938 C807.419 53.08, 821.501 31.966, 838.494 11.502 M794.54 75.938 C808.101 53.745, 823.862 33.022, 838.494 11.502 M798.146 75.976 C810.749 56.604, 820.287 39.93, 842.1 11.54 M798.146 75.976 C816.165 50.05, 832.244 25.228, 842.1 11.54 M801.751 76.015 C816.262 53.953, 834.874 28.188, 845.705 11.578 M801.751 76.015 C818.55 51.249, 836.946 25.927, 845.705 11.578 M805.356 76.053 C820.603 54.423, 834.565 31.518, 849.31 11.617 M805.356 76.053 C822.568 52.551, 838.841 28.684, 849.31 11.617 M808.962 76.091 C824.074 53.243, 840.693 34.484, 852.916 11.655 M808.962 76.091 C824.054 52.841, 841.091 28.538, 852.916 11.655 M812.567 76.13 C824.248 58.774, 832.822 42.784, 856.521 11.693 M812.567 76.13 C822.393 63.527, 829.962 50.147, 856.521 11.693 M816.173 76.168 C835.201 50.185, 848.727 25.739, 860.126 11.732 M816.173 76.168 C831.822 53.837, 845.253 32.599, 860.126 11.732 M819.778 76.206 C835.447 55.025, 850.085 32.504, 863.732 11.77 M819.778 76.206 C829.265 63.252, 837.611 48.626, 863.732 11.77 M823.383 76.245 C833.43 61.299, 841.069 49.89, 867.337 11.808 M823.383 76.245 C836.008 58.386, 846.963 42.622, 867.337 11.808 M826.989 76.283 C842.592 55.647, 856.982 33.431, 871.506 11.02 M826.989 76.283 C844.844 50.204, 861.871 23.443, 871.506 11.02 M830.594 76.321 C842.804 55.292, 859.436 36.291, 875.111 11.059 M830.594 76.321 C842.182 58.612, 855.628 40.311, 875.111 11.059 M834.199 76.36 C849.453 54.974, 863.606 33.196, 878.717 11.097 M834.199 76.36 C850.874 53.099, 866.86 28.694, 878.717 11.097 M837.805 76.398 C853.127 55.23, 865.689 36.261, 882.322 11.135 M837.805 76.398 C852.559 54.318, 869.125 31.182, 882.322 11.135 M841.41 76.436 C851.5 59.721, 861.726 43.304, 885.927 11.174 M841.41 76.436 C851.016 63.124, 859.302 48.618, 885.927 11.174 M845.015 76.475 C859.255 55.293, 874.583 33.28, 889.533 11.212 M845.015 76.475 C854.469 62.229, 864.549 47.164, 889.533 11.212 M848.621 76.513 C860.565 58.01, 874.342 36.858, 893.138 11.25 M848.621 76.513 C865.136 54.222, 879.626 32.187, 893.138 11.25 M852.226 76.551 C864.144 60.179, 876.567 38.778, 896.743 11.289 M852.226 76.551 C868.405 51.643, 887.181 24.899, 896.743 11.289 M855.831 76.589 C871.085 54.767, 884.517 35.397, 900.349 11.327 M855.831 76.589 C872.08 53.043, 888.44 27.831, 900.349 11.327 M859.437 76.628 C869.025 59.835, 880.17 45.847, 903.954 11.365 M859.437 76.628 C869.99 61.679, 881.97 43.489, 903.954 11.365 M863.042 76.666 C874.077 60.45, 884.398 45.577, 907.559 11.404 M863.042 76.666 C872.746 63.791, 881.211 49.872, 907.559 11.404 M866.647 76.704 C875.566 60.481, 889.82 44.834, 911.165 11.442 M866.647 76.704 C877.261 60.334, 887.57 45.655, 911.165 11.442 M870.253 76.743 C885.387 52.433, 905.42 27.754, 914.77 11.48 M870.253 76.743 C883.99 56.566, 896.811 38.405, 914.77 11.48 M873.858 76.781 C884.703 57.245, 897.939 41.746, 918.376 11.519 M873.858 76.781 C888.303 54.972, 903.868 33.549, 918.376 11.519 M877.463 76.819 C888.616 60.959, 901.721 42.669, 921.981 11.557 M877.463 76.819 C892.872 52.685, 908.561 31.035, 921.981 11.557 M881.632 76.032 C892.89 57.94, 905.008 41.172, 925.586 11.595 M881.632 76.032 C892.468 57.726, 905.073 40.284, 925.586 11.595 M885.238 76.07 C896.562 60.264, 903.46 48.417, 929.192 11.634 M885.238 76.07 C900.383 54.986, 914.78 33.271, 929.192 11.634 M888.843 76.108 C896.629 61.628, 909.01 49.156, 932.797 11.672 M888.843 76.108 C898.786 62.239, 909.925 46.964, 932.797 11.672 M892.448 76.147 C907.676 53.948, 918.9 35.212, 934.712 14.188 M892.448 76.147 C904.989 58.422, 917.366 39.728, 934.712 14.188 M896.054 76.185 C908.476 60.446, 920.71 42.322, 934.936 19.183 M896.054 76.185 C910.879 54.269, 927.18 30.783, 934.936 19.183 M899.659 76.223 C911.494 63.461, 920.836 46.492, 934.597 25.005 M899.659 76.223 C910.443 59.424, 921.726 43.263, 934.597 25.005 M903.264 76.262 C913.773 62.354, 920.015 50.013, 934.821 29.999 M903.264 76.262 C913.201 61.651, 923.453 46.265, 934.821 29.999 M906.87 76.3 C915.71 62.38, 926.473 45.001, 934.482 35.821 M906.87 76.3 C914.318 67.043, 920.757 56.271, 934.482 35.821 M910.475 76.338 C915.868 69.293, 923.141 59.134, 934.706 40.816 M910.475 76.338 C919.206 63.775, 929.014 49.617, 934.706 40.816 M914.08 76.377 C922.092 66.854, 927.318 55.769, 934.367 46.637 M914.08 76.377 C920.58 64.793, 929.066 53.531, 934.367 46.637 M917.686 76.415 C920.367 69.959, 924.844 65.494, 934.591 51.632 M917.686 76.415 C923.461 67.016, 930.04 58.88, 934.591 51.632 M921.291 76.453 C923.344 72.744, 927.287 64.877, 934.252 57.453 M921.291 76.453 C925.511 71.378, 927.178 66.3, 934.252 57.453 M924.896 76.491 C927.678 72.031, 931.552 69.789, 934.476 62.448 M924.896 76.491 C927.691 73.265, 929.786 69.239, 934.476 62.448 M928.502 76.53 C929.609 73.932, 932.478 71.152, 934.7 67.443 M928.502 76.53 C931.162 73.202, 932.818 69.026, 934.7 67.443" stroke="rgb(236, 236, 255)" stroke-width="1.884" fill="none"></path><path d="M786 10 C840.91 11.202, 893.346 9.327, 930 10 M786 10 C842.564 9.483, 900.558 10.119, 930 10 M930 10 C930.889 11.215, 934.008 13.079, 933 13 M930 10 C933.413 8.224, 932.027 10.206, 933 13 M933 13 C932.104 34.578, 932.497 57.777, 933 72 M933 13 C933.79 28.311, 933.25 42.196, 933 72 M933 72 C934.46 73.001, 930.829 75.406, 930 75 M933 72 C935.039 74.248, 933.363 73.079, 930 75 M930 75 C900.322 75.482, 868.549 73.956, 786 75 M930 75 C899.659 75.443, 868.602 74.771, 786 75 M786 75 C784.083 74.316, 783.721 72.154, 783 72 M786 75 C782.853 77.02, 784.225 71.086, 783 72 M783 72 C781.58 48.5, 783.061 24.498, 783 13 M783 72 C783.282 51.4, 782.537 29.552, 783 13 M783 13 C784.361 12.837, 785.097 11.128, 786 10 M783 13 C782.224 12.046, 785.454 11.554, 786 10 M786 10 C786 10, 786 10, 786 10 M786 10 C786 10, 786 10, 786 10" stroke="rgb(218, 206, 243)" stroke-width="1" fill="none"></path></g><g class="text-container" transform="matrix(1 0 0 1 50 10)"><text style="text-anchor: middle; font-size: 16px; font-weight: 400;font-style: normal;font-weight: 400;font-size: 16px;font-family: Comic Sans MS, cursive;" class="actor actor-box" alignment-baseline="central" dominant-baseline="central" y="32.5" x="808" stroke="rgb(218, 206, 243)" stroke-width="1px" fill="rgb(236, 236, 255)" text-anchor="middle"><tspan dy="0" x="808" stroke="none" stroke-width="1px" fill="rgb(0, 0, 0)" text-anchor="middle" dominant-baseline="central">PatientDatabase</tspan></text></g><g><path d="M631.244 75.366 C630.543 187.878, 629.786 302.807, 629.785 382.724" stroke="rgb(218, 206, 243)" stroke-width="2" fill="none"></path></g><g><path d="M557.791 10.177 C557.791 10.177, 557.791 10.177, 557.791 10.177 M557.791 10.177 C557.791 10.177, 557.791 10.177, 557.791 10.177 M555.683 18.517 C559.165 16.29, 563.172 11.241, 565.601 10.113 M555.683 18.517 C557.25 17.446, 560.489 15.117, 565.601 10.113 M555.1 25.564 C559.97 18.51, 568.763 15.513, 573.411 10.049 M555.1 25.564 C561.684 21.005, 567.902 14.46, 573.411 10.049 M555.28 31.964 C566.348 24.446, 573.62 14.186, 581.221 9.985 M555.28 31.964 C562.704 25.744, 567.629 20.94, 581.221 9.985 M555.461 38.365 C564.509 28.954, 574.524 20.442, 589.031 9.922 M555.461 38.365 C565.209 30.793, 572.925 23.001, 589.031 9.922 M555.641 44.765 C563.971 38.21, 573.634 30.424, 596.841 9.858 M555.641 44.765 C565.129 35.631, 575.711 28.793, 596.841 9.858 M555.058 51.812 C568.189 40.505, 581.345 29.889, 604.651 9.794 M555.058 51.812 C572.396 38.205, 588.177 22.629, 604.651 9.794 M555.239 58.213 C571.431 45.292, 584.623 34.277, 611.698 10.377 M555.239 58.213 C576.629 40.575, 596.993 22.131, 611.698 10.377 M555.419 64.614 C577.014 49.158, 598.546 29.207, 619.508 10.313 M555.419 64.614 C577.908 45.044, 599.614 27.459, 619.508 10.313 M555.599 71.014 C570.269 58.712, 585.346 43.179, 627.318 10.249 M555.599 71.014 C572.427 57.175, 589.407 42.732, 627.318 10.249 M558.831 74.829 C584.703 51.323, 608.89 31.044, 635.128 10.186 M558.831 74.829 C586.29 51.441, 614.663 28.701, 635.128 10.186 M566.641 74.765 C597.546 49.911, 625.632 25.759, 642.938 10.122 M566.641 74.765 C590.841 54.123, 615.257 33.064, 642.938 10.122 M573.688 75.348 C587.788 63.673, 604.672 46.549, 650.748 10.058 M573.688 75.348 C599.541 52.703, 624.555 31.451, 650.748 10.058 M581.498 75.284 C608.514 51.573, 633.711 31.872, 658.558 9.994 M581.498 75.284 C604.806 55.049, 626.713 35.684, 658.558 9.994 M589.308 75.22 C620.425 48.32, 652.634 21.823, 666.368 9.931 M589.308 75.22 C615.98 52.917, 642.463 30.494, 666.368 9.931 M597.118 75.157 C614.706 61.009, 629.691 49.044, 673.415 10.513 M597.118 75.157 C623.707 52.353, 651.419 29.804, 673.415 10.513 M604.928 75.093 C626.024 54.534, 649.82 37.458, 681.225 10.45 M604.928 75.093 C625.241 57.93, 643.669 41.671, 681.225 10.45 M612.738 75.029 C640 53.751, 663.249 31.74, 689.035 10.386 M612.738 75.029 C635.25 55.197, 659.986 34.388, 689.035 10.386 M620.548 74.965 C642.74 57.044, 664.778 36.047, 696.845 10.322 M620.548 74.965 C648.262 51.889, 676.659 27.651, 696.845 10.322 M628.358 74.902 C658.464 48.796, 685.517 24.697, 703.892 10.905 M628.358 74.902 C647.196 59.145, 664.234 44.896, 703.892 10.905 M636.168 74.838 C657.829 56.299, 677.753 37.894, 705.599 16.013 M636.168 74.838 C655.574 58.374, 675.336 41.957, 705.599 16.013 M643.215 75.421 C666.231 54.579, 687.863 35.051, 705.779 22.413 M643.215 75.421 C658.725 61.977, 674.065 49.228, 705.779 22.413 M651.025 75.357 C668.25 60.227, 683.452 50.312, 705.196 29.46 M651.025 75.357 C664.381 64.079, 677.082 52.819, 705.196 29.46 M658.835 75.293 C676.064 59.644, 690.934 47.127, 705.376 35.861 M658.835 75.293 C671.491 63.347, 686.774 51.161, 705.376 35.861 M666.645 75.229 C677.869 64.684, 688.795 57.019, 705.557 42.261 M666.645 75.229 C676.13 68.913, 683.599 60.357, 705.557 42.261 M674.455 75.166 C683.117 66.731, 689.997 62.953, 704.974 49.308 M674.455 75.166 C684.605 67.218, 693.894 60.421, 704.974 49.308 M682.265 75.102 C688.114 67.879, 696.764 61.696, 705.154 55.709 M682.265 75.102 C687.967 69.975, 693.373 66.822, 705.154 55.709 M690.075 75.038 C692.797 69.208, 698.696 65.465, 705.335 62.11 M690.075 75.038 C695.169 69.333, 701.547 66.2, 705.335 62.11 M697.885 74.974 C700.738 72.691, 702.053 71.825, 705.515 68.51 M697.885 74.974 C699.453 72.97, 701.686 72.192, 705.515 68.51" stroke="rgb(236, 236, 255)" stroke-width="1.754" fill="none"></path><path d="M558 10 C601.753 10.456, 648.524 12.107, 702 10 M702 10 C705.092 9.844, 705.742 10.295, 705 13 M705 13 C706.046 30.795, 703.123 45.987, 705 72 M705 72 C704.551 73.891, 703.901 74.107, 702 75 M702 75 C669.869 74.778, 638.948 72.608, 558 75 M558 75 C557.948 73.472, 556.657 73.481, 555 72 M555 72 C554.64 51.848, 553.607 35.575, 555 13 M555 13 C553.224 11.171, 555.012 10.649, 558 10 M558 10 C558 10, 558 10, 558 10" stroke="rgb(218, 206, 243)" stroke-width="1" fill="none"></path></g><g class="text-container" transform="matrix(1 0 0 1 50 10)"><text style="text-anchor: middle; font-size: 16px; font-weight: 400;font-style: normal;font-weight: 400;font-size: 16px;font-family: Comic Sans MS, cursive;" class="actor actor-box" alignment-baseline="central" dominant-baseline="central" y="32.5" x="580" stroke="rgb(218, 206, 243)" stroke-width="1px" fill="rgb(236, 236, 255)" text-anchor="middle"><tspan dy="0" x="580" stroke="none" stroke-width="1px" fill="rgb(0, 0, 0)" text-anchor="middle" dominant-baseline="central">PatientService</tspan></text></g><g><path d="M362.576 75.138 C362.767 197.14, 362.611 317.251, 364.049 384.065" stroke="rgb(218, 206, 243)" stroke-width="2" fill="none"></path></g><g><path d="M289.048 12.934 C289.048 12.934, 289.048 12.934, 289.048 12.934 M289.048 12.934 C289.048 12.934, 289.048 12.934, 289.048 12.934 M288.74 20.139 C290.848 16.904, 292.66 14.319, 294.637 12.063 M288.74 20.139 C291.061 17.66, 292.708 14.725, 294.637 12.063 M289.023 26.536 C292.66 23.953, 295.755 19.372, 299.637 11.998 M289.023 26.536 C290.695 23.197, 293.471 19.888, 299.637 11.998 M288.715 33.74 C294.098 24.386, 300.273 18.985, 304.636 11.934 M288.715 33.74 C292.276 27.112, 297.944 21.251, 304.636 11.934 M288.997 40.137 C295.716 32.313, 300.762 21.439, 309.636 11.87 M288.997 40.137 C294.864 32.428, 300.585 23.759, 309.636 11.87 M289.279 46.534 C296.586 37.083, 301.552 30.443, 314.636 11.806 M289.279 46.534 C296.209 35.768, 305.135 25.067, 314.636 11.806 M288.972 53.739 C296.021 43.962, 301.704 36.39, 319.635 11.742 M288.972 53.739 C296.874 40.887, 306.352 29.838, 319.635 11.742 M289.254 60.136 C300.873 42.729, 315.443 22.478, 324.635 11.677 M289.254 60.136 C298.997 47.823, 305.985 37.079, 324.635 11.677 M288.946 67.34 C296.863 53.971, 306.152 43.874, 329.045 12.421 M288.946 67.34 C304.416 46.247, 319.746 25.915, 329.045 12.421 M289.818 72.929 C305.06 52.447, 316.017 34.208, 334.044 12.357 M289.818 72.929 C301.355 56.749, 312.147 42.612, 334.044 12.357 M292.459 76.096 C302.363 58.888, 316.844 42.938, 339.044 12.293 M292.459 76.096 C309.554 54.682, 324.218 31.557, 339.044 12.293 M297.459 76.032 C306.704 60.013, 318.66 44.198, 344.043 12.228 M297.459 76.032 C314.458 53.435, 331.867 29.247, 344.043 12.228 M302.458 75.967 C316.88 58.636, 329.18 42.077, 349.043 12.164 M302.458 75.967 C319.411 50.683, 338.218 27.596, 349.043 12.164 M307.458 75.903 C322.731 54.657, 341.039 30.188, 354.043 12.1 M307.458 75.903 C325.1 51.652, 343.604 25.433, 354.043 12.1 M312.457 75.839 C326.727 54.715, 345.204 32.265, 359.042 12.036 M312.457 75.839 C327.294 54.302, 343.056 34.739, 359.042 12.036 M317.457 75.775 C328.88 60.186, 336.112 49.936, 364.042 11.972 M317.457 75.775 C331.289 56.303, 345.932 36.33, 364.042 11.972 M322.457 75.711 C340.079 53.454, 353.276 32.62, 369.041 11.907 M322.457 75.711 C335.325 57.938, 348.123 39.961, 369.041 11.907 M327.456 75.646 C340.355 58.251, 352.174 45.188, 374.041 11.843 M327.456 75.646 C342.576 54.491, 358.521 31.87, 374.041 11.843 M331.866 76.39 C346.418 54.426, 361.781 36.934, 379.041 11.779 M331.866 76.39 C349.614 52.405, 364.871 29.402, 379.041 11.779 M336.866 76.326 C353.605 53.279, 372.882 26.972, 383.45 12.523 M336.866 76.326 C355.641 52.002, 371.96 28.701, 383.45 12.523 M341.865 76.262 C353.136 57.753, 366.917 41.869, 388.45 12.458 M341.865 76.262 C359.882 51.848, 376.339 27.971, 388.45 12.458 M346.865 76.197 C361.704 55.429, 374.911 36.955, 393.45 12.394 M346.865 76.197 C364.835 50.216, 382.668 25.185, 393.45 12.394 M351.864 76.133 C367.15 52.485, 384.548 33.644, 398.449 12.33 M351.864 76.133 C367.372 52.913, 383.994 31.999, 398.449 12.33 M356.864 76.069 C368.287 56.053, 382.032 39.154, 403.449 12.266 M356.864 76.069 C375.078 52.627, 392.249 29.428, 403.449 12.266 M361.864 76.005 C378.583 55.078, 392.176 36.164, 408.448 12.202 M361.864 76.005 C378.898 52.62, 397.023 30.381, 408.448 12.202 M366.863 75.941 C380.327 59.411, 395.525 39.24, 413.448 12.137 M366.863 75.941 C385.078 51.334, 402.438 26.788, 413.448 12.137 M371.863 75.876 C380.402 64.984, 390.713 51.214, 418.448 12.073 M371.863 75.876 C385.642 55.187, 400.352 35.937, 418.448 12.073 M376.862 75.812 C390.183 58.64, 399.566 41.853, 423.447 12.009 M376.862 75.812 C390.216 57.396, 403.899 39.771, 423.447 12.009 M381.862 75.748 C395.887 55.367, 410.952 36.041, 428.447 11.945 M381.862 75.748 C399.482 51.572, 415.828 28.497, 428.447 11.945 M386.272 76.492 C403.041 54.891, 420.761 29.495, 433.446 11.881 M386.272 76.492 C396.907 61.963, 407.92 46.792, 433.446 11.881 M391.271 76.427 C400.431 62.315, 410.351 48.337, 438.446 11.817 M391.271 76.427 C403.149 61.425, 413.818 45.116, 438.446 11.817 M396.271 76.363 C412.673 53.135, 431.827 30.022, 441.087 14.983 M396.271 76.363 C413.107 55.185, 427.289 33.65, 441.087 14.983 M401.271 76.299 C415.656 56.008, 431.029 33.288, 441.369 21.38 M401.271 76.299 C411.196 62.983, 420.274 51.048, 441.369 21.38 M406.27 76.235 C418.303 57.144, 433.739 39.704, 441.061 28.584 M406.27 76.235 C419.682 58.474, 432.26 42.713, 441.061 28.584 M411.27 76.171 C417.803 66, 424.015 55.5, 441.343 34.981 M411.27 76.171 C423.917 60.542, 434.939 44.24, 441.343 34.981 M416.269 76.106 C422.697 67.973, 429.656 58.803, 441.036 42.186 M416.269 76.106 C421.463 69.193, 427.169 60.956, 441.036 42.186 M421.269 76.042 C428.84 64.663, 437.267 55.529, 441.318 48.583 M421.269 76.042 C427.429 67.937, 431.684 62.094, 441.318 48.583 M426.269 75.978 C429.005 73.02, 431.061 66.498, 441.011 55.787 M426.269 75.978 C430.785 69.727, 436.953 61.451, 441.011 55.787 M431.268 75.914 C433.403 70.548, 436.101 67.16, 441.293 62.184 M431.268 75.914 C434.453 72.84, 437.875 68.793, 441.293 62.184 M436.857 75.042 C438.247 73.094, 438.6 71.76, 440.985 69.389 M436.857 75.042 C438.107 73.302, 439.721 71.117, 440.985 69.389" stroke="rgb(236, 236, 255)" stroke-width="1.926" fill="none"></path><path d="M292 10 C346.272 11.374, 405.056 8.995, 436 10 M436 10 C438.487 9.543, 438.181 10.217, 439 13 M439 13 C440.698 31.795, 437.185 46.64, 439 72 M439 72 C437.917 72.325, 435.372 75.17, 436 75 M436 75 C389.638 74.264, 341.353 76.354, 292 75 M292 75 C289.629 73.532, 288.685 73.81, 289 72 M289 72 C287.419 59.401, 286.838 47.885, 289 13 M289 13 C288.814 13.332, 291.352 11.162, 292 10 M292 10 C292 10, 292 10, 292 10" stroke="rgb(218, 206, 243)" stroke-width="1" fill="none"></path></g><g class="text-container" transform="matrix(1 0 0 1 50 10)"><text style="text-anchor: middle; font-size: 16px; font-weight: 400;font-style: normal;font-weight: 400;font-size: 16px;font-family: Comic Sans MS, cursive;" class="actor actor-box" alignment-baseline="central" dominant-baseline="central" y="32.5" x="314" stroke="rgb(218, 206, 243)" stroke-width="1px" fill="rgb(236, 236, 255)" text-anchor="middle"><tspan dy="0" x="314" stroke="none" stroke-width="1px" fill="rgb(0, 0, 0)" text-anchor="middle" dominant-baseline="central">APIGateway</tspan></text></g><g><path d="M124.29 76.421 C125.359 156.99, 124.898 237.329, 125.474 384.046" stroke="rgb(218, 206, 243)" stroke-width="2" fill="none"></path></g><g><path d="M49.959 13.07 C49.959 13.07, 49.959 13.07, 49.959 13.07 M49.959 13.07 C49.959 13.07, 49.959 13.07, 49.959 13.07 M50.167 16.669 C51.285 14.517, 52.793 13.327, 53.708 10.631 M50.167 16.669 C51.201 14.338, 52.467 12.272, 53.708 10.631 M49.868 21.132 C52.181 18.648, 51.848 17.749, 55.939 10.78 M49.868 21.132 C51.634 17.815, 54.204 13.265, 55.939 10.78 M50.076 24.731 C51.035 19.791, 54.089 16.792, 58.676 10.067 M50.076 24.731 C51.549 22.068, 54.59 18.698, 58.676 10.067 M49.777 29.193 C51.264 22.926, 55.494 17.443, 60.907 10.216 M49.777 29.193 C53.602 22.515, 57.815 14.248, 60.907 10.216 M49.985 32.793 C55.043 26.357, 58.388 17.868, 63.138 10.365 M49.985 32.793 C52.889 28.175, 56.18 22.737, 63.138 10.365 M50.192 36.392 C53.801 29.532, 57.579 25.754, 65.369 10.515 M50.192 36.392 C56.354 27.495, 62.236 16.516, 65.369 10.515 M49.894 40.855 C57.296 29.457, 60.665 19.518, 67.6 10.664 M49.894 40.855 C55.422 31.114, 61.542 20.853, 67.6 10.664 M50.101 44.454 C55.179 38.159, 60.915 26.658, 69.831 10.813 M50.101 44.454 C55.969 34.973, 61.524 24.813, 69.831 10.813 M49.803 48.916 C55.783 38.821, 63.251 24.403, 72.568 10.1 M49.803 48.916 C59.295 34.649, 67.939 18.35, 72.568 10.1 M50.011 52.516 C57.281 40.061, 65.176 26.902, 74.799 10.249 M50.011 52.516 C56.137 40.235, 63.598 28.963, 74.799 10.249 M50.218 56.116 C58.69 42.221, 62.801 33.535, 77.03 10.398 M50.218 56.116 C59.955 42.022, 68.523 26.617, 77.03 10.398 M49.92 60.578 C60.769 41.825, 71.962 27.696, 79.262 10.547 M49.92 60.578 C59.617 45.491, 66.741 30.664, 79.262 10.547 M50.127 64.177 C56.826 50.55, 68.632 36.477, 81.493 10.696 M50.127 64.177 C61.469 43.171, 74.454 22.568, 81.493 10.696 M49.829 68.639 C62.144 48.15, 73.144 30.148, 83.724 10.846 M49.829 68.639 C61.887 46.707, 74.953 26.505, 83.724 10.846 M50.036 72.239 C56.277 59.351, 66.34 47.798, 86.461 10.132 M50.036 72.239 C61.004 54.753, 71.589 36.503, 86.461 10.132 M51.256 74.113 C59.341 58.835, 69.685 38.669, 88.692 10.281 M51.256 74.113 C64.551 51.745, 77.33 31.539, 88.692 10.281 M52.981 75.125 C62.785 56.044, 76.041 37.17, 90.923 10.43 M52.981 75.125 C63.85 55.481, 75.954 38.272, 90.923 10.43 M55.212 75.274 C66.335 50.738, 81 29.808, 93.154 10.58 M55.212 75.274 C63.688 61.217, 70.724 49.13, 93.154 10.58 M57.443 75.424 C70.364 50.584, 85.505 29.624, 95.385 10.729 M57.443 75.424 C67.747 59.272, 76.227 44.924, 95.385 10.729 M59.674 75.573 C70.734 54.465, 85.964 35.231, 97.616 10.878 M59.674 75.573 C69.026 58.781, 78.556 43.438, 97.616 10.878 M61.905 75.722 C73.95 56.179, 88.967 33.614, 100.353 10.165 M61.905 75.722 C73.209 57.679, 82.982 37.707, 100.353 10.165 M64.642 75.009 C73.284 57.356, 85.647 40.986, 102.584 10.314 M64.642 75.009 C72.767 59.215, 83.343 41.526, 102.584 10.314 M66.873 75.158 C78.177 52.626, 89.807 32.841, 104.815 10.463 M66.873 75.158 C78.434 56.397, 89.288 39.531, 104.815 10.463 M69.104 75.307 C82.581 53.579, 97.348 28.344, 107.046 10.612 M69.104 75.307 C77.42 61.799, 84.37 49.504, 107.046 10.612 M71.335 75.456 C84.976 49.078, 102.963 26.557, 109.277 10.761 M71.335 75.456 C79.618 59.851, 88.892 43.279, 109.277 10.761 M73.567 75.605 C89.496 52.453, 102.189 24.568, 111.509 10.911 M73.567 75.605 C83.307 58.028, 94.232 37.98, 111.509 10.911 M75.798 75.754 C88.762 54.561, 98.688 35.665, 114.246 10.197 M75.798 75.754 C84.127 61.218, 93.162 47.637, 114.246 10.197 M78.535 75.041 C93.977 53.141, 105.875 28.265, 116.477 10.346 M78.535 75.041 C92.76 50.533, 106.656 26.691, 116.477 10.346 M80.766 75.19 C91.923 55.703, 102.298 37.239, 118.708 10.496 M80.766 75.19 C90.547 59.662, 100.17 42.395, 118.708 10.496 M82.997 75.339 C93.999 54.732, 106.983 32.081, 120.939 10.645 M82.997 75.339 C96.081 53.377, 109.948 28.955, 120.939 10.645 M85.228 75.489 C94.896 62.15, 103.619 46.517, 123.17 10.794 M85.228 75.489 C100.173 51.032, 114.509 26.622, 123.17 10.794 M87.459 75.638 C95.253 61.578, 103.865 44.627, 125.401 10.943 M87.459 75.638 C99.087 57.245, 109.261 39.662, 125.401 10.943 M89.69 75.787 C101.828 54.802, 115.745 31.255, 128.138 10.23 M89.69 75.787 C102.213 56.568, 113.667 35.911, 128.138 10.23 M92.427 75.074 C106.905 52.624, 118.928 33.269, 130.369 10.379 M92.427 75.074 C106.644 50.214, 121.501 26.076, 130.369 10.379 M94.658 75.223 C103.418 57.226, 114.672 40.071, 132.6 10.528 M94.658 75.223 C109.414 49.079, 123.746 25.809, 132.6 10.528 M96.889 75.372 C111.346 55.039, 123.313 32.65, 134.831 10.677 M96.889 75.372 C110.865 52.724, 123.224 30.918, 134.831 10.677 M99.12 75.521 C111.233 56.105, 118.84 38.645, 137.062 10.827 M99.12 75.521 C108.217 61.529, 116.37 47.861, 137.062 10.827 M101.351 75.67 C113.893 58.904, 125.75 35.842, 139.293 10.976 M101.351 75.67 C111.852 60.22, 119.549 44.729, 139.293 10.976 M103.582 75.82 C111.902 60.53, 123.549 41.46, 142.03 10.262 M103.582 75.82 C113.755 57.432, 124.167 40.125, 142.03 10.262 M106.319 75.106 C121.28 49.796, 133.552 28.984, 144.261 10.411 M106.319 75.106 C119.209 52.995, 131.124 32.35, 144.261 10.411 M108.55 75.255 C117.867 59.708, 126.525 41.236, 146.492 10.561 M108.55 75.255 C119.136 57.689, 128.705 40.092, 146.492 10.561 M110.782 75.405 C124.693 53.347, 136.514 31.298, 148.724 10.71 M110.782 75.405 C123.347 54.873, 135.905 33.188, 148.724 10.71 M113.013 75.554 C127.762 52.257, 142.123 26.18, 150.955 10.859 M113.013 75.554 C128.167 49.902, 143.049 23.373, 150.955 10.859 M115.244 75.703 C128.193 53.094, 142.423 25.4, 153.186 11.008 M115.244 75.703 C126.255 57.627, 137.835 38.397, 153.186 11.008 M117.475 75.852 C133.346 51.093, 147.534 29.806, 155.923 10.295 M117.475 75.852 C128.911 58.024, 137.68 39.851, 155.923 10.295 M120.212 75.139 C133.133 54.35, 144.766 29.549, 158.154 10.444 M120.212 75.139 C133.191 53.053, 145.223 31.798, 158.154 10.444 M122.443 75.288 C133.11 56.499, 147.148 37.207, 160.385 10.593 M122.443 75.288 C132.359 58.012, 141.759 42.312, 160.385 10.593 M124.674 75.437 C134.378 58.348, 146.977 40.319, 162.616 10.742 M124.674 75.437 C134.764 58.443, 144.785 40.681, 162.616 10.742 M126.905 75.586 C136.349 58.412, 146.877 44.303, 164.847 10.892 M126.905 75.586 C137.518 57.257, 149.036 38.218, 164.847 10.892 M129.136 75.736 C138.33 61.778, 146.478 43.07, 167.078 11.041 M129.136 75.736 C140.585 59.005, 150.218 41.69, 167.078 11.041 M131.367 75.885 C142.665 55.518, 157.418 33.159, 169.815 10.327 M131.367 75.885 C142.464 55.618, 154.079 33.539, 169.815 10.327 M134.104 75.171 C146.738 53.223, 157.893 31.815, 172.046 10.477 M134.104 75.171 C145.607 58.858, 156.148 41.367, 172.046 10.477 M136.335 75.32 C146.989 57.583, 157.033 39.179, 174.277 10.626 M136.335 75.32 C146.592 55.477, 158.777 37.626, 174.277 10.626 M138.566 75.47 C145.455 60.707, 155.152 48.35, 176.508 10.775 M138.566 75.47 C146.153 62.522, 155.681 48.041, 176.508 10.775 M140.797 75.619 C151.201 61.423, 159.575 43.03, 178.739 10.924 M140.797 75.619 C153.458 51.434, 168.201 28.636, 178.739 10.924 M143.029 75.768 C150.543 60.814, 163.678 43.443, 180.971 11.073 M143.029 75.768 C150.384 61.392, 159.285 47.128, 180.971 11.073 M145.26 75.917 C151.738 64.411, 163.031 47.402, 183.708 10.36 M145.26 75.917 C156.181 59.051, 167.248 39.93, 183.708 10.36 M147.997 75.204 C157.956 53.933, 169.974 37.698, 185.939 10.509 M147.997 75.204 C158.907 56.233, 170.734 36.892, 185.939 10.509 M150.228 75.353 C159.456 60.583, 169.432 44.274, 188.17 10.658 M150.228 75.353 C164.157 52.63, 175.423 30.663, 188.17 10.658 M152.459 75.502 C165.729 52.758, 177.242 32.402, 190.401 10.808 M152.459 75.502 C167.493 49.227, 182.689 24.399, 190.401 10.808 M154.69 75.651 C161.689 62.69, 170.229 48.376, 192.632 10.957 M154.69 75.651 C165.81 58.599, 174.574 41.177, 192.632 10.957 M156.921 75.801 C169.604 52.102, 183.14 28.802, 194.863 11.106 M156.921 75.801 C170.879 53.42, 183.919 29.808, 194.863 11.106 M159.152 75.95 C170.84 60.313, 180.417 42.401, 197.6 10.393 M159.152 75.95 C170.705 55.93, 182.267 37.197, 197.6 10.393 M161.889 75.236 C177.659 51.089, 188.36 29.98, 199.325 11.404 M161.889 75.236 C171.695 58.408, 180.347 42.127, 199.325 11.404 M164.12 75.386 C171.255 60.731, 180.589 42.71, 200.544 13.279 M164.12 75.386 C173.272 59.897, 183.709 43.188, 200.544 13.279 M166.351 75.535 C179.902 50.686, 194.528 31.163, 200.752 16.878 M166.351 75.535 C174.805 61.11, 184.68 44.761, 200.752 16.878 M168.582 75.684 C179.331 56.618, 190.458 36.964, 200.454 21.34 M168.582 75.684 C179.392 57.903, 189.385 41.788, 200.454 21.34 M170.813 75.833 C181.345 55.98, 195.441 34.121, 200.661 24.94 M170.813 75.833 C182.248 57.491, 191.874 38.46, 200.661 24.94 M173.044 75.982 C179.972 65.84, 187.861 53.028, 200.363 29.402 M173.044 75.982 C180.999 60.352, 189.939 44.128, 200.363 29.402 M175.781 75.269 C181.718 64.523, 187.894 58.385, 200.57 33.002 M175.781 75.269 C185.821 61.183, 194.433 45.65, 200.57 33.002 M178.013 75.418 C186.629 62.872, 192.71 50.905, 200.272 37.464 M178.013 75.418 C183.921 66.138, 187.972 57.684, 200.272 37.464 M180.244 75.567 C184.78 65.464, 191.931 54.254, 200.479 41.063 M180.244 75.567 C187.23 63.89, 192.91 52.143, 200.479 41.063 M182.475 75.717 C186.591 70.31, 192.661 60.833, 200.181 45.526 M182.475 75.717 C189.167 66.716, 193.353 56.189, 200.181 45.526 M184.706 75.866 C187.516 68.751, 194.786 62.278, 200.388 49.125 M184.706 75.866 C189.726 65.891, 194.73 57.51, 200.388 49.125 M186.937 76.015 C189.606 67.664, 194.853 61.593, 200.09 53.587 M186.937 76.015 C189.942 70.468, 193.695 64.181, 200.09 53.587 M189.674 75.301 C192.863 70.071, 194.15 63.775, 200.298 57.187 M189.674 75.301 C192.78 69.177, 196.062 65.355, 200.298 57.187 M191.905 75.451 C194.442 71.591, 198.676 63.826, 200.505 60.787 M191.905 75.451 C194.669 69.646, 198.013 64.215, 200.505 60.787 M194.136 75.6 C196.506 72.185, 197.087 70.386, 200.207 65.249 M194.136 75.6 C196.675 71.934, 198.83 67.938, 200.207 65.249 M196.367 75.749 C198.336 72.944, 198.581 72.391, 200.414 68.848 M196.367 75.749 C197.772 73.734, 199.133 70.876, 200.414 68.848" stroke="rgb(236, 236, 255)" stroke-width="1.71" fill="none"></path><path d="M53 10 C103.956 8.274, 152.82 9.588, 197 10 M53 10 C100.505 8.239, 146.365 8.316, 197 10 M197 10 C197.191 9.747, 198.412 13.095, 200 13 M197 10 C199.885 11.687, 199.729 13.295, 200 13 M200 13 C201.327 25.915, 199.393 39.9, 200 72 M200 13 C200.227 32.991, 201.362 54.131, 200 72 M200 72 C199.709 72.002, 199.497 75.249, 197 75 M200 72 C201.931 73.86, 198.458 75.41, 197 75 M197 75 C166.889 76.336, 137.057 74.319, 53 75 M197 75 C145.396 75.87, 92.844 75.753, 53 75 M53 75 C51.13 74.652, 50.265 74.051, 50 72 M53 75 C49.073 73.749, 50.643 71.997, 50 72 M50 72 C49.263 58.481, 50.07 44.625, 50 13 M50 72 C50.072 55.441, 49.957 40.663, 50 13 M50 13 C50.067 9.967, 51.989 8.078, 53 10 M50 13 C50.33 10.878, 50.535 11.605, 53 10 M53 10 C53 10, 53 10, 53 10 M53 10 C53 10, 53 10, 53 10" stroke="rgb(218, 206, 243)" stroke-width="1" fill="none"></path></g><g class="text-container" transform="matrix(1 0 0 1 50 10)"><text style="text-anchor: middle; font-size: 16px; font-weight: 400;font-style: normal;font-weight: 400;font-size: 16px;font-family: Comic Sans MS, cursive;" class="actor actor-box" alignment-baseline="central" dominant-baseline="central" y="32.5" x="75" stroke="rgb(218, 206, 243)" stroke-width="1px" fill="rgb(236, 236, 255)" text-anchor="middle"><tspan dy="0" x="75" stroke="none" stroke-width="1px" fill="rgb(0, 0, 0)" text-anchor="middle" dominant-baseline="central">Client</tspan></text></g><g class="text-container" transform="matrix(1 0 0 1 50 10)"><text style="font-size: 16px; font-weight: 400;font-style: normal;font-weight: 400;font-size: 16px;font-family: Comic Sans MS, cursive;" dy="1em" class="messageText" alignment-baseline="middle" dominant-baseline="middle" text-anchor="middle" y="80" x="193" stroke="none" stroke-width="1px" fill="rgb(51, 51, 51)">POST /zealand/patients</text></g><g><path d="M124.913 122.884 C209.319 125.396, 297.069 124.031, 361.34 122.277" stroke="rgb(51, 51, 51)" stroke-width="1.5" fill="none"></path></g><g><path d="M351.108 117.991 C351.108 117.991, 351.108 117.991, 351.108 117.991 M351.108 117.991 C351.108 117.991, 351.108 117.991, 351.108 117.991 M351.635 121.94 C351.96 121.151, 353.585 120.076, 353.61 119.391 M351.133 122.297 C352.198 121.542, 352.708 120.431, 353.835 119.483 M352.177 125.274 C352.996 124.895, 354.441 123.334, 356.732 119.996 M351.854 125.402 C353.201 124.723, 354.313 123.709, 356.728 120.259 M355.062 126.444 C356.616 124.694, 359.25 122.712, 359.347 122.358 M355.278 126.823 C356.654 124.842, 358.385 123.416, 360.057 121.724" stroke="rgb(51, 51, 51)" stroke-width="1.338" fill="none"></path><path d="M350.615 118.294 C355.406 118.791, 358.903 120.186, 361.75 122.673 M363.048 122.989 C357.808 124.354, 355.695 125.634, 352.488 127.823 M351.136 128.158 C351.538 125.514, 351.962 122.583, 350.845 118.116" stroke="rgb(51, 51, 51)" stroke-width="1" fill="none"></path></g><g class="text-container" transform="matrix(1 0 0 1 50 10)"><text style="font-size: 16px; font-weight: 400;font-style: normal;font-weight: 400;font-size: 16px;font-family: Comic Sans MS, cursive;" dy="1em" class="messageText" alignment-baseline="middle" dominant-baseline="middle" text-anchor="middle" y="128" x="446" stroke="none" stroke-width="1px" fill="rgb(51, 51, 51)">POST /api/zealand/patients</text></g><g><path d="M365.701 170.469 C439.422 169.727, 511.011 170.456, 624.409 171.011" stroke="rgb(51, 51, 51)" stroke-width="1.5" fill="none"></path></g><g><path d="M617.129 165.959 C617.129 165.959, 617.129 165.959, 617.129 165.959 M617.129 165.959 C617.129 165.959, 617.129 165.959, 617.129 165.959 M617.636 168.681 C618.078 168.508, 618.248 167.861, 618.586 166.908 M617.663 168.711 C618.077 168.148, 618.413 167.699, 618.854 167.021 M618.083 172.738 C618.741 171.533, 619.344 169.766, 620.407 166.837 M617.302 172.39 C618.679 170.924, 619.344 169.191, 620.689 167.559 M617.342 174.526 C618.81 173.814, 620.171 171.626, 622.258 168.314 M618.207 175.12 C619.666 173.095, 621.16 170.945, 622.497 168.815 M620.293 174.86 C621.609 174.267, 622.855 172.719, 623.637 169.943 M620.1 175.393 C621.382 174.022, 622.316 172.857, 624.572 169.729 M623.932 172.993 C625.237 172.202, 625.329 171.21, 626.126 170.423 M624.215 173.435 C624.772 172.529, 625.005 171.775, 626.604 170.064" stroke="rgb(51, 51, 51)" stroke-width="0.803" fill="none"></path><path d="M617.529 167.014 C618.313 167.25, 621.479 169.174, 628.34 171.969 M628.602 170.956 C625.499 173.182, 622.54 173.18, 617.562 174.959 M617.98 176.058 C618.508 172.309, 617.771 169.059, 616.113 166.997" stroke="rgb(51, 51, 51)" stroke-width="1" fill="none"></path></g><g class="text-container" transform="matrix(1 0 0 1 50 10)"><text style="font-size: 16px; font-weight: 400;font-style: normal;font-weight: 400;font-size: 16px;font-family: Comic Sans MS, cursive;" dy="1em" class="messageText" alignment-baseline="middle" dominant-baseline="middle" text-anchor="middle" y="176" x="693" stroke="none" stroke-width="1px" fill="rgb(51, 51, 51)">INSERT INTO Patients</text></g><g><path d="M630.654 217.323 C700.868 218.539, 770.41 219.053, 853.527 218.239" stroke="rgb(51, 51, 51)" stroke-width="1.5" fill="none"></path></g><g><path d="M844.866 214.311 C844.866 214.311, 844.866 214.311, 844.866 214.311 M844.866 214.311 C844.866 214.311, 844.866 214.311, 844.866 214.311 M845.195 218.254 C845.89 217.596, 846.369 216.943, 847.558 215.059 M845.535 218.703 C845.982 217.613, 846.779 216.705, 847.86 215.505 M845.309 222.8 C847.753 220.76, 847.405 220.536, 850.639 217.103 M845.975 222.694 C847.178 220.804, 848.511 219.639, 851.216 215.993 M850.086 221.634 C850.756 221.292, 851.844 219.835, 853.688 217.879 M850.324 222.171 C851.221 220.811, 852.156 219.72, 853.17 218.221" stroke="rgb(51, 51, 51)" stroke-width="1.109" fill="none"></path><path d="M844.194 214.173 C849.712 215.491, 853.607 217.537, 857.063 218.462 M856.072 219.79 C853.399 220.881, 849.619 222.741, 845.038 224.187 M845.585 223.55 C845.619 221.262, 845.724 216.126, 845.316 213.849" stroke="rgb(51, 51, 51)" stroke-width="1" fill="none"></path></g><g class="text-container" transform="matrix(1 0 0 1 50 10)"><text style="font-size: 16px; font-weight: 400;font-style: normal;font-weight: 400;font-size: 16px;font-family: Comic Sans MS, cursive;" dy="1em" class="messageText" alignment-baseline="middle" dominant-baseline="middle" text-anchor="middle" y="224" x="696" stroke="none" stroke-width="1px" fill="rgb(51, 51, 51)">Patient Created</text></g><g><path d="M856.293 268.519 C785.992 268.111, 719.368 268.662, 634.559 267.112 M857.779 266.358 C784.418 264.71, 710.783 265.523, 634.047 266.949" stroke="rgb(51, 51, 51)" stroke-width="1.5" fill="none" stroke-dasharray="3 3"></path></g><g><path d="M632.258 266.698 C632.258 266.698, 632.258 266.698, 632.258 266.698 M632.258 266.698 C632.258 266.698, 632.258 266.698, 632.258 266.698 M633.961 268.58 C635.789 267.072, 636.888 264.96, 639.494 263.767 M633.205 267.883 C635.363 266.643, 636.803 265.658, 639.931 263.294 M635.846 269.278 C637.034 268.321, 638.76 266.846, 642.35 263.331 M635.892 269.45 C637.63 267.198, 638.878 265.77, 642.108 263.652 M637.218 269.508 C639.623 268.366, 640.415 267.787, 642.145 265.649 M637.447 270.061 C638.658 268.774, 640.401 267.886, 642.218 266.434 M639.59 271.238 C640.37 270.146, 641.45 269.342, 642.378 268.03 M639.616 270.792 C640.64 270.371, 641.199 269.585, 642.924 268.229 M641.594 271.967 C642.402 271.284, 643.012 270.807, 643.484 270.57 M641.734 271.769 C641.998 271.392, 642.467 271.148, 643.259 270.466" stroke="rgb(51, 51, 51)" stroke-width="1.389" fill="none"></path><path d="M643.546 270.831 C640.065 270.462, 634.166 269.165, 631.077 267.767 M642.816 272.482 C640.198 270.23, 637.807 269.145, 631.992 267.514 M631.219 266.156 C635.261 265.453, 638.537 263.936, 642.34 261.621 M632.141 267.113 C634.119 265.879, 637.096 264.103, 642.004 262.019 M642.683 261.168 C641.395 263.713, 642.865 267.146, 642.174 271.152 M641.426 261.787 C642.754 266.063, 642.777 270.092, 642.508 272.435" stroke="rgb(51, 51, 51)" stroke-width="1" fill="none"></path></g><g class="text-container" transform="matrix(1 0 0 1 50 10)"><text style="font-size: 16px; font-weight: 400;font-style: normal;font-weight: 400;font-size: 16px;font-family: Comic Sans MS, cursive;" dy="1em" class="messageText" alignment-baseline="middle" dominant-baseline="middle" text-anchor="middle" y="272" x="449" stroke="none" stroke-width="1px" fill="rgb(51, 51, 51)">201 Created</text></g><g><path d="M627.848 314.762 C563.807 314.771, 498.537 315.379, 367.141 316.015 M629.712 314.853 C576.556 313.917, 524.005 313.76, 367.356 314.353" stroke="rgb(51, 51, 51)" stroke-width="1.5" fill="none" stroke-dasharray="3 3"></path></g><g><path d="M365.725 315.2 C365.725 315.2, 365.725 315.2, 365.725 315.2 M365.725 315.2 C365.725 315.2, 365.725 315.2, 365.725 315.2 M368.964 316.739 C370.23 314.941, 371.774 312.807, 373.689 311.134 M368.653 316.703 C369.549 315.146, 370.969 314.007, 372.943 311.261 M371.677 317.169 C372.513 316.329, 374.652 314.428, 377.449 310.853 M371.293 317.908 C373.828 315.744, 375.31 313.734, 376.485 311.435 M374.572 318.481 C374.967 317.955, 375.825 316.53, 377.081 316.057 M374.675 318.713 C375.386 317.67, 376.403 316.572, 377.268 315.995" stroke="rgb(51, 51, 51)" stroke-width="1.353" fill="none"></path><path d="M375.947 319.348 C373.375 319.791, 372.355 318.276, 365.728 315.464 M366.618 314.779 C369.422 314.181, 370.141 312.959, 376.285 310.968 M376.594 310.388 C375.466 312.679, 376.073 315.69, 376.177 320.778" stroke="rgb(51, 51, 51)" stroke-width="1" fill="none"></path></g><g class="text-container" transform="matrix(1 0 0 1 50 10)"><text style="font-size: 16px; font-weight: 400;font-style: normal;font-weight: 400;font-size: 16px;font-family: Comic Sans MS, cursive;" dy="1em" class="messageText" alignment-baseline="middle" dominant-baseline="middle" text-anchor="middle" y="320" x="196" stroke="none" stroke-width="1px" fill="rgb(51, 51, 51)">201 Created</text></g><g><path d="M363.996 364.286 C306.366 364.299, 249.049 364.167, 128.4 364.335" stroke="rgb(51, 51, 51)" stroke-width="1.5" fill="none" stroke-dasharray="3 3"></path></g><g><path d="M126.806 363.13 C126.806 363.13, 126.806 363.13, 126.806 363.13 M126.806 363.13 C126.806 363.13, 126.806 363.13, 126.806 363.13 M127.503 363.859 C128.05 363.025, 128.564 362.614, 128.619 362.19 M127.564 363.694 C127.944 363.188, 128.411 362.607, 128.822 362.007 M129.242 363.432 C129.408 362.527, 130.236 361.815, 130.864 361.324 M129.014 363.381 C129.454 362.802, 130.127 362.142, 130.785 361.059 M129.487 363.874 C130.858 362.484, 132.169 361.266, 132.938 359.923 M129.599 364.268 C130.901 362.543, 131.999 361.334, 132.519 360.054 M131.099 365.27 C132.197 362.757, 132.32 362.131, 135.046 358.346 M130.879 364.976 C132.49 362.255, 133.652 360.018, 134.775 358.852 M132.318 364.874 C132.437 363.216, 134.373 359.994, 137.32 357.405 M131.365 365.118 C132.934 363.334, 134.125 361.753, 136.834 358.2 M133.003 366.646 C134.648 363.69, 136.564 360.824, 136.722 357.724 M132.282 365.758 C134.554 363.283, 136.053 359.845, 137.944 358.865 M133.182 365.939 C135.582 363.254, 136.607 362.002, 137.774 360.272 M133.584 365.928 C134.627 364.022, 136.376 361.787, 137.698 359.695 M134.167 366.191 C136.206 364.897, 137.345 362.453, 137.884 361.433 M134.389 366.255 C135.173 365.117, 135.89 363.868, 137.931 361.441 M135.403 366.455 C136.944 365.17, 138.089 363.725, 137.825 362.598 M135.105 366.862 C136.358 365.302, 137.677 363.74, 138.21 362.662 M136.01 367.114 C136.841 366.29, 137.392 365.279, 138.704 364.365 M136.084 367.397 C136.783 366.317, 137.476 365.173, 138.557 364.139 M136.812 368.117 C137.344 367.64, 137.355 367.207, 138.235 366.277 M136.857 367.894 C137.175 367.555, 137.603 367.05, 138.034 366.272" stroke="rgb(51, 51, 51)" stroke-width="0.989" fill="none"></path><path d="M137.131 368.413 C135.87 366.853, 131.487 365.241, 126.138 361.818 M137.633 367.491 C133.487 366.342, 130.153 364.157, 127.351 363.36 M127.968 361.934 C129.475 360.964, 131.939 360.511, 136.278 357.32 M127.394 362.493 C129.447 362.17, 132.701 360.65, 136.418 358.129 M136.328 358.837 C137.938 360.867, 137.826 363.368, 137.983 368.331 M136.869 358.189 C137.364 360.757, 137.519 364.137, 137.607 368.413" stroke="rgb(51, 51, 51)" stroke-width="1" fill="none"></path></g></svg>